<svg id="Layer_1" data-name="Layer 1" xmlns="http://www.w3.org/2000/svg" viewBox="0 0 436.88 379.2"><path d="M248.22,374.79q10.29,11,19.49,22.93l-6.57-8.5a415.25,415.25,0,0,1,32.34,49.39c9.81,17.4,18.65,35.33,27.09,53.42s16.57,36.51,24.84,54.77,16.74,36.41,26,54.19c4.62,8.89,9.42,17.69,14.49,26.33a104.75,104.75,0,0,0,9.89,13.74,19.08,19.08,0,0,0,1.83,2,97.55,97.55,0,0,0,10.53,8.25,20.08,20.08,0,0,0,2.39,1.46,111.63,111.63,0,0,0,12.18,5.19,20,20,0,0,0,2.64.78c.42.09.83.17,1.25.24,4,.67,8.21,1.27,12.22,1.64a22.91,22.91,0,0,0,2.75.09c.42,0,.84-.05,1.27-.08,4.08-.36,8.39-1,12.43-1.67a19.49,19.49,0,0,0,2.49-.57c.41-.12.82-.26,1.22-.4,3.78-1.4,7.6-3,11.23-4.73A22.27,22.27,0,0,0,472.5,652c.44-.28.86-.57,1.28-.87,3.16-2.26,6.42-4.75,9.38-7.26a33.74,33.74,0,0,0,4.55-5,326.34,326.34,0,0,0,25-35.71c11.73-19.78,22.1-40.36,33.34-60.41Q563.48,511.6,581.9,481q18.47-30.79,37.56-61.19t38.2-60.41L667,344.7a31.25,31.25,0,0,0,5-15.62,37.74,37.74,0,0,0-8.26-31A31.74,31.74,0,0,0,652,287.23l-10-4.23a42.3,42.3,0,0,0-22.33,0l-10,4.23A42.26,42.26,0,0,0,594.5,302.3c-23.52,36.91-47,73.83-69.89,111.16s-45,75.06-65.79,113.57c-10.95,20.28-21.61,40.88-35.71,59.22l6.57-8.5a39.22,39.22,0,0,1-6.44,7.17l8.5-6.57a20.87,20.87,0,0,1-4.15,2.45l10-4.24a21.08,21.08,0,0,1-5.34,1.48l11.16-1.5a22,22,0,0,1-5.07,0l11.16,1.5a21.37,21.37,0,0,1-5.32-1.43l10,4.24a21.45,21.45,0,0,1-4.45-2.63l8.51,6.57a21,21,0,0,1-3.44-3.49l6.56,8.5c-2.82-3.8-5-8.21-7.31-12.32q-3.74-6.62-7.28-13.31c-4.67-8.79-9.13-17.69-13.46-26.64-8.73-18.07-16.91-36.38-25.13-54.68s-16.51-36.64-25.42-54.65a576.6,576.6,0,0,0-28.69-51.94q-7.83-12.43-16.55-24.27c-7.92-10.67-16.11-21.22-25-31.14-1.64-1.84-3.31-3.67-5-5.47a31.52,31.52,0,0,0-13.52-8.68,31.62,31.62,0,0,0-16.18-3.62,31.63,31.63,0,0,0-16.19,3.62,31.48,31.48,0,0,0-13.51,8.68l-6.57,8.5a41.77,41.77,0,0,0-5.73,21.2l1.5,11.17a41.88,41.88,0,0,0,10.8,18.53Z" transform="translate(-235.92 -281.5)"/></svg>