<svg xmlns="http://www.w3.org/2000/svg" viewBox="0 0 279.19 319.88"><defs><style>.cls-1{fill:#fc0;}</style></defs><g id="Layer_2" data-name="Layer 2"><g id="Layer_1-2" data-name="Layer 1"><path class="cls-1" d="M133.49,226.61c-1.21,9.32-2.5,18.9-7.07,27.11-3.57,6.41-8.93,11.59-13.76,17.11a129.52,129.52,0,0,0-12.58,17c-3.26,5.24-5.57,13.3-.35,16.58a12.37,12.37,0,0,0,5.68,1.41c24.74,2.12,49.56,4.24,74.38,3.37,6.46-.22,13.74-1.07,17.68-6.2,4.27-5.56,2.57-13.66-.62-19.91-5-9.87-13.07-17.8-20-26.46s-13-18.84-12.86-29.92"/><path d="M123,226.61c-.13,1-.27,2-.4,3.07l.37-2.79c-.93,6.83-2.09,13.69-4.75,20.09l1.06-2.5a45.49,45.49,0,0,1-5.73,9.66l1.64-2.13c-4.5,5.81-9.81,10.93-14.35,16.71-5.17,6.58-10.59,13.44-13.33,21.45A24,24,0,0,0,86.73,303c1.25,5.84,5.88,10.16,11.33,12.11a29,29,0,0,0,7.35,1.22l6.43.55c4.13.35,8.26.7,12.39,1,16.33,1.27,32.71,2.21,49.11,2,3.6,0,7.24-.07,10.83-.44A40.55,40.55,0,0,0,197.55,316c8.52-3.9,13.59-13.31,12.92-22.56-1.35-18.68-16.44-31.73-27.22-45.61l1.64,2.13a67.45,67.45,0,0,1-8.8-14.46l1.06,2.51a39.36,39.36,0,0,1-2.73-9.57l.38,2.79a35,35,0,0,1-.3-4.57,10.86,10.86,0,0,0-3.07-7.43,10.51,10.51,0,0,0-17.93,7.43c0,8.6,2.73,16.91,6.87,24.36,3.87,6.95,9,13.11,14.19,19.14,2.67,3.12,5.34,6.24,7.86,9.49l-1.64-2.12a62.52,62.52,0,0,1,8,12.92L187.71,288a28.32,28.32,0,0,1,2,7.15l-.37-2.79a19.61,19.61,0,0,1,0,4.53l.38-2.79a14.54,14.54,0,0,1-.94,3.55l1.06-2.51a13.56,13.56,0,0,1-1.5,2.58l1.64-2.13a13.71,13.71,0,0,1-2.22,2.22l2.12-1.64a16.23,16.23,0,0,1-3.31,1.9l2.51-1.06a26.34,26.34,0,0,1-6.29,1.62l2.79-.38a115.57,115.57,0,0,1-14.29.65c-5.46.05-10.92,0-16.38-.2-11-.35-22-1.1-33-2-6.09-.48-12.22-.84-18.29-1.55l2.8.37a13.47,13.47,0,0,1-2.87-.68l2.51,1.06a8.43,8.43,0,0,1-1.63-.92l2.12,1.64a7.93,7.93,0,0,1-1.06-1l1.65,2.13a7,7,0,0,1-.88-1.46l1.06,2.51a8.82,8.82,0,0,1-.54-1.95l.38,2.79a12.29,12.29,0,0,1,0-3.09l-.38,2.79a21.05,21.05,0,0,1,1.47-5.15l-1.06,2.5a45.12,45.12,0,0,1,4-6.83q2.61-3.93,5.5-7.66l-1.64,2.12c5-6.4,10.78-12.08,15.73-18.49a49.11,49.11,0,0,0,6.55-10.73,68.21,68.21,0,0,0,4.22-13c1.08-5.11,1.7-10.3,2.37-15.47.32-2.47-1.41-5.75-3.08-7.42a10.49,10.49,0,0,0-14.85,0l-1.64,2.12a10.41,10.41,0,0,0-1.43,5.3Z"/><path class="cls-1" d="M221.36,10.59c-43.78-.38-91.58.57-135.36.18-2.19,0-4.54,0-6.3,1.3-2.25,1.64-2.78,4.72-3.13,7.49-5.84,46-11.67,92.74-4.46,138.54C73.59,167.47,75.7,177,80.85,185a57.51,57.51,0,0,0,10.92,12,104.85,104.85,0,0,0,62.67,25.14c14.05.71,29-1.81,39.71-10.95,8.69-7.41,13.59-18.3,17-29.19,3.64-11.49,5.95-23.35,8.08-35.22,7.67-42.74,13.06-87,3.6-129.36Z"/><path d="M221.36.09c-22.64-.19-45.28,0-67.92.1s-45.35.06-68,.08c-4.36,0-8.58.85-12.08,3.56A17.7,17.7,0,0,0,66.9,14c-.76,3.32-1,6.78-1.42,10.16q-.56,4.38-1.1,8.76c-1.45,11.7-2.81,23.42-3.89,35.17-2.13,23.37-3.12,46.92-1.21,70.34.54,6.62,1.34,13.21,2.3,19.78A122.72,122.72,0,0,0,64.73,174a60.31,60.31,0,0,0,7.17,16.43A66.72,66.72,0,0,0,83.85,204c16.22,14.2,36.47,24.07,57.85,27.28,11.35,1.7,22.59,2.05,33.91-.18,10.78-2.13,21.27-7.26,28.91-15.26,7.89-8.26,12.75-18.75,16.29-29.48,3.6-10.9,5.91-22.18,8-33.45,4.3-23.44,8-47.11,9.21-70.93a253.29,253.29,0,0,0-5.12-67.84L231.49,7.8c-1.19-5.37-7.71-9-12.92-7.33a10.74,10.74,0,0,0-7.33,12.92c1.74,7.87,3.43,15.73,4.51,23.73l-.37-2.79c2.79,21,2.46,42.18.47,63.19-.57,6-1.28,12-2.08,17.92l.38-2.79c-1.39,10.25-3.06,20.45-4.88,30.63s-3.74,20.23-6.49,30.15a128.14,128.14,0,0,1-5.08,15l1.06-2.51a62.83,62.83,0,0,1-7.83,13.79l1.64-2.13a42.83,42.83,0,0,1-7.39,7.41l2.13-1.65a43,43,0,0,1-9.17,5.31l2.5-1.06a57.34,57.34,0,0,1-14.57,3.87l2.8-.38a87.79,87.79,0,0,1-22.73-.24l2.79.38a106.08,106.08,0,0,1-26.85-7.34l2.51,1.06a105.71,105.71,0,0,1-23.32-13.61l2.12,1.64a73.17,73.17,0,0,1-13.08-12.58L92,182.53a44.77,44.77,0,0,1-5.66-9.81l1.06,2.51c-3.39-8.17-4.78-17-6-25.73l.38,2.79a319.1,319.1,0,0,1-2.32-51.89C80,83,81.57,65.62,83.55,48.31c1.1-9.71,2.31-19.42,3.56-29.11L86.74,22a18.75,18.75,0,0,1,1-4.31l-1.06,2.51a8,8,0,0,1,1.06-1.84L86.1,20.48a6.76,6.76,0,0,1,1-1L85,21.14a7.36,7.36,0,0,1,1-.57l-2.51,1.06a9.45,9.45,0,0,1,2.2-.6l-2.79.38A47.74,47.74,0,0,1,89,21.3l6.69,0q6.64,0,13.3,0,13.64,0,27.26-.08c18.28-.1,36.57-.25,54.86-.28q15.14,0,30.27.08A10.77,10.77,0,0,0,228.79,18a10.66,10.66,0,0,0,3.07-7.43A10.68,10.68,0,0,0,221.36.09Z"/><path d="M77.89,5.71a74.07,74.07,0,0,0-43.08,11A71.66,71.66,0,0,0,17.66,31.28a76.25,76.25,0,0,0-7.3,10.1A80.47,80.47,0,0,0,5,52.71,74.81,74.81,0,0,0,.15,75.22,72.68,72.68,0,0,0,2.36,98.11c3.76,14.49,12.29,27.34,22.59,38,10,10.37,21.8,18.93,33.62,27.09,1.38,1,2.78,1.91,4.17,2.86a10.5,10.5,0,0,0,15.42-11.86A11.64,11.64,0,0,0,73.34,148c-6.38-4.35-12.72-8.76-18.83-13.47l2.13,1.64c-8.8-6.81-17.16-14.27-24-23.09l1.64,2.13A76.22,76.22,0,0,1,24.43,98.5L25.49,101a63.42,63.42,0,0,1-4.31-15.82L21.56,88a65.69,65.69,0,0,1,.05-17.27l-.37,2.79a66.39,66.39,0,0,1,4.43-16.3l-1.06,2.51a62.32,62.32,0,0,1,8.09-13.9l-1.65,2.12A62.47,62.47,0,0,1,42,37.06L39.85,38.7A66.88,66.88,0,0,1,54.5,30.16L52,31.22a66.17,66.17,0,0,1,16.35-4.47l-2.79.38a62.75,62.75,0,0,1,12.33-.42A10.5,10.5,0,0,0,85.32,8.79a11.59,11.59,0,0,0-7.43-3.08Z"/><path d="M228,31.8a19.63,19.63,0,0,1,4.66,0l-2.79-.38A23.48,23.48,0,0,1,235.46,33L233,31.93a31.73,31.73,0,0,1,6.49,3.85l-2.13-1.65a46,46,0,0,1,8.13,8.3l-1.65-2.13a68.23,68.23,0,0,1,8.56,14.86l-1.06-2.51a92.68,92.68,0,0,1,6.09,23.22L257,73.08a147.52,147.52,0,0,1-.09,38.65l.38-2.79A51.58,51.58,0,0,1,254,121.76l1-2.51a42.37,42.37,0,0,1-5.23,8.88l1.64-2.13a58.27,58.27,0,0,1-10.3,10.1l2.12-1.65c-7.06,5.44-15,9.66-22.85,13.74A10.5,10.5,0,0,0,231,166.32c10.56-5.44,21.1-11.29,29.82-19.49a54.14,54.14,0,0,0,11.23-14.61c3.75-7.38,5.32-15.08,6.18-23.24a152.25,152.25,0,0,0-.22-35.7c-1.7-13-5-25.69-11.73-37.08C262.67,30,258.12,24,252.48,19.53c-6.88-5.46-15.4-9.77-24.47-8.73-2.87.32-5.3.95-7.43,3.07a10.51,10.51,0,0,0,0,14.85c1.92,1.76,4.72,3.39,7.43,3.08Z"/></g></g></svg>