<svg id="Layer_1" data-name="Layer 1" xmlns="http://www.w3.org/2000/svg" viewBox="0 0 427.03 230.92"><defs><style>.cls-1{fill:#00a99d;}</style></defs><path class="cls-1" d="M640.2,447.18c-2.72-.13-5.45-.14-8.17,0-46.93,2.33-92.77,8.57-139.34,7.23-5.92-.17-11.91-.41-17.69,1.44-10.05,3.22-18.58,12.43-26.64,21.6C401.1,531.21,385.62,576.86,347,643.22c73,0,109.39-2.61,178.18.77,33.53,1.65,67.09,6,100.57,3,5.18-.45,10.51-1.14,15.14-4.5,4.82-3.51,8.43-9.59,11.88-15.53Q702,542.16,744.08,449.66c-33.28-.87-62.1,2.42-94.91-1.74-2.44-.31-4.89-.55-7.34-.67Z" transform="translate(-332.05 -432.09)"/><path d="M640.2,432.18c-7.17-.31-14.36.3-21.51.76q-11.13.71-22.26,1.59c-14.63,1.12-29.26,2.35-43.9,3.32-14.47.95-29,1.65-43.48,1.74-7.31,0-14.61-.29-21.92-.29-8.82,0-17.29,1.68-25.06,5.93-12.11,6.61-21.39,18-30.13,28.38Q419.27,488.67,408,504.86c-12.7,18.27-23.67,37.63-34.12,57.25-11.5,21.57-22.62,43.35-34.69,64.62q-2.55,4.47-5.13,8.92c-5.72,9.84,1.56,22.58,12.95,22.57,30.9,0,61.8-.66,92.7-.9,30.33-.23,60.69.24,91,2,18.6,1.06,37.17,2.77,55.8,3.45,9.16.33,18.34.4,27.5,0,10.69-.44,21.72-.81,31.51-5.54,8.89-4.3,14.72-13.24,19.54-21.49q6.74-11.52,13.25-23.17,13-23,25.29-46.4,25.2-47.71,47.86-96.72,2.82-6.09,5.61-12.21a15.07,15.07,0,0,0,0-15.14,15.27,15.27,0,0,0-13-7.43c-27.81-.7-55.66,1.67-83.44-.56-6.82-.54-13.6-1.6-20.44-1.92-7.85-.37-15.35,7.16-15,15a15.33,15.33,0,0,0,15,15c5.83.27,11.6,1.13,17.41,1.66,6.95.64,13.93,1,20.9,1.14,13.71.3,27.42-.16,41.13-.37,8.15-.13,16.3-.15,24.44.05l-13-22.57q-17.4,38.21-36.3,75.7Q676.19,554.73,656,590.91q-5.53,9.93-11.19,19.79c-3.66,6.4-7.11,13.1-11.62,19l2.34-3a29.67,29.67,0,0,1-4.79,4.91l3-2.35a22.27,22.27,0,0,1-4.69,2.69l3.59-1.52a32.15,32.15,0,0,1-7,1.77l4-.54a223.33,223.33,0,0,1-30.6,1.42c-10.62-.06-21.23-.59-31.82-1.27-20.33-1.3-40.61-2.81-61-3.55-32.44-1.19-64.88-.94-97.33-.49-20.64.29-41.29.53-61.93.53L360,650.8c11.84-20.37,22.79-41.22,33.75-62.07,9.74-18.52,19.63-37,30.86-54.68q9.82-15.45,21-30l-2.34,3q7-9.09,14.6-17.77c5.22-6,10.52-12,16.8-16.87l-3,2.34a41.51,41.51,0,0,1,8.69-5.18l-3.59,1.51a32.25,32.25,0,0,1,7.4-2l-4,.53c5.09-.65,10.21-.34,15.32-.23s10.38.14,15.58.09c10.49-.1,21-.51,31.45-1.1,20.74-1.18,41.44-3,62.17-4.56,11.77-.87,23.77-2.24,35.58-1.73,7.85.33,15.35-7.14,15-15A15.32,15.32,0,0,0,640.2,432.18Z" transform="translate(-332.05 -432.09)"/></svg>