<svg xmlns="http://www.w3.org/2000/svg" viewBox="0 0 237.65 202.26"><defs><style>.cls-1{fill:#8c6239;}.cls-2{fill:#6d5c45;}.cls-3{fill:#fc0;}</style></defs><g id="Layer_2" data-name="Layer 2"><g id="Layer_1-2" data-name="Layer 1"><path class="cls-1" d="M213.52,58.81q-94.32-2.6-188.71-2.08c-1.76,0-3.66.06-5,1.1-1.8,1.36-2.05,3.83-2.15,6-2,44.26-2.91,81.31-2.79,125.61,20.39,1,36.77,4.25,59.31.67,15.76-2.51,35.47,1.32,51.4.22,11.61-.79,23.26-.75,34.89-.71l57,.19a328.14,328.14,0,0,0,1.21-73.06Z"/><path d="M213.52,48.31q-33.32-.91-66.64-1.45t-66.65-.67q-16.73-.06-33.45,0-8.23,0-16.48.05a74.76,74.76,0,0,0-7.78.14,18.26,18.26,0,0,0-7.43,2,15.34,15.34,0,0,0-5.42,5.29c-1.92,3-2.38,6.71-2.55,10.19-.14,2.79-.24,5.58-.36,8.37q-.34,7.9-.64,15.83-.58,15.52-1,31-.81,31.11-.81,62.23,0,4.08,0,8.14a10.66,10.66,0,0,0,3.07,7.42A11.43,11.43,0,0,0,14.83,200c15.62.81,31.18,3,46.85,2.05,5.65-.36,11.22-1.23,16.83-2l-2.79.38c16.72-2.14,33.55,1.53,50.31.42,19.43-1.28,39-.67,58.45-.6l33,.11a10.67,10.67,0,0,0,7.43-3.08l1.64-2.12a10.41,10.41,0,0,0,1.43-5.3,329.81,329.81,0,0,0,2.63-48.05c-.17-9.27-.84-18.51-1.66-27.75l-3.72-41.86L224,58.81a11.21,11.21,0,0,0-3.08-7.42,10.48,10.48,0,0,0-14.84,0c-1.79,1.94-3.32,4.68-3.08,7.42l3,33.93c1.29,14.52,2.9,29.08,3.41,43.65A330.39,330.39,0,0,1,207,189.84l10.5-10.5q-30.48-.1-61-.21c-10.08,0-20.17,0-30.22.68-8.77.58-17.53-.08-26.28-.58-4.93-.28-9.87-.52-14.8-.45a142.71,142.71,0,0,0-17.26,1.73l2.8-.38c-14.5,1.9-28.9.88-43.4-.3-4.17-.33-8.34-.65-12.51-.86l10.5,10.5q-.06-25.12.36-50.24.43-24.42,1.35-48.81.26-7.15.56-14.31c.19-4.65.15-9.39.66-14l-.38,2.79a10.14,10.14,0,0,1,.58-2.37L27.41,65a6.77,6.77,0,0,1,.68-1.16L26.45,66a6.27,6.27,0,0,1,.74-.72L25.07,66.9a6,6,0,0,1,.95-.54l-2.51,1a8.63,8.63,0,0,1,1.8-.45l-2.79.38c2.89-.31,5.88-.13,8.78-.15l9.49,0q9.23,0,18.47,0,18.72,0,37.45.15,37.44.25,74.88,1,21,.42,41.93,1c5.49.15,10.75-4.94,10.5-10.5A10.7,10.7,0,0,0,213.52,48.31Z"/><path class="cls-2" d="M97.55,35.16,96,22.59c-.24-1.95-.44-4.08.6-5.75s2.76-2.33,4.47-2.94c9.65-3.42,20.14-4.06,30.31-2.85,2.88.35,5.94.94,8,3A11.47,11.47,0,0,1,142,19a30.81,30.81,0,0,1-.41,18.71"/><path d="M108.05,35.16l-1-8.46c-.3-2.51-.87-5.14-.62-7.68L106,21.81a7.92,7.92,0,0,1,.37-1.49l-1.06,2.51a7.41,7.41,0,0,1,.56-1L104.27,24a6.43,6.43,0,0,1,1-1l-2.13,1.64a11.08,11.08,0,0,1,2.24-1.23l-2.51,1.06a55.26,55.26,0,0,1,13-3.24l-2.79.38a74.15,74.15,0,0,1,19.06.09l-2.79-.37a19.31,19.31,0,0,1,4.44,1.07l-2.51-1.05a10.57,10.57,0,0,1,1.95,1.07l-2.13-1.64a9.72,9.72,0,0,1,1.39,1.33l-1.65-2.12a11.53,11.53,0,0,1,1.4,2.43l-1.06-2.51a27.66,27.66,0,0,1,1.63,6.33l-.38-2.79a32.43,32.43,0,0,1,0,8.58l.37-2.79a32.29,32.29,0,0,1-1.37,5.71,10.5,10.5,0,1,0,20.25,5.58,41.31,41.31,0,0,0,.66-23.42c-1.08-4.11-3-8.43-6.39-11.18a21.67,21.67,0,0,0-7.28-4A33.66,33.66,0,0,0,132.17.65,75.52,75.52,0,0,0,113.11.56a76.68,76.68,0,0,0-11.74,2.23C97.27,4,93,5.46,89.88,8.57c-4,4.11-4.89,9.51-4.23,15l1.4,11.61c.35,2.88.94,5.29,3.07,7.43a10.51,10.51,0,0,0,14.85,0c1.76-1.91,3.4-4.73,3.08-7.43Z"/><path class="cls-1" d="M200.33,50,151,47.1c-40.84-2.38-81.8-4.76-122.61-1.76-2.16.16-4.45.38-6.22,1.72-2.09,1.57-3,4.33-3.8,6.94a194.26,194.26,0,0,0-6.61,76.58c.23,2,.53,4.1,1.69,5.68,1.38,1.88,3.68,2.63,5.84,3.21,62.31,16.89,128.23-15.81,191.66-4.79,2.09.37,4.38.74,6.2-.41a8.9,8.9,0,0,0,3-4.09c6.18-13.89,7-29.76,7.07-45.16q0-15.08-.77-30.15c-.07-1.27-.22-2.7-1.15-3.5a4.07,4.07,0,0,0-3-.58l-10.77.7Z"/><path d="M200.33,39.48C172.14,37.83,144,36,115.74,34.68c-28-1.33-56.13-1.93-84.15-.06-4.69.31-9.44.47-13.69,2.73C13.26,39.81,10.69,44.22,9,49A127.31,127.31,0,0,0,4.16,67.65,209,209,0,0,0,0,109.84a195.62,195.62,0,0,0,1.13,19.8,44.78,44.78,0,0,0,1,6.92,18,18,0,0,0,4.34,7.71c3,3.14,7.16,4.6,11.25,5.67a164.39,164.39,0,0,0,38.69,4.95c25.48.4,50.76-4,75.9-7.66q4.59-.66,9.18-1.28l-2.79.37c17.18-2.3,34.53-4,51.89-3.28q7.38.32,14.71,1.28l-2.79-.37q2.7.36,5.38.82c1.66.28,3.33.56,5,.71a19.36,19.36,0,0,0,5-.38,14.25,14.25,0,0,0,8-4.71A27.47,27.47,0,0,0,230.2,133c3.44-8.15,5.17-16.54,6.27-25.29A185.1,185.1,0,0,0,237.65,85q0-12.48-.51-25a82.8,82.8,0,0,0-.72-9,13.18,13.18,0,0,0-9.06-10.16c-2.88-.9-5.84-.53-8.77-.34l-7.1.47,2.79.37-11.15-1.51a8,8,0,0,0-4.19-.19,7.82,7.82,0,0,0-3.9,1.25,10.5,10.5,0,0,0-3.77,14.37c1.36,2.11,3.65,4.47,6.27,4.82l8.73,1.18a32.79,32.79,0,0,0,6.2.64l5.87-.38a34.8,34.8,0,0,1,5.49-.24L221,60.92a3.22,3.22,0,0,1,.74.19l-2.51-1.06a2.21,2.21,0,0,1,.66.39l-2.12-1.64L218,59,216.4,56.9a4,4,0,0,1,.5.85l-1.05-2.51a7.91,7.91,0,0,1,.32,1.36l-.38-2.79c.5,4.59.49,9.29.63,13.91q.22,7.29.23,14.58a195.9,195.9,0,0,1-1.33,26.53l.38-2.79a81.42,81.42,0,0,1-5.22,20.13l1.06-2.51a19.73,19.73,0,0,1-2.08,4l1.64-2.12a7.42,7.42,0,0,1-1.08,1.09l2.13-1.65a6.13,6.13,0,0,1-1,.59l2.5-1.06a7.65,7.65,0,0,1-1.5.37l2.79-.38a11.34,11.34,0,0,1-2.4-.07l2.79.38c-7.94-1.09-15.8-2.34-23.82-2.73a213,213,0,0,0-21.74.13c-15.29.82-30.48,3-45.62,5.15-8.15,1.18-16.3,2.41-24.47,3.51l2.79-.37c-17,2.28-34.2,4-51.39,3.23q-7.22-.31-14.36-1.26l2.79.37c-3.43-.47-6.84-1-10.22-1.76a61.31,61.31,0,0,1-9.73-2.54l2.51,1.05a10.25,10.25,0,0,1-2-1.07l2.13,1.64a7.28,7.28,0,0,1-1.34-1.32L22.5,131a7.88,7.88,0,0,1-.76-1.36l1.05,2.51a15.82,15.82,0,0,1-.83-3.52l.38,2.79a191.09,191.09,0,0,1,.42-48.85l-.37,2.79q1.11-8.17,2.9-16.24a100.13,100.13,0,0,1,4.19-15.26l-1.06,2.51a12.93,12.93,0,0,1,1.49-2.67l-1.65,2.13a9,9,0,0,1,1.31-1.31l-2.12,1.64a9.37,9.37,0,0,1,1.41-.81l-2.5,1.06a12.42,12.42,0,0,1,2.76-.7L26.33,56c5.5-.7,11.13-.81,16.67-1s11.24-.41,16.87-.49c11.34-.16,22.68,0,34,.32,22.71.67,45.38,2.1,68.06,3.42l38.38,2.24a10.5,10.5,0,0,0,0-21Z"/><path class="cls-3" d="M131.8,109.51l-10.18,1.08c-5.14.55-11.57.25-15.33,4.37-2.52,2.76-3.38,5.74-3.71,9.37-.15,1.7-.25,3.4-.38,5.1l-.74,9.89-.37,5c-.19,2.42-.5,4.7.17,7.11a11.84,11.84,0,0,0,11.2,8.44,32.64,32.64,0,0,0,4.92-.55l9.86-1.3c3-.39,6-.42,8.58-2.12a12.07,12.07,0,0,0,4.68-5.62,15.56,15.56,0,0,0,1-5.82l.56-22.89c.13-5.5-4.93-10.75-10.5-10.5a10.7,10.7,0,0,0-10.5,10.5c-.2,8.08-.21,16.2-.6,24.28l.37-2.79-.07.39,1.06-2.51-.16.35,1.64-2.13-.23.25,2.13-1.64-.29.17,2.51-1.06a4.35,4.35,0,0,1-1,.25l2.79-.37-8.62,1.14-4.19.55a21.88,21.88,0,0,1-3.94.42l2.79.38a1.79,1.79,0,0,1-.6-.17l2.51,1.06-.24-.17,3.77,3.77-.18-.24,1.06,2.51-.11-.33.37,2.79a43.62,43.62,0,0,1,.4-6.13l.47-6.18c.3-4.08.45-8.21.94-12.27l-.38,2.79a4.91,4.91,0,0,1,.25-.93l-1.06,2.5a1.91,1.91,0,0,1,.33-.52l-1.64,2.13.23-.21-2.13,1.64.34-.19-2.51,1.06a3.18,3.18,0,0,1,.75-.19l-2.79.38c5.58-.67,11.18-1.19,16.77-1.79,2.86-.3,5.32-1,7.42-3.07a10.49,10.49,0,0,0,0-14.85c-1.92-1.77-4.7-3.36-7.42-3.08Z"/></g></g></svg>