<svg xmlns="http://www.w3.org/2000/svg" viewBox="0 0 163.34 252.76"><defs><style>.cls-1{fill:#fc0;}.cls-2{fill:#e6e6e6;}.cls-3{fill:#fff;}.cls-4{fill:#ffe574;}</style></defs><g id="Layer_2" data-name="Layer 2"><g id="Layer_1-2" data-name="Layer 1"><path class="cls-1" d="M45.15,170.88c1.66-29.39-27.5-51.38-34.58-80C4.42,66.05,17,38.74,37.93,24S86.54,6,111.54,11.58c7.22,1.61,15,7.33,20.61,12.2,4.64,4,7.26,6.22,9.93,11.77a134.26,134.26,0,0,1,10.24,29.88c3,13.73,3.49,29-4.14,40.84-5.36,8.3-14,13.76-21.61,20.12-13.23,11.12-18.6,28.37-24.82,44.49"/><path d="M54.15,170.88c1.18-22.5-13.21-41-24.28-59.15a123,123,0,0,1-8.24-15.61l.91,2.15a61.41,61.41,0,0,1-4.39-15.54l.33,2.39a58.3,58.3,0,0,1,.05-15l-.32,2.4A65.48,65.48,0,0,1,22.7,56.22l-.91,2.15A71.9,71.9,0,0,1,31,42.66l-1.41,1.82A70.93,70.93,0,0,1,41.91,32.09L40.09,33.5A77.07,77.07,0,0,1,57,23.72l-2.15.91a90.07,90.07,0,0,1,22.61-6.08L75,18.87a104.75,104.75,0,0,1,27.29.06l-2.39-.32c4.61.63,9.36,1.32,13.69,3.1l-2.15-.91A55.39,55.39,0,0,1,123.3,28l-1.83-1.41c4,3.07,8.16,6.37,11.25,10.35l-1.4-1.82c2.48,3.27,4.07,7.15,5.67,10.9l-.91-2.15A125.22,125.22,0,0,1,145,75.55l-.32-2.39A66.53,66.53,0,0,1,144.89,90l.32-2.39a43.17,43.17,0,0,1-2.88,10.88l.91-2.15a36.37,36.37,0,0,1-4.46,7.68l1.41-1.82c-6.52,8.43-16.07,13.47-23.43,21-8,8.22-13.05,18.42-17.38,28.91-2.23,5.4-4.21,10.9-6.31,16.35-.79,2-.16,5.11.91,6.93a9,9,0,0,0,12.31,3.23,10.34,10.34,0,0,0,4.14-5.38c2.24-5.82,4.35-11.7,6.76-17.45l-.9,2.15a86.17,86.17,0,0,1,10.8-19.44l-1.41,1.82c4-5.09,8.91-9,14-12.95,5.56-4.37,10.69-8.89,14.93-14.6a44.08,44.08,0,0,0,7.82-19.18,69.42,69.42,0,0,0,1-11.78,95.28,95.28,0,0,0-1.07-11.69,118.45,118.45,0,0,0-4.92-20.59q-1.66-5.09-3.73-10a83.75,83.75,0,0,0-5.23-11.24c-3.25-5.36-8.06-9.52-12.89-13.4C129.37,10,122.71,5.29,115,3.18a74.14,74.14,0,0,0-9.12-1.76C102,.86,98.11.38,94.17.16A103,103,0,0,0,75,.87C61,2.71,47.29,7,35.4,14.82A79.42,79.42,0,0,0,9.14,43.25C3,54.63-.58,67.74.08,80.73c.65,12.84,5.34,24.65,11.66,35.7,5.68,9.95,12.49,19.23,17.86,29.36,1.25,2.37,2.42,4.78,3.46,7.24l-.91-2.15a56.68,56.68,0,0,1,4,14.09l-.32-2.39a45.12,45.12,0,0,1,.33,8.3c-.24,4.71,4.32,9.21,9,9a9.2,9.2,0,0,0,9-9Z"/><path class="cls-2" d="M44,191.44c-.28,12.28-1.49,14.31-.92,26.58.21,4.7.51,9.47,2.09,13.9s4.63,8.55,9,10.36a22.06,22.06,0,0,0,7.07,1.35c8.35.53,17.21-.5,24-5.4,8.19-5.92,11.79-16.27,13.79-26.18a133.19,133.19,0,0,0,2.46-32.68c-.22-4.4,2.43-9.83-1.45-11.93-1.85-1-7.57-.75-9.67-.81l-31.47-.88c-4.4-.12-9.39,0-12.36,3.24-2.68,2.93-2.7,7.35-2.56,11.32Z"/><path class="cls-3" d="M98.79,174.53a271.68,271.68,0,0,1-52.27.16,3,3,0,0,0-3,3,3.06,3.06,0,0,0,3,3,271.68,271.68,0,0,0,52.27-.16,3.09,3.09,0,0,0,3-3,3,3,0,0,0-3-3Z"/><path class="cls-3" d="M99.16,185.68,45.8,188.87a3.07,3.07,0,0,0-3,3,3,3,0,0,0,3,3l53.36-3.19a3.07,3.07,0,0,0,3-3,3,3,0,0,0-3-3Z"/><path class="cls-3" d="M97.72,198.76a314.78,314.78,0,0,1-52.58,5.79c-3.85.1-3.87,6.1,0,6a324.37,324.37,0,0,0,54.18-6,3,3,0,0,0,2.09-3.69,3.06,3.06,0,0,0-3.69-2.1Z"/><path class="cls-3" d="M95.33,214.46a45.87,45.87,0,0,1-11.93,2c-4.28.26-8.55.47-12.83.71l-26.44,1.46a3.07,3.07,0,0,0-3,3,3,3,0,0,0,3,3l26.94-1.49c4.42-.24,8.84-.45,13.25-.74a49.82,49.82,0,0,0,12.61-2.11A3.07,3.07,0,0,0,99,216.56a3,3,0,0,0-3.69-2.1Z"/><path class="cls-3" d="M90.34,225.21a122.91,122.91,0,0,1-22.2,2.72c-3.7.12-7.41.06-11.1-.14a49,49,0,0,0-11.73.29,3,3,0,0,0,1.6,5.79c3.56-.66,7.25-.23,10.84,0,3.78.19,7.57.22,11.36.07A131.82,131.82,0,0,0,91.93,231a3,3,0,1,0-1.59-5.78Z"/><path class="cls-4" d="M83.11,161.93a29,29,0,0,1-1-4.21l.32,2.39a12,12,0,0,1-.06-3.05L82,159.45a7.93,7.93,0,0,1,.47-1.78l-.91,2.15a7.6,7.6,0,0,1,.75-1.29l-1.41,1.82A8.81,8.81,0,0,1,82.27,159l-1.82,1.41c2.1-1.57,4.35-2.77,6.39-4.47a25.84,25.84,0,0,0,4.78-5.54A28.45,28.45,0,0,0,96,136.74a26.07,26.07,0,0,0-3.17-14.05c-1.92-3.61-4.84-6.59-6.44-10.37l.91,2.15a13.7,13.7,0,0,1-.81-2.88l.32,2.4a12.07,12.07,0,0,1,0-2.88l-.32,2.39a13,13,0,0,1,.87-3.13l-.91,2.15A14.13,14.13,0,0,1,87.92,110l-1.4,1.83a11.52,11.52,0,0,1,1.77-1.79l-1.82,1.4c1-.76,2.14-1.29,3.17-2a14.57,14.57,0,0,0,6-7.58,26,26,0,0,0,.93-6.16,23.26,23.26,0,0,0,0-4.57,20.12,20.12,0,0,0-2.18-7.72,16.13,16.13,0,0,0-5-5.29,13,13,0,0,0-6-2.28,14.19,14.19,0,0,0-8.24,1.43c-1.93.88-3.59,3.42-4.13,5.38a9.19,9.19,0,0,0,.9,6.94,9.09,9.09,0,0,0,5.38,4.13,10.32,10.32,0,0,0,6.94-.9l.3-.14-2.15.91a4.91,4.91,0,0,1,.93-.25l-2.4.32a6,6,0,0,1,1.27,0l-2.39-.32a6.89,6.89,0,0,1,1.25.37l-2.15-.91a8,8,0,0,1,1.43.86l-1.82-1.41a8,8,0,0,1,1.19,1.21l-1.4-1.82a8,8,0,0,1,.87,1.54l-.91-2.15a11.29,11.29,0,0,1,.63,2.48l-.32-2.39a28.86,28.86,0,0,1-.21,6.5l.32-2.39a9.54,9.54,0,0,1-.49,2l.9-2.15a6,6,0,0,1-.62,1l1.4-1.83a5.83,5.83,0,0,1-.81.76l1.82-1.4c-1.76,1.27-3.6,2.2-5.29,3.62a19.95,19.95,0,0,0-6.78,16.46,25.43,25.43,0,0,0,4.36,11.7c1.66,2.48,3.55,4.81,4.77,7.55L77,130.91a17.76,17.76,0,0,1,1.22,4.53l-.32-2.39a19.36,19.36,0,0,1,0,4.69l.33-2.39a20.72,20.72,0,0,1-1.31,4.88l.91-2.15a19.73,19.73,0,0,1-2.54,4.35l1.41-1.82a17.74,17.74,0,0,1-2.84,2.84L75.67,142c-1.27,1-2.7,1.7-4,2.63a17,17,0,0,0-6.52,8.22c-1.65,4.41-.73,9.47.61,13.83a9.45,9.45,0,0,0,4.14,5.38,9.19,9.19,0,0,0,6.94.91c4.52-1.47,7.76-6.26,6.28-11.08Z"/><path d="M35.15,191.44c-.11,4.5-.47,9-.8,13.44a113.8,113.8,0,0,0-.1,13.82c.34,6.93,1.16,13.69,4.23,20A24.42,24.42,0,0,0,53.6,251.53a42.35,42.35,0,0,0,10.23,1.21,51.76,51.76,0,0,0,7.87-.4c6.41-.83,12.86-2.48,18.19-6.34a38.74,38.74,0,0,0,11.77-13.47,65.42,65.42,0,0,0,5.59-15.48,141.17,141.17,0,0,0,3.16-21.74q.36-5.07.34-10.14a66.37,66.37,0,0,1,.06-9.14l-.32,2.4c.66-4.88,1.54-9.67-1.11-14.19a13.18,13.18,0,0,0-7.51-5.74,24,24,0,0,0-6-.79c-3.14-.16-6.29-.1-9.43-.19L73,157.15l-13.49-.38c-4-.11-8.28-.1-12,1.36a17.93,17.93,0,0,0-7.3,4.64,19.14,19.14,0,0,0-4.22,7.65,36.39,36.39,0,0,0-.86,10.14c.05,3.63.05,7.26.07,10.88,0,4.71,4.12,9.22,9,9a9.15,9.15,0,0,0,9-9l0-7.4a72,72,0,0,1,.15-9.41L52.93,177a14.56,14.56,0,0,1,.84-3.19L52.86,176a10.3,10.3,0,0,1,1.08-1.88l-1.4,1.82a8.92,8.92,0,0,1,1.53-1.54l-1.82,1.41a11.09,11.09,0,0,1,2.15-1.21l-2.15.91a15.73,15.73,0,0,1,3.53-.88l-2.4.32a74.91,74.91,0,0,1,11.11,0l13,.36c4.33.12,8.66.28,13,.36a74.33,74.33,0,0,1,7.61.26l-2.4-.32a8.47,8.47,0,0,1,1.91.47l-2.15-.91a5.53,5.53,0,0,1,.69.42l-1.83-1.41a4.54,4.54,0,0,1,.79.79l-1.4-1.82a5.83,5.83,0,0,1,.39.69l-.9-2.15a6.21,6.21,0,0,1,.35,1.33l-.32-2.4a15.79,15.79,0,0,1-.16,3.76l.32-2.39a44,44,0,0,0-.77,7.67c.11,2.65.17,5.31.14,8a138.54,138.54,0,0,1-1.17,15.89l.32-2.4c-1,7.28-2.38,14.63-5.23,21.43l.91-2.15a37.6,37.6,0,0,1-4.67,8.14l1.41-1.83a27.91,27.91,0,0,1-4.72,4.75L81.41,230a27,27,0,0,1-5.57,3.24l2.15-.91a34.93,34.93,0,0,1-8.68,2.32l2.39-.32a51.81,51.81,0,0,1-13.05,0l2.39.32a18.72,18.72,0,0,1-4.36-1.1l2.15.9a14.38,14.38,0,0,1-3.16-1.87L57.49,234a18.05,18.05,0,0,1-2.83-2.9L56.07,233a21.93,21.93,0,0,1-2.59-4.54l.91,2.15a32.08,32.08,0,0,1-1.93-7.67l.32,2.39a101.06,101.06,0,0,1-.57-18.24c.29-5.21.81-10.39.94-15.61.11-4.71-4.23-9.21-9-9A9.18,9.18,0,0,0,35.15,191.44Z"/></g></g></svg>