<svg id="Layer_1" data-name="Layer 1" xmlns="http://www.w3.org/2000/svg" viewBox="0 0 301.04 378.01"><defs><style>.cls-1{fill:#fff8bf;}</style></defs><path class="cls-1" d="M1114.34,286.13q-120.46,6-241.09.47l3,48.14c6,96,12,192.2,11,288.46,0,3.72.25,8.14,3.15,10,1.83,1.19,4.11.9,6.21.59a873.12,873.12,0,0,1,179.49-8.23c19.25,1.1,38.7,2.84,57.71-.71,2.75-.52,5.74-1.31,7.42-3.79,1.3-1.91,1.52-4.44,1.69-6.83,3.22-46.74,0-93.7-3.27-140.45L1128,306.22c-.64-9.28-6-17.2-13.68-20.09Z" transform="translate(-858.22 -271.07)"/><path d="M1114.34,271.13q-47.07,2.36-94.21,2.95-46.95.59-93.9-.59-26.49-.67-53-1.89c-7.75-.36-15.49,7.17-15,15q2.29,36.86,4.59,73.71t4.34,74c1.32,24.66,2.49,49.33,3.38,74s1.5,49.36,1.72,74.06q.16,18.35,0,36.69c-.06,6.93-.25,14.59,3.87,20.56a21.07,21.07,0,0,0,17,9.46c3.73.16,7.51-.8,11.19-1.34,3-.44,6.11-.87,9.16-1.28l-4,.53a877.87,877.87,0,0,1,90-7.42q22.58-.67,45.15-.21c15,.32,29.93,1.2,44.9,2,16,.89,31.79.92,47.57-1.93a26.1,26.1,0,0,0,13.7-6.6c4.83-4.69,6.36-10.75,7-17.21.71-7.42.91-14.92,1.14-22.37.93-30.32-.45-60.66-2.37-90.92-.76-11.91-1.6-23.82-2.43-35.73l-2.11-30.48-3-43.35L1146,348.54l-2.26-32.62-.57-8.22c-.51-7.29-1.92-14.35-5.84-20.67a33.91,33.91,0,0,0-6.89-8.3,39.12,39.12,0,0,0-12.07-7.07c-3.44-1.3-8.5-.28-11.56,1.51a15.27,15.27,0,0,0-6.89,9c-.88,3.84-.69,8.15,1.51,11.56a17.09,17.09,0,0,0,9,6.89l.43.17-3.58-1.51a20.68,20.68,0,0,1,4.46,2.59l-3-2.35a23.18,23.18,0,0,1,3.7,3.71l-2.34-3a25.75,25.75,0,0,1,3.2,5.55l-1.51-3.58a27.29,27.29,0,0,1,1.71,6.48l-.53-4c.34,2.83.44,5.71.64,8.55l1.31,18.9,4,58.11,4,57.75q1,14,1.94,27.93c2.9,41.92,5.74,84,3.83,126-.23,4.85-.36,9.76-.91,14.6l.54-4a15.77,15.77,0,0,1-.76,3.19l1.52-3.58a9.23,9.23,0,0,1-1,1.83l2.34-3a9.74,9.74,0,0,1-1.07,1.06l3-2.34a11,11,0,0,1-2.16,1.24l3.58-1.52a42.85,42.85,0,0,1-9.86,2l4-.54c-14.95,1.93-30,1.08-45,.17s-30.21-1.56-45.35-1.76a876.31,876.31,0,0,0-91.22,3.59c-18.12,1.67-36.15,4-54.15,6.61l4-.53a15.7,15.7,0,0,1-3.21.15l4,.54a8.79,8.79,0,0,1-1.52-.34l3.58,1.51a6.49,6.49,0,0,1-1.31-.74l3,2.35a8.17,8.17,0,0,1-.92-.94l2.35,3a8.61,8.61,0,0,1-.89-1.56l1.51,3.59a14.83,14.83,0,0,1-.8-3.28l.54,4c-.57-5.19-.12-10.56-.09-15.77q0-8.31,0-16.62-.06-16.62-.35-33.23-.59-33.23-2-66.44c-1.78-44.51-4.38-89-7.13-133.45q-2.32-37.54-4.68-75.09l-15,15q47.07,2.16,94.21,2.58,47,.4,93.9-1,26.51-.77,53-2.09a15.8,15.8,0,0,0,10.61-4.4,15.23,15.23,0,0,0,4.39-10.6c-.17-3.88-1.44-7.91-4.39-10.61S1118.33,270.93,1114.34,271.13Z" transform="translate(-858.22 -271.07)"/><path d="M916.47,370.83c17.46,4.16,35.27,8.25,53.31,8.51a100,100,0,0,0,12.48-.59A109.4,109.4,0,0,0,998.14,376c7.87-2.09,15.34-5.37,22.87-8.42,8.6-3.49,17.28-6.42,26.51-7.7l-4,.53c13.7-1.83,27.53-.76,41.21.61,3.6.36,8.15-1.93,10.61-4.39a15.23,15.23,0,0,0,4.39-10.61c-.17-3.88-1.45-7.9-4.39-10.61l-3-2.34a14.91,14.91,0,0,0-7.57-2.05c-13.69-1.37-27.5-2.41-41.21-.61a107.86,107.86,0,0,0-23,5.32c-6.22,2.26-12.27,4.95-18.43,7.34a98,98,0,0,1-22,6l4-.54a116.46,116.46,0,0,1-30.7-.47l4,.54c-11.13-1.53-22.07-4.08-33-6.68a15.68,15.68,0,0,0-11.56,1.51,15.28,15.28,0,0,0-6.89,9c-.88,3.84-.69,8.15,1.51,11.56a15.21,15.21,0,0,0,9,6.89Z" transform="translate(-858.22 -271.07)"/><path d="M928.29,434.09c14.85,1.09,29.73,2.18,44.63,2.17a226.19,226.19,0,0,0,47.78-4.81c8.15-1.77,16.22-4,24.5-5.11l-4,.53c12.76-1.71,25.64-.77,38.41.21,3.66.28,8.09-1.87,10.61-4.39a15.25,15.25,0,0,0,4.39-10.61c-.17-3.88-1.44-7.9-4.39-10.61l-3-2.34a14.88,14.88,0,0,0-7.57-2.05c-10.24-.78-20.53-1.57-30.81-.95-11.24.68-22.1,3.22-33,5.71-5.59,1.28-11.21,2.35-16.9,3.12l4-.54c-19.27,2.56-38.76,2-58.1.82-5.5-.34-11-.75-16.48-1.15-3.67-.27-8.08,1.87-10.61,4.39a15.25,15.25,0,0,0-4.39,10.61c.17,3.88,1.44,7.9,4.39,10.61l3,2.34a15,15,0,0,0,7.58,2Z" transform="translate(-858.22 -271.07)"/><path d="M1092.74,477.75a126.34,126.34,0,0,0-41.32-4.33,128.35,128.35,0,0,0-40.73,9.14c-4.39,1.82-8.73,3.72-13,5.9-3.41,1.76-6.78,3.59-10.31,5.1l3.58-1.51a46,46,0,0,1-11.28,3.12l4-.54c-7.69,1-15.43.32-23.12-.34-3.84-.33-7.69-.65-11.55-.73a88.31,88.31,0,0,0-15.22,1.18,11.22,11.22,0,0,0-5.1,2.68,11.34,11.34,0,0,0-3.86,4.21,15.31,15.31,0,0,0-1.52,11.56c1.18,3.63,3.43,7.13,6.9,9l3.58,1.51a15,15,0,0,0,8,0l.9-.13-4,.54c10.24-1.36,20.49.31,30.71.9a89,89,0,0,0,18.73-.94c6.33-.95,12.23-3.39,18-6.19,5.26-2.57,10.34-5.41,15.74-7.69l-3.58,1.51a117.26,117.26,0,0,1,29.31-8l-4,.53a115.4,115.4,0,0,1,30.11-.05l-4-.53a113.67,113.67,0,0,1,15.07,3.06,15.55,15.55,0,0,0,11.56-1.51,15.28,15.28,0,0,0,6.89-9c.87-3.84.69-8.15-1.51-11.56a15.65,15.65,0,0,0-9-6.9Z" transform="translate(-858.22 -271.07)"/><path d="M1096,547.69c-15.75-4.3-32.34-5.08-48.54-3.61-16.53,1.5-32.82,4.76-49.11,7.89-8.62,1.66-17.27,3.24-26,4.42l4-.53a177.93,177.93,0,0,1-31.28,1.73,15,15,0,0,0-15,15c.17,3.88,1.45,7.9,4.39,10.6a16.19,16.19,0,0,0,10.61,4.4c25.69,1.1,51.09-4.87,76.18-9.56,6.83-1.27,13.69-2.46,20.58-3.39l-4,.53c13.53-1.8,27.25-2.55,40.82-.73l-4-.54a107.81,107.81,0,0,1,13.33,2.71,15.54,15.54,0,0,0,11.56-1.51,15.28,15.28,0,0,0,6.89-9c.88-3.84.69-8.15-1.51-11.56a15.61,15.61,0,0,0-9-6.89Z" transform="translate(-858.22 -271.07)"/></svg>