<svg id="Layer_1" data-name="Layer 1" xmlns="http://www.w3.org/2000/svg" viewBox="0 0 828.02 590.53"><defs><style>.cls-1{fill:#4d4d4d;}.cls-2{fill:lime;}.cls-3{fill:red;}.cls-4{fill:#29abe2;}.cls-5{fill:#f4ce00;}</style></defs><path class="cls-1" d="M446.09,580.49a44.63,44.63,0,0,1-5.86-18.3c-7.12-77.41,2.38-99.58,36.83-156.22,41.54-68.28,105.12-127.4,184.17-149.83,39.52-11.21,81.21-12.85,122.39-14.41,71-2.69,142.28-5.37,212.8,2.68,32.49,3.71,65.26,9.87,94.2,24.5,44.31,22.39,76.28,63.35,94.31,108.14s23.24,93.42,24,141.44c.4,25.48-.47,51.34-8.19,75.73s-23,47.43-46,60.32c-32.93,18.5-75.17,13-110.42-1.06-53.4-21.25-97.67-60-132.71-104.06-17.3-21.77-35-46.66-62.72-53.39-12.74-3.1-26.24-1.84-39,1.1-43.78,10.05-80.45,38.85-110.17,71.28-24.4,26.62-46.35,57.09-79.14,73.46-19.11,9.55-41.16,20.86-62.09,16-65.39-15.33-76.39-32.62-112.42-77.33Z" transform="translate(-409.56 -104.27)"/><path d="M470.7,566.1c-.85-1.51-1.63-3-2.35-4.63l2.88,6.81a48.86,48.86,0,0,1-3.39-12.39l1,7.58c-2.45-22.94-3.7-46.62-.72-69.57l-1,7.57a152.13,152.13,0,0,1,10.42-38.14l-2.87,6.81c5.94-14,13.53-27.31,21.33-40.38a465.31,465.31,0,0,1,31.14-46.43l-4.46,5.77A360.53,360.53,0,0,1,586.36,325l-5.77,4.46a296.89,296.89,0,0,1,64.47-38l-6.81,2.88c23.87-10,48.9-16.18,74.53-19.68l-7.57,1c38.43-5.12,77.48-5.6,116.18-6.88,39.77-1.31,79.6-2,119.37-.26,22.28,1,44.54,2.74,66.65,5.66l-7.58-1c24.6,3.31,49.05,8.38,72,18l-6.8-2.87a178.88,178.88,0,0,1,38.56,22.44l-5.77-4.46a200.92,200.92,0,0,1,35.26,35.34l-4.46-5.77A234.76,234.76,0,0,1,1159,388.17l-2.87-6.81c10.62,25.5,17.07,52.46,20.83,79.78l-1-7.58a530.36,530.36,0,0,1,4.3,55.74c.53,18.94.55,38-1.88,56.78l1-7.57a156.37,156.37,0,0,1-10.14,39.1l2.87-6.81a118.21,118.21,0,0,1-14.65,25.39l4.46-5.77a98.53,98.53,0,0,1-17.37,17.44l5.77-4.46a89.29,89.29,0,0,1-18.89,10.9l6.8-2.87a100.29,100.29,0,0,1-24,6.38l7.57-1a132.63,132.63,0,0,1-34.13-.22l7.57,1a192.12,192.12,0,0,1-48-13.52l6.81,2.87a288.87,288.87,0,0,1-63.63-37.65l5.77,4.45a381.32,381.32,0,0,1-61.27-60.6c-17.88-22-35-46.54-61.8-58.45A101,101,0,0,0,840,466.05c-10.24-1-20.65.46-30.72,2.2C793,471.05,777.46,477,762.61,484,735,497,710.33,516.77,689,538.39c-22.56,22.83-41.31,49.51-66.72,69.45l5.77-4.46c-12.58,9.71-26.77,16.9-41.32,23.17l6.8-2.87A100.56,100.56,0,0,1,569.05,631l7.58-1a56.25,56.25,0,0,1-14.26.07l7.57,1c-15.21-2.38-30.8-7.47-45-13.42l6.81,2.87a121.35,121.35,0,0,1-26.4-15.18l5.77,4.46c-17.63-13.71-31-32.2-44.9-49.45l4.46,5.76h0c-7.48-12.9-26.09-18.54-39-10.22s-18.22,25.19-10.22,39c2.22,3.84,5.72,7.34,8.53,10.84q2.88,3.59,5.75,7.16c3.21,4,6.42,7.94,9.71,11.85a195.12,195.12,0,0,0,18.45,19.58c17.2,15.53,36.9,25.81,58.8,33.16,14.25,4.79,29.75,9.54,44.82,10,19.07.61,37.24-6.61,54.17-14.51,6.7-3.12,13.44-6.32,19.83-10A182.78,182.78,0,0,0,663,647.76c10.82-8.54,20.49-18.37,29.73-28.57,21-23.12,40.57-47,65.34-66.22l-5.77,4.45a209.22,209.22,0,0,1,45.85-27.24l-6.81,2.88a152.5,152.5,0,0,1,37.21-10.49l-7.58,1a87,87,0,0,1,21-.31l-7.57-1a66.27,66.27,0,0,1,16.69,4.54l-6.81-2.87a79,79,0,0,1,16.41,9.86L855,529.32c20,15.77,33.8,38,50.48,57a392.52,392.52,0,0,0,64.19,58.24,289.25,289.25,0,0,0,77.88,40.36c29.52,9.86,62.41,13.42,92.86,5.77,31.58-7.93,57.87-29.5,74.1-57.43,16.63-28.61,22-61.86,22.86-94.51,1.65-63.74-5.84-129.73-33-188a243.39,243.39,0,0,0-47.45-68.17c-21.88-22-47.93-38.2-76.9-49.11-30-11.3-62.37-15.53-94.11-18.68-32.3-3.21-64.79-4.28-97.24-4.25s-65,1.18-97.5,2.41c-33.48,1.26-66.84,2.69-100,7.73A305.54,305.54,0,0,0,605.4,247.2c-25,11.89-47.88,27.66-69.1,45.36-40.38,33.68-71.82,76.55-97.5,122.14-10.25,18.21-19.54,37.6-24.22,58.07-5.26,23.06-5.76,46.84-4.33,70.34.41,6.79.85,13.6,1.61,20.36,1.29,11.34,4,21.33,9.62,31.4,7.29,13,26.22,18.46,39,10.23C473.64,596.61,478.5,580,470.7,566.1Z" transform="translate(-409.56 -104.27)"/><path class="cls-2" d="M1050.35,503.66a27.51,27.51,0,0,0,26-17.52,21.36,21.36,0,0,0,2.46-11l-1-7.57A28.48,28.48,0,0,0,1070.5,455l-5.77-4.46a28.47,28.47,0,0,0-14.38-3.89,27.55,27.55,0,0,0-26,17.52,21.5,21.5,0,0,0-2.45,11l1,7.58a28.3,28.3,0,0,0,7.33,12.57l5.76,4.46a28.31,28.31,0,0,0,14.39,3.89Z" transform="translate(-409.56 -104.27)"/><path class="cls-3" d="M1095.08,442.73a27.55,27.55,0,0,0,26.05-17.52,21.5,21.5,0,0,0,2.45-11l-1-7.58a28.3,28.3,0,0,0-7.33-12.57l-5.76-4.46a28.31,28.31,0,0,0-14.39-3.89,31.62,31.62,0,0,0-20.15,8.35,31.76,31.76,0,0,0-8.35,20.15l1,7.57a28.48,28.48,0,0,0,7.33,12.58l5.77,4.46a28.47,28.47,0,0,0,14.38,3.89Z" transform="translate(-409.56 -104.27)"/><path class="cls-4" d="M987.07,442.73a27.51,27.51,0,0,0,26-17.52,21.41,21.41,0,0,0,2.46-11l-1-7.58a28.39,28.39,0,0,0-7.33-12.57l-5.77-4.46a28.27,28.27,0,0,0-14.38-3.89A27.55,27.55,0,0,0,961,403.25a21.45,21.45,0,0,0-2.45,11l1,7.57a28.39,28.39,0,0,0,7.33,12.58l5.76,4.46a28.51,28.51,0,0,0,14.39,3.89Z" transform="translate(-409.56 -104.27)"/><path class="cls-5" d="M1043.8,374.73a27.51,27.51,0,0,0,26-17.52,21.45,21.45,0,0,0,2.45-11l-1-7.57a28.39,28.39,0,0,0-7.33-12.58l-5.76-4.46a28.51,28.51,0,0,0-14.39-3.89,27.51,27.51,0,0,0-26,17.52,21.41,21.41,0,0,0-2.46,11l1,7.58a28.48,28.48,0,0,0,7.33,12.58l5.77,4.45a28.27,28.27,0,0,0,14.38,3.89Z" transform="translate(-409.56 -104.27)"/><path d="M562,404.88c-3.17,28.71-1.06,57.62.88,86.34q.84,12.25,1.66,24.5a31.62,31.62,0,0,0,8.35,20.15,31.76,31.76,0,0,0,20.15,8.35l7.58-1a28.45,28.45,0,0,0,12.57-7.33l4.46-5.77a28.37,28.37,0,0,0,3.89-14.38c-1-14.48-2-29-2.9-43.46-.88-14.34-1.51-28.71-1.19-43.08.17-8.12.66-16.23,1.55-24.3a31.76,31.76,0,0,0-8.35-20.15,31.62,31.62,0,0,0-20.15-8.35l-7.58,1a28.39,28.39,0,0,0-12.58,7.33l-4.45,5.76A28.31,28.31,0,0,0,562,404.88Z" transform="translate(-409.56 -104.27)"/><path d="M660.88,414.31q-28.27,2.7-56.64,4.49t-56.51,2.65q-16,.49-32,.69a27.51,27.51,0,0,0-26,17.52,21.36,21.36,0,0,0-2.46,11l1,7.58a28.45,28.45,0,0,0,7.33,12.57l5.77,4.46a28.37,28.37,0,0,0,14.38,3.89q28.41-.36,56.81-1.63T629,474.06q15.94-1.23,31.88-2.75a27.55,27.55,0,0,0,26-17.52,21.5,21.5,0,0,0,2.45-11l-1-7.58A28.39,28.39,0,0,0,681,422.65l-5.76-4.45a28.31,28.31,0,0,0-14.39-3.89Z" transform="translate(-409.56 -104.27)"/><path d="M840,335.32c.39-.19.77-.37,1.17-.54l-6.81,2.88a21.29,21.29,0,0,1,5.27-1.42l-7.58,1a21.64,21.64,0,0,1,5.15,0,31.76,31.76,0,0,0,20.15-8.35l4.46-5.77a21.2,21.2,0,0,0,3.38-10.59,14.34,14.34,0,0,0,0-7.58,21.26,21.26,0,0,0-3.38-10.6l-4.46-5.76a28.35,28.35,0,0,0-12.57-7.33c-3.26-.55-6.54-1.06-9.84-1.3a20.42,20.42,0,0,0-2.82,0,67.57,67.57,0,0,0-9.62,1.28,39.65,39.65,0,0,0-9,3.61,29.41,29.41,0,0,0-7.19,5.45A33.05,33.05,0,0,0,798,304.44c-1.85,5.7-1.42,11.53-.21,17.26a25.56,25.56,0,0,0,3.94,9.23c4.36,6.26,5.93,7.57,12,12a15.07,15.07,0,0,0,2.82,1.6c2.89,1.28,6.42,3.12,9.78,3.75a76.22,76.22,0,0,0,8.8,1.17,11.92,11.92,0,0,0,2-.06,54.69,54.69,0,0,0,8.92-1.3,50.12,50.12,0,0,0,7.87-3.25,9.29,9.29,0,0,0,1.19-.67,42.36,42.36,0,0,0,7-5.51,30.33,30.33,0,0,0,5.79-7.72c2.63-5.58,4.68-10.53,4.4-16.89-.07-1.38-.44-3.4-.56-4.31a28.89,28.89,0,0,0-.67-4.45,33.62,33.62,0,0,0-15.41-19.85c-5.37-3.27-10.43-4.25-16.57-4.67s-11.49,1.7-16.84,4.33a31.86,31.86,0,0,0-13.1,17,21.53,21.53,0,0,0-.51,11.36,21.2,21.2,0,0,0,3.38,10.6l4.46,5.77A28.54,28.54,0,0,0,829,337.23l7.58,1A28.27,28.27,0,0,0,851,334.35l.22-.1-6.81,2.87a5.32,5.32,0,0,1,1.1-.32l-7.57,1a6.19,6.19,0,0,1,1.14,0l-7.58-1a6.21,6.21,0,0,1,1.35.34L826,334.27a6.76,6.76,0,0,1,1.42.83l-5.77-4.46a6.18,6.18,0,0,1,1,1l-4.45-5.77a6.63,6.63,0,0,1,.59,1l-2.88-6.81a4.63,4.63,0,0,1,.32,1.1l-1-7.58a6.11,6.11,0,0,1,0,1.54l1-7.57a7.58,7.58,0,0,1-.34,1.24l2.87-6.81a7.61,7.61,0,0,1-.91,1.59l4.45-5.77a9.29,9.29,0,0,1-1.32,1.34l5.77-4.46a8.65,8.65,0,0,1-1.88,1.1l6.81-2.88a9.85,9.85,0,0,1-2,.54l7.57-1a12,12,0,0,1-3,0l7.57,1a14.89,14.89,0,0,1-3.27-.93l6.81,2.87a14.11,14.11,0,0,1-2.83-1.6l5.77,4.45a10.16,10.16,0,0,1-1.63-1.58l4.45,5.77a8.26,8.26,0,0,1-.86-1.39l2.88,6.81a6.3,6.3,0,0,1-.38-1.26l1,7.57a5.25,5.25,0,0,1,0-1.05l-1,7.58a5.16,5.16,0,0,1,.31-1.23l-2.88,6.8a5.25,5.25,0,0,1,.57-1L846.24,331a5,5,0,0,1,.8-.79l-5.77,4.45a6.76,6.76,0,0,1,1.36-.78l-6.81,2.87a11.62,11.62,0,0,1,2.72-.72l-7.57,1a20.83,20.83,0,0,1,5.35.05l-7.58-1,.88.14,7.58-56a20.37,20.37,0,0,0-3.22-.15c-.49,0-1,.05-1.45.1-2.95.3-5.93.7-8.85,1.19a20.12,20.12,0,0,0-3,.73c-.51.17-1,.36-1.5.56-2.67,1.08-5.39,2.14-8,3.41a31.91,31.91,0,0,0-13.09,17,21.57,21.57,0,0,0-.51,11.37A21.2,21.2,0,0,0,801,325.09l4.45,5.77A28.48,28.48,0,0,0,818,338.19l7.58,1A28.37,28.37,0,0,0,840,335.32Z" transform="translate(-409.56 -104.27)"/><path d="M813.31,216.32a18.4,18.4,0,0,1-1-3.71l.65,4.78a18.5,18.5,0,0,1,0-4.76l-.65,4.79a23,23,0,0,1,1.47-5.34l-1.81,4.3a29.14,29.14,0,0,1,3.67-6.23l-2.82,3.64a35.5,35.5,0,0,1,6.14-6.11l-3.64,2.81a44.12,44.12,0,0,1,9.47-5.39l-4.3,1.82c7.29-3.07,15.06-4.7,22.77-6.31a163.84,163.84,0,0,0,22.75-6,115.69,115.69,0,0,0,14.46-6.28,84.42,84.42,0,0,0,12.8-8.75c6.86-5.46,12.3-12.68,17.18-19.89,4.61-6.81,8.42-14.24,13.4-20.8l-2.82,3.65a27.7,27.7,0,0,1,4.51-4.67l-3.64,2.82a16.69,16.69,0,0,1,3.46-2.09l-4.3,1.82a12.06,12.06,0,0,1,2.75-.75l-4.79.64a10.7,10.7,0,0,1,2.53,0l-4.78-.64a6.42,6.42,0,0,1,.74.14A19.13,19.13,0,0,0,931.42,138a13.67,13.67,0,0,0,5.05-4.64,13.61,13.61,0,0,0,3.22-6.12c1-4.61.82-9.78-1.81-13.87-2.46-3.81-6.18-7.3-10.76-8.27a28.38,28.38,0,0,0-14.58.21c-5,1.56-8.4,3.82-12.42,7.08-4.23,3.43-7.36,8.12-10.3,12.66-4.71,7.27-9,14.86-14.23,21.75l2.81-3.65a63.63,63.63,0,0,1-11.2,11.46l3.64-2.82a67,67,0,0,1-14.66,8.33l4.3-1.82a116.52,116.52,0,0,1-19,5.9c-6.6,1.51-13.27,2.68-19.82,4.41a81.26,81.26,0,0,0-9.52,3.08,72.16,72.16,0,0,0-12.49,5.94,56.2,56.2,0,0,0-9.81,7.86,68.23,68.23,0,0,0-5.27,6.47,31.73,31.73,0,0,0-2.42,3.66,51.23,51.23,0,0,0-3.56,8.19,41,41,0,0,0-1.61,8.8,19.8,19.8,0,0,0,0,4.42,36.78,36.78,0,0,0,1.64,8.84,20.24,20.24,0,0,0,8.28,10.76,13.32,13.32,0,0,0,6.69,2.13,13.61,13.61,0,0,0,7.18-.32c4.35-1.41,8.55-4.11,10.75-8.27s3.48-9.38,1.82-13.87Z" transform="translate(-409.56 -104.27)"/></svg>