<svg xmlns="http://www.w3.org/2000/svg" viewBox="0 0 361.99 351.24"><defs><style>.cls-1{fill:#3986cc;}.cls-2{fill:#fff;}</style></defs><g id="Layer_2" data-name="Layer 2"><g id="Layer_1-2" data-name="Layer 1"><path class="cls-1" d="M264.45,22.61c-3.67.21-7.33.6-11,1.14a1051.76,1051.76,0,0,1-209,9.7c-6.79-.36-13.61-.79-20.35,0-1.48.19-3.11.52-4,1.73a5.82,5.82,0,0,0-.76,3.25l-2.28,70.67c-.48,14.95-1,29.93.11,44.85,1,14.4,3.54,28.66,5,43,4.35,43.77-1.22,88,1.64,131.9.11,1.69.32,3.56,1.59,4.69s3,1.13,4.69,1.07c18.5-.58,36.77-3.93,55.12-6.37,82.16-10.94,165.81-3.74,248.21-12.73,2.81-.3,5.8-.7,8-2.5,3.2-2.65,3.58-7.34,3.69-11.49a1206.6,1206.6,0,0,0-26.28-285L277.5,21.61q-3.93.48-7.88.7Z"/><path d="M264.45,6.11c-9.43.57-18.78,2.26-28.13,3.53l4.38-.59A1056,1056,0,0,1,125,18.16q-29,.68-58-.25c-9.65-.3-19.28-.89-28.92-1.28a90.61,90.61,0,0,0-14,.37c-5.58.66-10.86,1.75-15,5.94-4.39,4.4-5.93,9.51-6.2,15.54C2,58.1,1.58,77.74.94,97.37.32,116.76-.74,136.24.8,155.61s5.05,38.23,6,57.53.44,38.81,0,58.21c-.22,9.71-.42,19.42-.41,29.13s.06,19.33.9,28.91c.38,4.42.94,8.46,3.48,12.23,4.11,6.1,10.22,9.14,17.5,9.55a96.31,96.31,0,0,0,14-.73c10.9-1,21.74-2.56,32.56-4.13,4.69-.68,9.38-1.36,14.07-2l-4.38.59c36.83-4.92,74-6.23,111.12-6.94s74.35-.85,111.44-3.51c9.12-.66,18.26-1.39,27.35-2.48,3-.36,6.18-.59,9.05-1.65a25.69,25.69,0,0,0,12.11-8.59c4.22-5.47,5.56-11.89,5.9-18.68.45-9,.42-18,.47-27q.07-13.74-.15-27.48-.94-55.26-6.94-110.29-6.19-56.84-17.46-113c-.89-4.39-1.8-8.76-2.74-13.14L333,8.23a12.55,12.55,0,0,0-4.25-4.63c-2.62-2-6.58-4-10-3.54L278,5c-4.52.55-9.05.81-13.59,1.07a17.46,17.46,0,0,0-11.67,4.83c-2.86,2.87-5,7.56-4.83,11.67.19,4.27,1.59,8.69,4.83,11.67s7.3,5.08,11.67,4.83c15.84-.91,31.58-3.27,47.32-5.2l7-.85L302.86,20.94q7.59,35.48,13,71.34,1.56,10.26,2.94,20.56l-.59-4.39q5.17,38.64,7.87,77.55,2.69,38.73,2.86,77.58,0,10.86-.1,21.72c-.05,3.62-.11,7.25-.2,10.87a89.3,89.3,0,0,1-.45,9.82l.59-4.38a17.45,17.45,0,0,1-1,3.71l1.66-3.94a11.06,11.06,0,0,1-1.12,2l2.58-3.34a10.38,10.38,0,0,1-1.29,1.36l3.34-2.58a10.79,10.79,0,0,1-2.25,1.32l3.94-1.66a19.43,19.43,0,0,1-4.13,1l4.39-.59c-17.75,2.3-35.75,3.23-53.61,4-18,.8-36.08,1.18-54.13,1.49-36.07.62-72.18.95-108.15,3.83-21.64,1.73-43,5-64.53,7.87l4.39-.59c-5.23.7-10.46,1.34-15.71,1.82-5,.46-10.22,1.18-15.2.8l4.39.59a7.69,7.69,0,0,1-1.44-.31l3.94,1.67a4.07,4.07,0,0,1-.86-.43l3.34,2.58a3.48,3.48,0,0,1-.71-.62L39.28,325a6.41,6.41,0,0,1-.68-1.16l1.66,3.94a9.28,9.28,0,0,1-.44-1.8l.58,4.38c-.54-4.62-.58-9.35-.73-14-.16-4.85-.23-9.7-.25-14.55,0-9.5.14-19,.35-28.49.43-19,1-38,.19-56.92q-.6-14.55-2.42-29C36.38,178,35,168.59,34.1,159.15c-1.78-19-.92-38.14-.31-57.2l1.06-32.72.53-16.36c.17-5.24,0-10.64.57-15.86l-.59,4.39a6.35,6.35,0,0,1,.4-1.37L34.1,44l.25-.41L31.77,46.9a3,3,0,0,1,.6-.63L29,48.85a3.83,3.83,0,0,1,.75-.45l-3.94,1.66a10.7,10.7,0,0,1,2.62-.65L24.08,50c7.51-.89,15.07-.32,22.6.07s15,.69,22.56.91q22.73.68,45.46.37,45.46-.62,90.77-5.16c18.17-1.83,36.23-4.36,54.32-6.8L255.4,40c3-.39,6-.69,9-.87a17.46,17.46,0,0,0,11.67-4.83A16.79,16.79,0,0,0,281,22.61c-.19-4.27-1.59-8.69-4.83-11.67S268.81,5.85,264.45,6.11Z"/><path class="cls-2" d="M80.1,156.5a256.26,256.26,0,0,1,6,30.83l-.59-4.39c3,22.13,3.47,44.48,3.42,66.77,0,6.38-.07,12.76-.13,19.14a17,17,0,0,0,4.83,11.67,16.79,16.79,0,0,0,11.67,4.83c4.26-.19,8.69-1.59,11.66-4.83a17.34,17.34,0,0,0,4.84-11.67c.15-15.48.29-31-.21-46.43a412.81,412.81,0,0,0-4.48-49.52,248,248,0,0,0-5.2-25.17,16.5,16.5,0,0,0-20.3-11.53c-4,1.29-7.84,3.77-9.86,7.58A17.34,17.34,0,0,0,80.1,156.5Z"/><path class="cls-2" d="M91.19,108.39a17,17,0,0,0,11.67-4.83,16.75,16.75,0,0,0,4.83-11.67c-.19-4.27-1.59-8.69-4.83-11.67a16.5,16.5,0,0,0-23.33,0,16.82,16.82,0,0,0-4.84,11.67c.2,4.27,1.6,8.69,4.84,11.67a17.15,17.15,0,0,0,11.66,4.83Z"/><path class="cls-2" d="M199.19,261.45a231,231,0,0,1-4.59-24.6l.59,4.38c-1.11-8.29-1.9-16.61-2.57-24.95s-1.45-16.68-1.65-25a89.58,89.58,0,0,1,.66-13.89l-.59,4.39a51.82,51.82,0,0,1,3.47-13.07l-1.66,3.94a41.58,41.58,0,0,1,5.21-9L195.48,167a33.56,33.56,0,0,1,5.92-5.93l-3.34,2.58a29.21,29.21,0,0,1,6-3.5l-3.94,1.67a29.51,29.51,0,0,1,7.5-2l-4.39.59a37.76,37.76,0,0,1,9.2.06l-4.38-.59a50.61,50.61,0,0,1,12.87,3.6l-3.94-1.66a62.06,62.06,0,0,1,13.38,7.92L227,167.14a74.34,74.34,0,0,1,12.87,13l-2.58-3.34a89.75,89.75,0,0,1,11.55,19.91l-1.66-3.94a131.11,131.11,0,0,1,8.51,33l-.59-4.39a318.36,318.36,0,0,1,2.3,33.67,17.17,17.17,0,0,0,4.83,11.66,16.76,16.76,0,0,0,11.67,4.84c4.27-.19,8.69-1.6,11.67-4.84a16.81,16.81,0,0,0,4.83-11.66c-.27-10.17-.71-20.35-1.9-30.46-1.33-11.3-3.15-22.54-6.77-33.35a104.73,104.73,0,0,0-22.64-39.34A91.72,91.72,0,0,0,247,141.23a62.53,62.53,0,0,0-10.34-6.53,71.41,71.41,0,0,0-15.92-6,69,69,0,0,0-11.17-1.55,54.32,54.32,0,0,0-11.16.86,30.23,30.23,0,0,0-6.74,1.8,45.08,45.08,0,0,0-9.06,4.45,54.08,54.08,0,0,0-7.53,6.07,61.44,61.44,0,0,0-6.26,7.67,57.7,57.7,0,0,0-7.12,14.48,73.56,73.56,0,0,0-3.37,17.64,108.3,108.3,0,0,0-.16,15.6c.54,10.54,1.43,21.09,2.45,31.59a334.61,334.61,0,0,0,5.07,35.37c.52,2.51,1.09,5,1.71,7.51a16.88,16.88,0,0,0,7.58,9.86c3.54,2.07,8.75,2.95,12.71,1.67s7.85-3.77,9.86-7.59a17.5,17.5,0,0,0,1.67-12.71Z"/></g></g></svg>