<svg xmlns="http://www.w3.org/2000/svg" viewBox="0 0 284.41 195.88"><defs><style>.cls-1{fill:#fff;}</style></defs><g id="Layer_2" data-name="Layer 2"><g id="Layer_1-2" data-name="Layer 1"><path class="cls-1" d="M236.7,12.45,74.21,10.62C55.46,10.41,36.62,10.2,18,12.67a5.7,5.7,0,0,0-2.81.9A5.64,5.64,0,0,0,13.53,17c-3.75,17.34-3.24,35.28-2.72,53q1.53,52.19,3.07,104.37c.06,2.09.26,4.47,1.91,5.77a7.26,7.26,0,0,0,4.27,1.08q56.9,2.22,113.84-1c22.75-1.27,45.57-3.19,68.27-1.32,19.78,1.64,39.31,6.14,59.15,6.39a7.29,7.29,0,0,0,4.21-.82c1.35-.9,2-2.55,2.44-4.1,7.42-23.55,6.36-48.82,4.84-73.46Q269.87,59.47,265,12.09l-16.25,1.43Z"/><path d="M236.7,2l-59.3-.67L118.1.61C98.39.39,78.68,0,59,0c-9.8,0-19.62.18-29.4,1-2.4.19-4.79.41-7.19.68-1.19.13-2.39.27-3.58.43a26.09,26.09,0,0,0-5.64,1A14.77,14.77,0,0,0,3.59,13.47C3,15.68,2.65,18,2.28,20.22-.95,40.11,0,60.17.61,80.22l1.74,59.23.88,29.75c.06,2.24,0,4.5.23,6.73.37,4.26,1.46,8.12,4.5,11.31,4.83,5.06,12.22,4.55,18.63,4.77q29.63,1,59.28.53c19.83-.32,39.62-1.21,59.41-2.4,19.44-1.16,39-2.26,58.41-.51,4.74.42,9.45,1,14.16,1.63l-2.79-.37c15.44,2.09,31,5,46.66,5,6,0,12-2.65,14.67-8.34a61.09,61.09,0,0,0,3.79-11.83,156.53,156.53,0,0,0,3.58-23.5c1.19-14.4.54-28.86-.33-43.26Q282,86.17,280.2,63.39q-2.08-25.66-4.74-51.3c-.28-2.73-.94-5.47-3.07-7.42-1.95-1.79-4.68-3.32-7.43-3.08L252,2.73a29.58,29.58,0,0,1-5.48.1L236.7,2C234.16,1.72,231,3.28,229.27,5a10.51,10.51,0,0,0,0,14.85A11.88,11.88,0,0,0,236.7,23l9.84.88a27.63,27.63,0,0,0,5.22-.08L265,22.59l-10.5-10.5q3,29.38,5.33,58.83c1.49,19.19,3.09,38.46,3.53,57.72A202.61,202.61,0,0,1,261.93,160l.38-2.79c-.51,3.78-1.16,7.55-2,11.27a74.89,74.89,0,0,1-3,10.64l1.06-2.51a9,9,0,0,1-.89,1.65l1.64-2.13a6.34,6.34,0,0,1-.75.8l2.12-1.64a5.18,5.18,0,0,1-1,.59l2.51-1.06a7.2,7.2,0,0,1-1.52.38l2.79-.37a49.22,49.22,0,0,1-7.08-.08c-2.37-.11-4.74-.28-7.1-.48-4.89-.42-9.77-1-14.65-1.67l2.8.38c-14.6-2-29.16-4.38-43.9-5-14.14-.6-28.3,0-42.42.86-28.31,1.64-56.59,2.9-84.95,2.88q-12,0-24-.26-6-.13-12-.31c-3.83-.12-7.75-.05-11.57-.47l2.79.38a8.55,8.55,0,0,1-1.57-.38l2.5,1.06a5.93,5.93,0,0,1-1-.59l2.12,1.64a5.39,5.39,0,0,1-.74-.77l1.64,2.12a7.78,7.78,0,0,1-.52-.94l1.06,2.51a9.58,9.58,0,0,1-.52-2.16l.37,2.79c-.49-4.67-.34-9.47-.48-14.16l-.44-14.87-.87-29.48C22.14,98.16,21.38,78.52,21,58.88a216.09,216.09,0,0,1,1.37-32.37L22,29.3c.28-2,.59-4,.95-6a30,30,0,0,1,1.25-5.4l-1.06,2.51a6.3,6.3,0,0,1,.58-1l-1.64,2.13a3.18,3.18,0,0,1,.55-.55l-2.12,1.64a3.09,3.09,0,0,1,.73-.42l-2.51,1.06a9.82,9.82,0,0,1,2.08-.48L18,23.17C32,21.33,46.16,21,60.27,21s28.45.28,42.68.44l85.68,1L236.7,23c5.49.06,10.75-4.88,10.5-10.5A10.69,10.69,0,0,0,236.7,2Z"/><path d="M8.09,22.85a393.59,393.59,0,0,0,39.4,41.44,413,413,0,0,0,46.6,36.55c7.92,5.35,16,10.49,24.36,15.17,5.55,3.11,11.7,5.57,18.18,5.3a38,38,0,0,0,17.47-5.47c4.9-2.85,9.3-6.52,13.71-10.06q6.13-4.92,12.17-9.94c8.13-6.73,16.18-13.57,24.21-20.42,16-13.64,32-27.34,48.47-40.38q3.08-2.43,6.19-4.84l-2.13,1.65c1.63-1.27,3.27-2.52,4.92-3.77,2.27-1.72,4-3.41,4.82-6.27a10.73,10.73,0,0,0-1.06-8.09,10.58,10.58,0,0,0-6.27-4.83c-2.57-.58-5.9-.6-8.09,1.06-14.12,10.71-27.84,21.92-41.38,33.34C196.74,54.2,184,65.26,171,76.12c-7.3,6.11-14.61,12.22-22.12,18.07L151,92.54a54.58,54.58,0,0,1-11.69,7.28l2.51-1.06a25.54,25.54,0,0,1-6.35,1.78l2.79-.37a19.92,19.92,0,0,1-4.94,0l2.8.38A23.07,23.07,0,0,1,131,99l2.51,1.06a88.37,88.37,0,0,1-10.28-5.63q-4.89-2.91-9.71-6-9.61-6.12-18.87-12.8Q89.4,71.93,84.29,68l2.12,1.64A393.61,393.61,0,0,1,35.59,22.66Q29.08,15.49,22.94,8c-1.61-2-5-3.07-7.43-3.07A10.5,10.5,0,0,0,5,15.43l.38,2.79a10.49,10.49,0,0,0,2.7,4.63Z"/></g></g></svg>