<svg xmlns="http://www.w3.org/2000/svg" viewBox="0 0 421.39 379.8"><defs><style>.cls-1{fill:#fff;}</style></defs><g id="Layer_2" data-name="Layer 2"><g id="Layer_1-2" data-name="Layer 1"><rect class="cls-1" x="24" y="21.99" width="366" height="328"/><path d="M0,21Q2.8,83.77,3.56,146.63T3.1,272.3q-.6,31.41-1.73,62.8C1.12,342.25.06,349.92,4,356.38a23.29,23.29,0,0,0,9.36,8.92A24.26,24.26,0,0,0,24,368.14a41.24,41.24,0,0,0,4.16-.06q15.69-.52,31.36-.76c41.85-.65,83.72.17,125.54,1.74s83.49,3.88,125.21,6.24q31.2,1.77,62.4,3.49l16.08.84c3.72.2,7.29.41,11-.59a22.06,22.06,0,0,0,13.74-10.56c2.51-4.42,2.73-9,3.35-13.91.34-2.76.68-5.52,1-8.28q.81-7.52,1.4-15.06c3.12-39.29,2.25-78.74,1.38-118.1q-.29-13-.58-26.11l-1.23-56-1.34-60.63-.88-39.92-.08-3.81c-.15-6.69-2.37-13.08-7.26-17.84a27.2,27.2,0,0,0-18.9-7.55h-2l-23.1-.08-42.61-.14L267,.86,205.2.66,143.47.45,88.13.27,45.92.13,23.32,0h-2A22.91,22.91,0,0,0,10.25,3C3.68,6.88.41,13.47,0,20.9-.2,25.37,2.2,30.53,5.31,33.63S13.55,39.11,18,38.9c10.17-.45,17.49-7.91,18-18v-.47l-.65,4.79.11-.45-1.81,4.3a2.54,2.54,0,0,1,.45-.8L31.32,32l.32-.34L28,34.42a3.59,3.59,0,0,1,.82-.53l-4.3,1.82a3.94,3.94,0,0,1,1-.29l-4.78.64c3.41-.23,6.9,0,10.33,0l26.87.09,39.81.13,48.61.16,53.24.18,53.73.18,50.06.16,42.24.14,30.27.11h14.16a11.75,11.75,0,0,1,1.67.08l-4.79-.64a10.89,10.89,0,0,1,2.11.54l-4.3-1.81a10.29,10.29,0,0,1,1.81,1l-3.64-2.82a9.68,9.68,0,0,1,1.4,1.39l-2.81-3.65a9.37,9.37,0,0,1,.76,1.24l-1.82-4.3a7,7,0,0,1,.52,1.85l-.64-4.78c.61,9.54.44,19.2.65,28.76l1.39,63.1,1.42,64.07q.36,15.87.7,31.75c.93,42.41,1.88,85-2.17,127.23q-.78,8.29-1.86,16.55l.65-4.79a11.4,11.4,0,0,1-.61,2.58l1.81-4.3a3.61,3.61,0,0,1-.53.91l2.82-3.65a3.14,3.14,0,0,1-.8.74l3.64-2.81-.51.29,4.3-1.82a7.5,7.5,0,0,1-1.75.45l4.78-.64a71.55,71.55,0,0,1-8.66-.31l-9.18-.48-18.37-1-36-2c-24.25-1.37-48.49-2.75-72.75-4-48.2-2.48-96.45-4.45-144.72-4.81Q84.3,331,64,331.22q-9.93.13-19.89.37c-3.31.08-6.63.17-9.94.27s-6.91.54-10.28.25l4.79.64a10.24,10.24,0,0,1-1.52-.38l4.3,1.81a10,10,0,0,1-1.33-.71l3.65,2.82a9.1,9.1,0,0,1-1.06-1l2.82,3.64a6.85,6.85,0,0,1-.72-1.19l1.81,4.3a5.65,5.65,0,0,1-.26-.89l.64,4.79a46.36,46.36,0,0,1,.16-7.07c.11-2.8.2-5.61.3-8.42q.28-8,.52-16.08.48-15.69.83-31.4.7-31.79.9-63.58.39-63.62-1.26-127.22Q37.55,56.53,36,20.9A18.84,18.84,0,0,0,30.7,8.18C27.58,5.05,22.46,2.7,18,2.9c-4.65.21-9.48,1.74-12.72,5.28S-.2,16.12,0,21Z"/><path d="M73.55,38.6l-.48,75-.47,75-.27,42a35.2,35.2,0,0,0,9.23,22.27,23.68,23.68,0,0,0,10.14,6.51,23.7,23.7,0,0,0,12.13,2.72l8.38-1.13a31.42,31.42,0,0,0,13.9-8.1L131,246.5a31.19,31.19,0,0,0,4.3-15.9l.48-75,.47-75,.27-42a23.71,23.71,0,0,0-2.72-12.14A28.26,28.26,0,0,0,117.18,9.81,23.77,23.77,0,0,0,105.05,7.1L96.67,8.22a31.53,31.53,0,0,0-13.9,8.1L77.85,22.7a31.28,31.28,0,0,0-4.3,15.9Z"/><path d="M182.6,37.49q1.8,39.33,3.15,78.68,1.33,39.12,2.22,78.26.51,22.19.84,44.38a30.42,30.42,0,0,0,19.37,28.79,23.65,23.65,0,0,0,12.14,2.71l8.38-1.12a31.42,31.42,0,0,0,13.9-8.1l4.92-6.38a31.28,31.28,0,0,0,4.3-15.9q-.62-39.39-1.7-78.78Q249,120.91,247.5,81.8q-.87-22.15-1.89-44.31a23.7,23.7,0,0,0-2.72-12.13A28.26,28.26,0,0,0,226.24,8.71,23.62,23.62,0,0,0,214.1,6l-8.38,1.13a31.48,31.48,0,0,0-13.9,8.1l-4.92,6.37a31.38,31.38,0,0,0-4.3,15.9Z"/><path d="M299.57,42.16l-.47,75-.48,75-.26,42A30.39,30.39,0,0,0,317.72,263a23.75,23.75,0,0,0,12.14,2.72l8.37-1.13a31.42,31.42,0,0,0,13.9-8.1l4.93-6.38a31.21,31.21,0,0,0,4.26-15.91l.47-75,.48-75,.26-42a35,35,0,0,0-9.21-22.27,35,35,0,0,0-22.27-9.22l-8.37,1.12a31.53,31.53,0,0,0-13.9,8.1l-4.93,6.38a31.38,31.38,0,0,0-4.3,15.9Z"/></g></g></svg>