<svg xmlns="http://www.w3.org/2000/svg" viewBox="0 0 231.38 314.87"><defs><style>.cls-1{fill:red;}</style></defs><g id="Layer_2" data-name="Layer 2"><g id="Layer_1-2" data-name="Layer 1"><path class="cls-1" d="M78.13,77c7.6.23,15.62,9.88,23.22,10.11,15,.45,21.52-10.42,28.65-18.63,4.43-5.11,0-18.32-2.68-24.53-6.44-15-8.91-15.23-16.84-25.62S87,10.48,73.94,11.71L62.85,21.53A168.91,168.91,0,0,0,14,105a119.54,119.54,0,0,0-3.49,23.94,123.85,123.85,0,0,0,2.16,25.69C20.13,196.38,42.09,235.54,74.43,263s74.9,42.73,117.28,41.32c3.46-.12,7.47-.65,9.29-3.59a88.92,88.92,0,0,0,5.17-11.06c3.2-10.09,13.53-30.24,14.63-41.09,1.29-12.76-7.41-12.58-16.81-15.63-6.8-2.2-38.27-17.11-40.31-10.25-.53,1.74-13.64,21.4-14.43,23.05-1.76,3.72-3.24,10.12-7.36,10-12.36-.23-15.45-1.19-25.18-8.81s-19-12.28-26.49-22.1c-20.72-27.06-41.46-65.48-38.67-99.46,1.16-14.11.17-21.75,8.91-34.92Z"/><path d="M78.13,87.45a9.3,9.3,0,0,1,1.05.09l-2.79-.38a15.69,15.69,0,0,1,3.55,1l-2.51-1.06c4,1.71,7.4,4.36,11.15,6.46,5.08,2.84,10.49,4.43,16.35,3.85a35.61,35.61,0,0,0,15.66-4.94,47.14,47.14,0,0,0,10.17-8.73c2.36-2.64,4.58-5.42,6.84-8.13a21.41,21.41,0,0,0,4.63-16.34c-1-9.84-4.65-19-9.14-27.81-3.82-7.43-9.57-13.39-14.65-19.93l1.64,2.12a44.69,44.69,0,0,0-3.74-4.6,32.67,32.67,0,0,0-4.45-3.59,29.19,29.19,0,0,0-8.24-3.78A50.44,50.44,0,0,0,86.87.09c-2.6.12-5.2.35-7.79.61l-3.52.36c-1,.1-2,.21-3,.34a11.38,11.38,0,0,0-6.07,2.92c-1.9,1.62-3.75,3.32-5.62,5a188.58,188.58,0,0,0-17,16.7A179.35,179.35,0,0,0,7.46,89.72C3.28,102.51.39,116,0,129.51S2,156.74,5.23,169.81a203.14,203.14,0,0,0,12,34A192.44,192.44,0,0,0,56.82,261a188.33,188.33,0,0,0,61.92,40.58,179.39,179.39,0,0,0,71,13.23,36.57,36.57,0,0,0,10-1.16,18.12,18.12,0,0,0,10.5-8A77.25,77.25,0,0,0,216.1,293c3.08-8.42,6.7-16.6,9.94-24.95,3.93-10.12,8.09-22,2.94-32.46-2.63-5.35-7.92-8.34-13.33-10.2-3.29-1.14-6.73-1.78-10-3-6.14-2.26-12.11-4.95-18.24-7.2a106.59,106.59,0,0,0-10.48-3.38,32.91,32.91,0,0,0-10.51-1.39,15.66,15.66,0,0,0-7.25,2.07,13.08,13.08,0,0,0-4.32,4.34,22.6,22.6,0,0,0-1.36,3.2l1.06-2.51c-1.54,3.45-4,6.66-6,9.83-2.49,3.88-5,7.72-7.48,11.63a55.47,55.47,0,0,0-3.63,8.1l1.06-2.51a18,18,0,0,1-2.16,4l1.65-2.13a7.29,7.29,0,0,1-1.07,1.08l2.12-1.64a5.33,5.33,0,0,1-1,.57l2.51-1.06a6,6,0,0,1-.83.23l2.79-.38a41.9,41.9,0,0,1-9.15-.45l2.79.37a25.24,25.24,0,0,1-6.28-1.62l2.5,1.06a42.92,42.92,0,0,1-9.2-5.82l2.12,1.65c-6.11-4.73-12.52-9-18.65-13.75l2.13,1.64a61.42,61.42,0,0,1-11.1-10.87l1.64,2.13A224.54,224.54,0,0,1,70.54,171l1.06,2.51a131.68,131.68,0,0,1-9.37-32.87l.38,2.79A84.89,84.89,0,0,1,62,126.08c.38-5.29.56-10.63,1.25-15.89L62.87,113a44,44,0,0,1,2.88-10.88l-1.06,2.5a56.06,56.06,0,0,1,4.84-8.83l-3.77,3.77L83.43,86c2.27-1.73,4-3.4,4.82-6.27a10.72,10.72,0,0,0-1-8.09,10.59,10.59,0,0,0-6.28-4.83c-2.55-.58-5.91-.61-8.09,1.06L56.21,80.61l-1,.72c-.74.57-1.72,1.22-2.22,1.72a24.94,24.94,0,0,0-3.34,4.8,58.81,58.81,0,0,0-5.34,11.73c-2.27,6.92-2.53,14.36-3,21.58-.26,3.86-.61,7.7-.56,11.58A109.14,109.14,0,0,0,42,146.25a122.8,122.8,0,0,0,5.62,23.08,206.77,206.77,0,0,0,22.85,45.74q3.55,5.42,7.38,10.64a94.5,94.5,0,0,0,10,12.17c6.88,6.72,15.22,11.68,22.81,17.5l-2.12-1.65c3.8,2.94,7.56,6.19,11.89,8.35A38.81,38.81,0,0,0,134,265.85c5.17.58,11,1.09,15.58-1.86,5.31-3.44,7.06-9.1,9.39-14.61l-1.06,2.51a34.08,34.08,0,0,1,2.7-4.63q2.49-3.87,5-7.74c3-4.62,6.24-9.15,8.25-14.29l-1.06,2.5c.07-.14.14-.26.22-.39l-1.64,2.12a2.52,2.52,0,0,1,.4-.4l-2.13,1.64a3.14,3.14,0,0,1,.64-.37l-2.51,1.06a4.89,4.89,0,0,1,1.25-.32l-2.79.37a14.22,14.22,0,0,1,3.45.09l-2.79-.37c6.31.87,12.46,3.3,18.36,5.58,5.16,2,10.21,4.32,15.42,6.13,3.59,1.25,7.38,1.89,10.9,3.33l-2.51-1.06a14.38,14.38,0,0,1,3.12,1.78l-2.13-1.65a9.67,9.67,0,0,1,1.49,1.51l-1.64-2.13a9.93,9.93,0,0,1,1.1,1.93L210,244.07a12.06,12.06,0,0,1,.7,2.78l-.37-2.79a21.61,21.61,0,0,1-.11,5.33l.38-2.79c-1.11,7.72-4.43,15.17-7.39,22.33-1.55,3.76-3.16,7.5-4.68,11.28-1.15,2.87-2.05,5.85-3.25,8.71l1.05-2.51a56.24,56.24,0,0,1-4.58,9.31l1.64-2.13a7.48,7.48,0,0,1-1.06,1.12l2.13-1.64a9.49,9.49,0,0,1-1.65,1l2.51-1.06a14.21,14.21,0,0,1-3.51.93l2.79-.38a91.48,91.48,0,0,1-15.08.17c-5.21-.21-10.4-.68-15.57-1.38l2.79.38a176.55,176.55,0,0,1-44.19-12.12l2.51,1.06a178,178,0,0,1-39.21-22.84l2.12,1.64a178.51,178.51,0,0,1-31.62-31.67L58,230.91A189,189,0,0,1,33.64,189.3l1.06,2.51A185.86,185.86,0,0,1,21.76,145l.38,2.79a109.84,109.84,0,0,1-.23-29l-.38,2.79a156.92,156.92,0,0,1,11-39.38l-1.06,2.51a171.93,171.93,0,0,1,22-37.7l-1.64,2.13A168,168,0,0,1,68.52,30.6c3-2.82,6.07-5.47,9.13-8.17l3.72-3.29-7.43,3.07c7.41-.7,14.93-1.79,22.36-.84L93.51,21a27.56,27.56,0,0,1,6.69,1.73l-2.51-1.06a20.17,20.17,0,0,1,4.21,2.4l-2.12-1.64a18.52,18.52,0,0,1,3.27,3.29l-1.64-2.13c3.24,4.24,6.76,8.24,10,12.44l-1.65-2.13a70.27,70.27,0,0,1,8.57,15.57L117.31,47a57.83,57.83,0,0,1,4.21,14.37l-.38-2.79a22.68,22.68,0,0,1,.12,5.46l.37-2.79a11.18,11.18,0,0,1-.7,2.73l1-2.51a7.64,7.64,0,0,1-.87,1.49l1.64-2.12c-3.93,4.76-7.74,9.87-12.66,13.68l2.12-1.65a27,27,0,0,1-5.65,3.33l2.51-1.06A25.15,25.15,0,0,1,103,76.72l2.79-.37a22.84,22.84,0,0,1-5.48.12l2.79.37a15.82,15.82,0,0,1-3.55-1L102,76.88c-3.44-1.49-6.5-3.7-9.7-5.62-4.4-2.64-9-4.56-14.21-4.81-5.5-.27-10.75,5-10.5,10.5A10.72,10.72,0,0,0,78.13,87.45Z"/></g></g></svg>