<svg xmlns="http://www.w3.org/2000/svg" viewBox="0 0 98.82 269.37"><defs><style>.cls-1{fill:red;}</style></defs><g id="Layer_2" data-name="Layer 2"><g id="Layer_1-2" data-name="Layer 1"><path d="M39.92,69c-5,25-3.54,50.28-1.75,75.5.87,12.27,1.74,24.56,1.77,36.87s-.72,24.5-1,36.76c-.34,14.6.16,29.19,2.91,43.57.47,2.47,2.73,5,4.83,6.27A10.49,10.49,0,0,0,61,264.17a11.68,11.68,0,0,0,1.06-8.09q-.68-3.58-1.17-7.18l.37,2.79c-2.94-22.15-.57-44.48-.36-66.71s-2.49-44.29-3.31-66.46A219.84,219.84,0,0,1,59,81.26l-.37,2.79q.64-4.78,1.59-9.51a11.16,11.16,0,0,0-1.06-8.09,10.48,10.48,0,0,0-14.36-3.77c-2.21,1.42-4.29,3.61-4.83,6.28Z"/><path class="cls-1" d="M39,10.81C29.12,8.68,19.2,16,14.87,25s-4.38,19.54-4.36,29.6c0,7.94.25,16.53,5.17,22.76,2.68,3.39,6.47,5.68,10.18,7.89,6,3.57,12.2,7.22,19.13,7.77,5,.39,10-.89,14.75-2.56,8.15-2.89,16.17-7.22,21.19-14.26C85.29,70.1,87,62.49,87.85,55c1.23-10.77.53-22.66-6.47-30.94C72.88,14,58.18,12.54,45,11.8"/><path d="M41.75.69A28.19,28.19,0,0,0,25.49,1.8,36.47,36.47,0,0,0,11.84,11,42.64,42.64,0,0,0,3.32,25.71a63.63,63.63,0,0,0-3,16.2C0,46.53,0,51.19,0,55.83A72.89,72.89,0,0,0,1.44,71,32.09,32.09,0,0,0,9.35,86.07c3.54,3.76,8.14,6.47,12.55,9.08a68,68,0,0,0,14.91,7,38.2,38.2,0,0,0,18.91.44A71.42,71.42,0,0,0,71,97.14a53.56,53.56,0,0,0,12.57-8.23C91.44,82,95.77,72,97.43,61.83c1.61-9.89,2.26-20.22-.49-30A37.66,37.66,0,0,0,78.4,8.48C69.88,4,60.48,2.51,51,1.7q-3-.24-6-.4a10.48,10.48,0,0,0-10.5,10.5A10.74,10.74,0,0,0,45,22.3c3.88.22,7.77.5,11.63,1l-2.79-.38a55.85,55.85,0,0,1,14,3.58l-2.51-1.06a32.22,32.22,0,0,1,6.8,3.94L70,27.76a26.63,26.63,0,0,1,4.65,4.66l-1.64-2.13a28.29,28.29,0,0,1,3.44,6l-1.06-2.51a36.85,36.85,0,0,1,2.35,9L77.41,40a65.08,65.08,0,0,1-.26,16.73l.37-2.79a53.65,53.65,0,0,1-3.44,13.61L75.14,65a32.49,32.49,0,0,1-4,6.87l1.64-2.13a33.54,33.54,0,0,1-5.61,5.56l2.12-1.64a49.8,49.8,0,0,1-10.75,6.15l2.51-1.06a54.82,54.82,0,0,1-13.25,4l2.8-.38a27.32,27.32,0,0,1-6.94.06l2.79.37a31.8,31.8,0,0,1-7.59-2.16l2.51,1.06a76.34,76.34,0,0,1-8.69-4.55,75.81,75.81,0,0,1-7.84-5L27,73.72a23.68,23.68,0,0,1-4.12-4.07l1.65,2.13a21.72,21.72,0,0,1-2.5-4.4l1.06,2.51a31.61,31.61,0,0,1-1.93-7.61l.38,2.79A98.87,98.87,0,0,1,21,52.19a113.7,113.7,0,0,1,.71-14l-.37,2.8a46.49,46.49,0,0,1,2.93-11.5L23.22,32a29.74,29.74,0,0,1,3.9-6.73l-1.65,2.12a29.51,29.51,0,0,1,4.81-4.8l-2.12,1.64A25.47,25.47,0,0,1,33.58,21l-2.51,1.06A20.76,20.76,0,0,1,36,20.72l-2.79.37a18,18,0,0,1,4.34,0l-2.79-.38c.49.07,1,.15,1.46.25a11.17,11.17,0,0,0,8.09-1.06,10.7,10.7,0,0,0,4.82-6.28A10.64,10.64,0,0,0,48,5.51C46.6,3.3,44.42,1.23,41.75.69Z"/></g></g></svg>