<svg xmlns="http://www.w3.org/2000/svg" viewBox="0 0 326.54 279.31"><defs><style>.cls-1{fill:#666;}.cls-2{fill:#4d4d4d;}.cls-3{fill:#fc0;}</style></defs><g id="Layer_2" data-name="Layer 2"><g id="Layer_1-2" data-name="Layer 1"><path class="cls-1" d="M109.61,94.46,114,143.22c1.16,13,2.32,26,1.81,39-.5,12.42-2.51,24.74-3.15,37.15-.61,12,.65,25.33,9.46,33.44,5.66,5.22,13.47,7.3,21,8.94a331.63,331.63,0,0,0,46.19,6.68c6.77.49,13.65.77,20.28-.68,18-3.92,31.34-20.18,37-37.74s5.09-36.44,4.45-54.89l-2.58-73.76a3.55,3.55,0,0,0-3.38-4.25c-42.05-9.84-86.27.42-129.14-4.72"/><path d="M99.11,94.46c1.85,20.6,3.93,41.2,5.47,61.83a215.58,215.58,0,0,1,.45,30.6c-.67,10.12-2.12,20.17-2.76,30.29-.55,8.69-.37,17.81,2.26,26.18,3,9.73,9.33,18.16,18.56,22.8,8.78,4.42,18.6,6.17,28.18,7.92,10.65,1.94,21.41,3.4,32.19,4.38,10.3.93,20.9,1.7,31-1.09a56,56,0,0,0,23.23-13.49,69.05,69.05,0,0,0,14.62-20.21,94.51,94.51,0,0,0,8.19-28.5,193.35,193.35,0,0,0,1.33-30.24c-.23-10.08-.66-20.15-1-30.23l-1.07-30.9-.54-15.45c-.09-2.5-.11-5-.27-7.52a16.44,16.44,0,0,0-1.84-7.21,13.19,13.19,0,0,0-5.32-5.15,33.45,33.45,0,0,0-9-2.57c-2.31-.45-4.64-.85-7-1.2-5.59-.83-11.21-1.5-16.84-1.9-9.84-.71-19.72-.74-29.58-.54-19.67.42-39.35,1.81-59,.83-4.82-.24-9.62-.62-14.41-1.19-2.49-.3-5.74,1.38-7.43,3.07a10.51,10.51,0,0,0,0,14.85l2.13,1.64a10.47,10.47,0,0,0,5.3,1.44c29.85,3.54,59.87-.27,89.81.31A220.91,220.91,0,0,1,230.67,105l-2.79-.37c2.73.37,5.45.8,8.15,1.31a46.42,46.42,0,0,1,7.66,1.73l-2.51-1.06a4.77,4.77,0,0,1,.92.55L240,105.51l.26.25-1.65-2.13a2.52,2.52,0,0,1,.39.59l-1.06-2.51a5.89,5.89,0,0,1,.36,1.37l-.38-2.79c.35,3.65.29,7.38.42,11l.4,11.46.79,22.68c.52,14.78,1.28,29.57,1.42,44.36a167.79,167.79,0,0,1-1.23,23.93l.38-2.79a86.39,86.39,0,0,1-5.65,21.74l1.05-2.51a65.88,65.88,0,0,1-8.29,14.31l1.64-2.12a56.06,56.06,0,0,1-9.66,9.81l2.12-1.65a46,46,0,0,1-9.82,5.84l2.51-1.06a42.16,42.16,0,0,1-10.46,2.87l2.79-.37a88.15,88.15,0,0,1-18.23,0q-9.34-.72-18.63-2l2.79.37q-10.48-1.41-20.87-3.48c-6.07-1.22-12.24-2.41-18-4.8l2.51,1.06a32.27,32.27,0,0,1-6.94-4l2.12,1.64a25.57,25.57,0,0,1-4.25-4.26l1.64,2.13a28.79,28.79,0,0,1-3.6-6.22l1.06,2.51a41.49,41.49,0,0,1-2.71-10.34l.37,2.79c-1-7.79-.44-15.67.28-23.47.86-9.19,2.07-18.37,2.44-27.61.74-18.65-1.67-37.37-3.33-55.92l-2.85-31.85A11.25,11.25,0,0,0,117,87a10.49,10.49,0,0,0-14.85,0c-1.79,1.94-3.32,4.68-3.08,7.42Z"/><path class="cls-2" d="M174.7,10.82A769.67,769.67,0,0,0,36.24,93.34c52.59,9.76,94.42,48.82,143.38,70.36a18.63,18.63,0,0,0,5.73,1.79c3.32.31,6.54-1.07,9.59-2.42Q254.73,136.66,316,113.81C309.88,99.2,297.59,88,284.43,79.2s-27.53-15.78-40.5-24.89c-22.16-15.59-41.15-37.88-67.58-43.86"/><path d="M169.4,1.75Q140.81,15,113.35,30.47T59.83,63.68q-14.69,10-28.89,20.59A13.27,13.27,0,0,0,27.17,88a10.37,10.37,0,0,0-1.24,6.7,9.93,9.93,0,0,0,2.06,5,9.77,9.77,0,0,0,5.46,3.77,166.38,166.38,0,0,1,34,10.47l-2.5-1.06c20.6,8.73,39.67,20.57,58.74,32.17,9.55,5.82,19.14,11.6,29,17,5,2.7,10,5.29,15.06,7.72,2.5,1.19,5,2.35,7.56,3.44a33,33,0,0,0,6.32,2.31,23.38,23.38,0,0,0,9.28,0c4.18-.69,8.06-2.8,11.89-4.49L213,166.54q10.41-4.51,20.87-8.93l-2.51,1.06q33.76-14.25,68-27.38,9.71-3.72,19.44-7.35c3.17-1.18,5.47-2.91,6.8-6.08a7.94,7.94,0,0,0,.91-4,10.51,10.51,0,0,0-1.43-5.3c-5.28-12.41-14.85-22.85-25.39-31.06-11.88-9.27-25-16.38-37.88-24.11a196.75,196.75,0,0,1-19.3-13.06l2.12,1.64c-15.73-12.18-30.27-26.74-48.41-35.4A83.39,83.39,0,0,0,179.15.32a11.11,11.11,0,0,0-8.09,1.06,10.71,10.71,0,0,0-4.83,6.28c-1.22,5.35,1.61,11.6,7.33,12.91A71.12,71.12,0,0,1,185,24.3l-2.51-1.05c9,3.87,17.21,9.41,25,15.4L205.36,37c9.81,7.59,19.09,15.82,29,23.27,10.66,8,22.37,14.33,33.8,21.13a184.06,184.06,0,0,1,18.27,12.11l-2.12-1.64a91.33,91.33,0,0,1,16.37,16l-1.64-2.13a62.05,62.05,0,0,1,7.9,13.39l6.28-15.42q-49.73,18.54-98.51,39.42c-8.85,3.78-17.64,7.7-26.47,11.5l2.5-1.06a24,24,0,0,1-5.73,1.76l2.79-.37a12.83,12.83,0,0,1-3,0l2.79.38a19.65,19.65,0,0,1-4.3-1.33l2.51,1.06c-19.5-8.38-37.63-19.63-55.71-30.64C111.5,113.05,92.77,102,72.6,93.51A166.37,166.37,0,0,0,39,83.22l2.51,19.19Q66.77,83.54,93.47,66.77t54.67-31.28Q163.89,27.33,180,19.88c2.26-1,4.19-4,4.82-6.27a10.72,10.72,0,0,0-1-8.09A10.59,10.59,0,0,0,177.49.69a12,12,0,0,0-8.09,1.06Z"/><path d="M249.93,225.54a10.87,10.87,0,0,0,7.43-3.08,10.5,10.5,0,0,0-7.43-17.92,10.83,10.83,0,0,0-7.42,3.07,10.5,10.5,0,0,0,7.42,17.93Z"/><path class="cls-3" d="M188.78,64.59c-12.54-4.71-25.23-8.62-38.63-9.86a76.74,76.74,0,0,0-36.94,6.09C90.6,70.36,73.7,88.45,59,107.5q-3.72,4.8-7.38,9.66A86.39,86.39,0,0,0,46,124.94a28.79,28.79,0,0,0-4.11,13.14c-.19,3.35.79,6.62.4,10l.38-2.79a21.06,21.06,0,0,1-1.43,5.12l1-2.5c-2.72,6.28-7.66,11.21-11.37,16.89-4.34,6.64-6.74,14.41-8.08,22.17-.85,4.9-1.42,9.85-2.07,14.77l.37-2.79c-.92,6.84-2,13.71-4.71,20.11l1.06-2.51a42.89,42.89,0,0,1-1.92,3.91,11,11,0,0,0-1.06,8.09,10.69,10.69,0,0,0,4.83,6.27c4.94,2.62,11.51,1.36,14.37-3.76,6-10.82,7.18-22.9,8.8-34.93l-.38,2.79c.91-6.69,2-13.42,4.61-19.7l-1.06,2.51c2.91-6.85,8-12.12,12.05-18.28a33.29,33.29,0,0,0,5-11.52,28.9,28.9,0,0,0,.58-7.87,34.3,34.3,0,0,1-.36-6.79L62.63,140a17.28,17.28,0,0,1,1.08-4l-1.05,2.51a44.22,44.22,0,0,1,5.83-9.17c2.31-3.06,4.62-6.12,7-9.16l-1.64,2.13C83,110.52,92.73,99,104.6,89.78l-2.13,1.64a93.25,93.25,0,0,1,20.08-11.94l-2.5,1.06a70.18,70.18,0,0,1,17.52-4.92l-2.79.37a71.39,71.39,0,0,1,18.87.14l-2.79-.37C162,77.3,172.7,80.9,183.19,84.84c2.42.9,5.95.19,8.09-1.06a10.5,10.5,0,0,0,3.77-14.37,12,12,0,0,0-6.27-4.82Z"/><path class="cls-3" d="M14.53,216.19a44.22,44.22,0,0,0-5.1,4.05,41.49,41.49,0,0,0-4.21,5,35,35,0,0,0-4.84,9.36,8,8,0,0,0-.18,4.19,7.74,7.74,0,0,0,1.24,3.9,7.93,7.93,0,0,0,2.71,2.95,7.9,7.9,0,0,0,3.57,1.88,10.64,10.64,0,0,0,8.09-1.06l2.12-1.64a10.53,10.53,0,0,0,2.7-4.64c.16-.42.32-.83.49-1.25l-1.06,2.51a26,26,0,0,1,3.29-5.6l-1.64,2.13a26.14,26.14,0,0,1,4.46-4.46l-2.12,1.65c.35-.28.71-.54,1.08-.79a7.93,7.93,0,0,0,2.95-2.71,9.39,9.39,0,0,0,2.06-7.76A7.87,7.87,0,0,0,28.9,220a10.58,10.58,0,0,0-6.28-4.82l-2.79-.38a10.51,10.51,0,0,0-5.3,1.43Z"/><path class="cls-3" d="M28.49,228.06a21.34,21.34,0,0,1,2.5,1.62L28.86,228a19.54,19.54,0,0,1,3.46,3.46l-1.64-2.12a19.57,19.57,0,0,1,2.39,4.07L32,230.94a21.24,21.24,0,0,1,.81,2.32,8,8,0,0,0,1.87,3.57,8,8,0,0,0,3,2.7,7.88,7.88,0,0,0,3.9,1.25,8,8,0,0,0,4.19-.19A10.67,10.67,0,0,0,52,235.77a10.94,10.94,0,0,0,1.06-8.1,33.43,33.43,0,0,0-2.39-5.93A32,32,0,0,0,47,216.45a19.5,19.5,0,0,0-2.68-2.77,32.7,32.7,0,0,0-5.24-3.75,11,11,0,0,0-8.1-1.06,8,8,0,0,0-3.57,1.88,7.91,7.91,0,0,0-2.7,2.95,10.48,10.48,0,0,0,3.77,14.36Z"/><path class="cls-3" d="M18.43,234.57a68.84,68.84,0,0,1,1.64,8.18L19.69,240a69.07,69.07,0,0,1,.58,6.89,11,11,0,0,0,3.07,7.42,7.79,7.79,0,0,0,3.38,2.17,7.94,7.94,0,0,0,4.05.91,10.52,10.52,0,0,0,10.5-10.5A81.15,81.15,0,0,0,38.68,229a10.83,10.83,0,0,0-4.83-6.27,7.82,7.82,0,0,0-3.9-1.25,8,8,0,0,0-4.19.19,10.6,10.6,0,0,0-6.27,4.83,11,11,0,0,0-1.06,8.09Z"/></g></g></svg>