<svg id="Layer_1" data-name="Layer 1" xmlns="http://www.w3.org/2000/svg" viewBox="0 0 422.63 235.97"><defs><style>.cls-1{fill:#f7871e;}</style></defs><path class="cls-1" d="M414,629.43c-8.27-17.86-7.27-42.06,2.41-58.72s27.48-24.77,43.18-19.69c1.78.57,3.61,1.3,5.41.87,4.39-1.06,6-7.83,7.15-13.36,5.31-25.33,19.31-47.45,37.55-59.32s40.42-13.29,59.49-3.82c2.22,1.11,4.57,2.37,6.91,1.75,1.9-.5,3.45-2.17,5-3.73,26.88-27.68,64.22-32.47,98.39-26.69,9.46,1.6,19.08,4,27.27,10.34,6.9,5.33,12.4,13.13,17.78,20.81,5.72,8.16,11.53,16.48,15.14,26.43a57.19,57.19,0,0,1,2.21,7.78c2.38,11.46,9.53,20.28,18.65,22.25a37.44,37.44,0,0,1,17.39,9.16c8.53,7.82,14.47,19.49,19,31.63a67.21,67.21,0,0,1,3.62,12.74c2.81,17.51-5.67,35.53-17.35,45.28S757.19,646,743.34,647.76c-46.39,6.07-93.16.65-139.75-2-58.4-3.29-110.85-2.36-168.38-.6-8.82.27-17-5.81-21.24-15.75Z" transform="translate(-393.38 -429.56)"/><path d="M426.92,621.86c-.24-.53-.47-1.06-.7-1.59l1.51,3.58a63.75,63.75,0,0,1-4.28-16.06l.53,4A73.71,73.71,0,0,1,424,593l-.53,4a65.81,65.81,0,0,1,4.29-16.07l-1.51,3.58a52.3,52.3,0,0,1,6.73-11.6l-2.35,3a46.67,46.67,0,0,1,7.61-7.65l-3,2.35a41.88,41.88,0,0,1,9.26-5.45l-3.58,1.51a37.15,37.15,0,0,1,9-2.41l-4,.54a34.1,34.1,0,0,1,8.14,0l-4-.54a34.58,34.58,0,0,1,5.86,1.35,23,23,0,0,0,13.65.57c8.2-2.37,12.85-9.62,15.41-17.26,1.36-4.08,2-8.39,3.09-12.54a111,111,0,0,1,4.65-13.55l-1.51,3.58A100.83,100.83,0,0,1,504,504.2l-2.35,3a81.38,81.38,0,0,1,14.19-14.3l-3,2.35a67,67,0,0,1,14.21-8.36l-3.58,1.52a62.68,62.68,0,0,1,15.26-4.24l-4,.54a60.87,60.87,0,0,1,15.61-.09l-4-.53a60.87,60.87,0,0,1,15.27,4.11l-3.59-1.51c3.6,1.53,7.07,3.7,10.85,4.75a20.93,20.93,0,0,0,11.16.13,24.62,24.62,0,0,0,9-5.14c2.14-1.76,4-3.89,6-5.78s4.17-3.69,6.37-5.4l-3,2.34a93.67,93.67,0,0,1,20.46-11.92l-3.58,1.51A105.82,105.82,0,0,1,642,460.08l-4,.54a137.94,137.94,0,0,1,35.74.24l-4-.53c7.87,1.05,15.78,2.49,23.15,5.54l-3.58-1.51a47.16,47.16,0,0,1,9.81,5.65l-3-2.34a66.7,66.7,0,0,1,11.35,11.91l-2.34-3c7.6,9.94,15.32,20.51,20.29,32.06L723.86,505c2,4.76,2.89,9.67,4.4,14.56a45.47,45.47,0,0,0,6.9,14.12c3.63,4.77,7.7,9.16,13.14,11.93a37.6,37.6,0,0,0,7.94,3.1,44.71,44.71,0,0,1,6.77,2.14l-3.59-1.51a39.94,39.94,0,0,1,8.31,4.91l-3-2.34a49.78,49.78,0,0,1,8.29,8.44l-2.34-3a87.55,87.55,0,0,1,10.77,19.12l-1.51-3.58c2.73,6.49,5.3,13.2,6.27,20.21l-.54-4a47.79,47.79,0,0,1-.06,11.83l.53-4a53.42,53.42,0,0,1-3.59,13L784,606.4a55.84,55.84,0,0,1-6.88,11.85l2.34-3a49.13,49.13,0,0,1-8.54,8.57l3-2.34a57.58,57.58,0,0,1-12.21,7.06l3.59-1.51c-8.11,3.38-16.73,5.06-25.4,6.23l4-.54c-41.32,5.46-83,1.82-124.4-.91-40.23-2.66-80.51-3.52-120.81-3q-16.83.21-33.66.63-8.54.21-17.08.45c-5.18.15-10.66.85-15.81.23l4,.53a21.37,21.37,0,0,1-4.85-1.32l3.59,1.51a23.65,23.65,0,0,1-4.9-2.89l3,2.35a28,28,0,0,1-4.61-4.69l2.34,3a32.24,32.24,0,0,1-3.86-6.69c-1.36-3.2-5.78-6-9-6.89a15.35,15.35,0,0,0-11.56,1.51c-3.2,2.07-6,5.14-6.89,9l-.54,4a14.91,14.91,0,0,0,2,7.57c3.34,7.87,10.06,15.51,17.83,19.23a36.4,36.4,0,0,0,15.35,3.95c4.33.11,8.72-.23,13.05-.36,17.89-.51,35.78-.93,53.67-1.12,36-.39,72,.22,108,2.39,36.8,2.23,73.67,5.88,110.57,3.85,10.15-.56,20.24-1.61,30.29-3.05a97.47,97.47,0,0,0,22.1-5.38c9.17-3.61,17.66-8.34,24.7-15.37,6.66-6.65,11.31-14.55,14.88-23.18a59.76,59.76,0,0,0,4.48-25.71c-.53-9.39-3.25-18.11-6.83-26.72-3.7-8.89-7.82-17.2-13.72-24.84a56.72,56.72,0,0,0-9-9.56A59.23,59.23,0,0,0,771,522c-3.19-1.32-6.6-1.83-9.79-3.11l3.59,1.51a22.78,22.78,0,0,1-4.7-2.75l3,2.34a27.68,27.68,0,0,1-4.39-4.4l2.35,3a33.5,33.5,0,0,1-4.19-7.21l1.51,3.58c-1.39-3.4-2-6.93-3-10.46a86.89,86.89,0,0,0-5.56-14.16c-3.32-6.9-7.66-13.22-12-19.47-5-7.11-10-14.43-16.16-20.56a62.88,62.88,0,0,0-24.44-14.74c-7.75-2.63-16-3.73-24.06-4.76a145.81,145.81,0,0,0-19.6-1.23c-14.13.1-28.65,2.16-42,7A109.15,109.15,0,0,0,588.37,448a121.65,121.65,0,0,0-11.76,9c-3.12,2.67-5.79,5.93-9,8.46l3-2.34a9.8,9.8,0,0,1-1.57.9l3.58-1.51a4.91,4.91,0,0,1-1.2.3l4-.53a5.4,5.4,0,0,1-1.27,0l4,.54a12.18,12.18,0,0,1-2.53-.71l3.58,1.51c-5.86-2.56-11.52-5.44-17.75-7a75.21,75.21,0,0,0-18.28-2.39,76.63,76.63,0,0,0-35.95,9.08c-18.29,9.63-32.59,27.06-41,45.74a133.08,133.08,0,0,0-7,18.78c-1.38,5-2,10.31-4,15.12l1.51-3.58a14.34,14.34,0,0,1-1.69,2.91l2.35-3a9.37,9.37,0,0,1-1.23,1.21l3-2.35a7.1,7.1,0,0,1-1.07.62l3.59-1.51a6.62,6.62,0,0,1-1.47.38l4-.54a6.17,6.17,0,0,1-1.36,0l4,.53c-2-.36-3.89-1.17-5.87-1.63a55.25,55.25,0,0,0-9.05-1.28A47.07,47.07,0,0,0,438.38,536c-9.34,2.21-18.08,7.54-24.9,14.21-14,13.72-20.36,34.12-20.09,53.42A82.5,82.5,0,0,0,401,637c1.47,3.22,5.69,6,9,6.9a15.34,15.34,0,0,0,11.56-1.51c3.21-2.07,6-5.14,6.9-9l.53-4A14.94,14.94,0,0,0,426.92,621.86Z" transform="translate(-393.38 -429.56)"/></svg>