<svg xmlns="http://www.w3.org/2000/svg" viewBox="0 0 237.8 237.39"><defs><style>.cls-1{fill:#00a0cb;}.cls-2{fill:red;}.cls-3{fill:#1fe2ff;}</style></defs><g id="Layer_2" data-name="Layer 2"><g id="Layer_1-2" data-name="Layer 1"><path class="cls-1" d="M76.74,12l-47,29.59c-2.83,1.78-5.71,3.62-7.78,6.25-2.51,3.19-3.57,7.26-4.45,11.22-11.36,51-2.83,104.12,5.73,155.69.39,2.33.82,4.77,2.27,6.64,2.62,3.36,7.48,3.71,11.74,3.77q68.29.87,136.57-2.2c8.57-.39,17.25-.84,25.45-3.33s16-7.28,20.5-14.61c3.58-5.88,4.75-12.89,5.37-19.74,3.18-34.71-5.64-69.5-4.57-104.34.37-12.08,1.05-26.3-8.42-33.8-6.86-5.44-16.47-5-25-7.08a42.7,42.7,0,0,1-26.41-19.47c-1.43-2.4-2.7-5-5-6.65-2.68-1.85-6.18-1.89-9.45-1.85l-60.15.66Z"/><path d="M70.69,1.66l-29,18.23L27,29.14c-2.19,1.37-4.41,2.7-6.52,4.18A56,56,0,0,0,15.74,37a30.08,30.08,0,0,0-4.18,4.82C8,46.51,6.58,52.57,5.39,58.24c-1.12,5.32-2,10.67-2.75,16.05A282.24,282.24,0,0,0,0,109.87C-.18,133,2.3,156,5.49,178.81c1.54,11,3.31,22,5.12,33,.43,2.65.8,5.31,1.33,7.94a22,22,0,0,0,5.5,10.71A21.39,21.39,0,0,0,27.19,236a38.51,38.51,0,0,0,9,1.14c11.31.32,22.66.22,34,.21s22.93-.11,34.4-.29q34.4-.54,68.76-2.08c6.41-.29,12.75-.75,19.11-1.64a60.07,60.07,0,0,0,14.39-3.7,54.12,54.12,0,0,0,16.06-9.73,43.47,43.47,0,0,0,6-6.93,39.14,39.14,0,0,0,4.42-8.58c2.28-5.53,3.07-11.5,3.7-17.4.57-5.38.81-10.79.85-16.19.09-11.12-.75-22.23-1.77-33.3s-2.28-22.37-3-33.59c-.36-5.56-.58-11.12-.59-16.69,0-4.68.25-9.37.27-14a78.87,78.87,0,0,0-1.34-15.26,31,31,0,0,0-1.61-5.61,33.11,33.11,0,0,0-3.86-7.68,33.86,33.86,0,0,0-6.83-7.15,34.61,34.61,0,0,0-9.46-5.06c-4.24-1.6-8.8-2.12-13.25-2.8a52.6,52.6,0,0,1-12.57-3.3l2.87,1.21a43.91,43.91,0,0,1-9.53-5.62l2.42,1.87A44.21,44.21,0,0,1,172,16.24l1.87,2.43c-1.88-2.46-3.24-5.19-5-7.74C165.66,6.15,161.38,2.34,155.6,1c-4.4-1-8.85-.88-13.31-.83L130.85.28,107.49.54,95.56.67C92.38.7,89.16.9,86,.76S79.82.27,76.74,0c-2.92-.23-6.47,1.51-8.48,3.52A12.21,12.21,0,0,0,64.74,12a12.15,12.15,0,0,0,3.52,8.49A13.39,13.39,0,0,0,76.74,24l6.72.54c3.7.3,7.39.16,11.1.12l36.79-.41,10.44-.11a64.39,64.39,0,0,1,9.42.17L148,23.9a13.45,13.45,0,0,1,3.1.85l-2.87-1.21a10.61,10.61,0,0,1,1.72,1l-2.43-1.88a12.58,12.58,0,0,1,1.85,1.87l-1.88-2.42a58.2,58.2,0,0,1,3.15,5,64.16,64.16,0,0,0,5.09,7,54.13,54.13,0,0,0,10.64,9.57,54.3,54.3,0,0,0,13,6.58A59.05,59.05,0,0,0,191,52.93c4.52.68,9.09,1.3,13.34,3.08l-2.87-1.21a21.72,21.72,0,0,1,4.31,2.48l-2.42-1.88a20.37,20.37,0,0,1,3.43,3.39l-1.88-2.43a22.15,22.15,0,0,1,2.83,4.9l-1.21-2.86a34,34,0,0,1,2.13,8.37l-.43-3.19c.86,6.66.39,13.36.28,20-.15,8.64.28,17.27.95,25.88,1.33,17.15,3.61,34.24,4.22,51.44a171.36,171.36,0,0,1-1,28.65l.42-3.19a46.6,46.6,0,0,1-3,11.64l1.21-2.87a29.22,29.22,0,0,1-3.68,6.33l1.88-2.43a32.22,32.22,0,0,1-5.4,5.36l2.43-1.88a40.57,40.57,0,0,1-8.65,5l2.87-1.21a59.61,59.61,0,0,1-15.22,3.92l3.19-.43c-9.88,1.29-19.94,1.37-29.89,1.75q-15.45.6-30.9,1-30.9.78-61.81.77-8.73,0-17.45-.07c-5.24,0-10.62.25-15.82-.38l3.19.43a16.27,16.27,0,0,1-4.13-1l2.87,1.21a10.8,10.8,0,0,1-1.78-1l2.43,1.88A8.46,8.46,0,0,1,34,212.92l1.87,2.43a10.41,10.41,0,0,1-1.15-2l1.21,2.87c-1.35-3.53-1.61-7.56-2.22-11.26q-1-6.08-2-12.16c-1.31-8.2-2.55-16.42-3.66-24.65l.43,3.19c-3.25-24.3-5.35-48.86-4.11-73.39.34-6.83.95-13.66,1.85-20.44l-.43,3.19c.61-4.51,1.34-9,2.22-13.46A63.22,63.22,0,0,1,31.19,55L30,57.87a19.57,19.57,0,0,1,2.3-4l-1.87,2.43a20.08,20.08,0,0,1,3.27-3.18L31.25,55c3.79-2.91,8-5.27,12.07-7.81L56.55,38.9,82.8,22.38a12.51,12.51,0,0,0,5.51-7.17A12.25,12.25,0,0,0,87.11,6,12.17,12.17,0,0,0,79.93.45,12.26,12.26,0,0,0,70.69,1.66Z"/><path class="cls-2" d="M123.12,38a39.66,39.66,0,0,1-6.26.1,49.05,49.05,0,0,0-9,.51A22.07,22.07,0,0,0,94.61,46a26.7,26.7,0,0,0-4.32,6.42,35.34,35.34,0,0,0-1.9,4.89,32.33,32.33,0,0,0-.84,5.51,15,15,0,0,0,0,2.42,29.47,29.47,0,0,0,.87,5.57,22.93,22.93,0,0,0,4,7.82,21.77,21.77,0,0,0,6.2,5.57,21,21,0,0,0,6.3,2.55,30.33,30.33,0,0,0,16.4-1.16A80.14,80.14,0,0,0,135,78.9c5.05-3,9.49-7.44,10.59-13.46A23.29,23.29,0,0,0,140,45.2a9,9,0,0,0-.86-.78,21.78,21.78,0,0,0-3.43-2.52,18.18,18.18,0,0,0-5.18-2,25.59,25.59,0,0,0-11.41.44,12.42,12.42,0,0,0-7.17,5.52,12.28,12.28,0,0,0-1.21,9.24c2,6.23,8.27,10.13,14.76,8.39a17.31,17.31,0,0,1,2.23-.46l-3.19.42a12,12,0,0,1,2.61,0L124,63a9.26,9.26,0,0,1,1.81.47l-2.87-1.21a8.68,8.68,0,0,1,1.7,1l-2.43-1.88a8.39,8.39,0,0,1,1.35,1.38l-1.88-2.43a11.28,11.28,0,0,1,1.15,2l-1.21-2.87a13.35,13.35,0,0,1,.84,3.09L122,59.4a11.32,11.32,0,0,1,0,2.85l.43-3.19a9.23,9.23,0,0,1-.57,2L123,58.18a7.94,7.94,0,0,1-.79,1.35l1.88-2.43a9.5,9.5,0,0,1-1.52,1.52L125,56.75A47.38,47.38,0,0,1,119.79,60a63.21,63.21,0,0,1-6.21,3.12l2.86-1.21a27,27,0,0,1-6.35,1.81l3.19-.43a17.37,17.37,0,0,1-4.44,0l3.19.43a12.39,12.39,0,0,1-2.8-.78l2.87,1.21a12.14,12.14,0,0,1-2.36-1.38l2.43,1.88a11.35,11.35,0,0,1-1.81-1.79l1.88,2.43a11.86,11.86,0,0,1-1.4-2.35l1.21,2.87a14,14,0,0,1-.89-3.37l.43,3.19a15,15,0,0,1,0-3.21l-.43,3.19a16.45,16.45,0,0,1,1-3.78l-1.21,2.87A17.12,17.12,0,0,1,113,61.1l-1.87,2.43A14.73,14.73,0,0,1,113.6,61l-2.42,1.87a11.33,11.33,0,0,1,2.21-1.34l-2.87,1.21a14.27,14.27,0,0,1,3.75-1l-3.19.43c4-.45,8,.29,12-.19a9.06,9.06,0,0,0,4.62-1,9,9,0,0,0,3.86-2.48,12,12,0,0,0,0-17c-2.18-2-5.4-3.89-8.48-3.52Z"/><path class="cls-2" d="M97.28,74.79,99,131l1.69,55.93c.15,5.11.24,10.23.49,15.34a69,69,0,0,0,2.55,17.09,12.07,12.07,0,0,0,13.17,8.6,11.48,11.48,0,0,0,6.89-3.3l1.87-2.43a11.93,11.93,0,0,0,1.64-6.06c1.71-18.65,3.67-37.29,4.82-56a392.16,392.16,0,0,0-.78-56.32c-.86-10.48-2-20.93-3.31-31.37l-23.57,3.19c.65,3.18,1.18,6.37,1.62,9.58L105.63,82c3.62,27,.55,54.39,2.69,81.51.69,8.75,2.13,17.41,3.31,26.1l-.43-3.19a141,141,0,0,1,1,28.67c-.21,2.94,1.49,6.46,3.52,8.49a12,12,0,0,0,17,0,13.24,13.24,0,0,0,3.51-8.49,131,131,0,0,0-.14-20.68c-.67-7.78-2-15.48-3-23.22l.43,3.19c-3.57-26.66-.79-53.58-2.65-80.34a191.86,191.86,0,0,0-3.26-24.81,12,12,0,0,0-5.52-7.17,12.33,12.33,0,0,0-7.65-1.42,11.34,11.34,0,0,0-6.89,3.3c-2,2.18-3.89,5.4-3.52,8.48,2.27,18.61,4.21,37.28,4.71,56s-.88,37.57-2.57,56.3q-1.42,15.67-2.87,31.35l23.57-3.19a44,44,0,0,1-1.52-7l.43,3.19c-1.1-8.4-.94-17-1.19-25.48l-.79-26.21-1.59-52.93-.9-29.71a12.5,12.5,0,0,0-3.51-8.48,12,12,0,0,0-20.49,8.48Z"/><path class="cls-3" d="M63.1,34.72C51.9,47.49,52.47,66.43,53.66,83.38a4.49,4.49,0,0,0,.67,2.48c1.16,1.52,3.54,1,5.33.29,16.76-6.55,43.47-37.43,59-46.56,14.86,9.7,22.57,41.92,24,50.21.26,1.5,2.64,1.81,4.15,1.66,2.32-.22,3.62-2.69,4.51-4.84l15.93-38.49a15.52,15.52,0,0,0,1.58-5.92c0-3.75-2.62-6.91-5.09-9.72C159,27,153.93,21.41,147.22,18.63a40.92,40.92,0,0,0-10.57-2.43A142.32,142.32,0,0,0,65.8,25.48"/></g></g></svg>