<svg id="Layer_1" data-name="Layer 1" xmlns="http://www.w3.org/2000/svg" viewBox="0 0 380.22 234.36"><defs><style>.cls-1{fill:none;stroke:#000;stroke-miterlimit:10;}.cls-2{fill:#ff0300;}.cls-3{fill:#fff;}</style></defs><path class="cls-1" d="M947,330.33" transform="translate(-673.68 -426.87)"/><path class="cls-2" d="M981,445.67c-94.47-5.8-175.13-3.19-269.78-3.41-2.35,0-4.8,0-6.92,1-2.81,1.37-4.62,4.35-5.84,7a34.21,34.21,0,0,0-2.7,9.4,728.5,728.5,0,0,0-3.59,172.46c.26,2.62.56,5.33,1.87,7.62,3.33,5.84,11.34,6.49,18.05,6.45l293.83-2c7.05,0,14.54-.21,20.46-4,9-5.83,11.32-17.89,12-28.62,1-16.08.31-32.23-.18-48.33q-.84-24.6-1.59-49.21c-.63-19.55-1.11-39.19-4.21-58.51-.26-1.66-.61-3.43-1.8-4.6s-3.35-1.55-5.21-1.71L1005,447.52Z" transform="translate(-673.68 -426.87)"/><path d="M981,430.67c-74.65-4.54-149.39-3.82-224.13-3.48q-14,.06-27.94.08c-10.11,0-23.06-2-32.2,3.08-8.47,4.75-13.38,14.54-15.17,23.78-2,10.15-2.83,20.68-3.91,30.95a728.35,728.35,0,0,0-2.82,116.75c.55,9.81,1.28,19.61,2.25,29.38,1.07,10.82,4.17,20.92,14.65,26.09,8.29,4.09,17.35,4,26.36,3.92l30-.2L868,660.23l118.93-.79c18.1-.12,40.71,2.78,54.19-12.12,12.41-13.73,12.64-33.65,12.77-51.11.14-19.49-.91-39-1.53-58.47-.61-19.27-.87-38.6-2.25-57.84-.7-9.78-.9-20.72-3.63-30.15a20.42,20.42,0,0,0-11.21-13.25c-5.09-2.3-10.87-2.29-16.36-2.77q-14.62-1.28-29.27-2.4l-8.64-.66c-7.84-.61-15.34,7.33-15,15,.39,8.64,6.6,14.35,15,15l18.08,1.39,5.93.46c3.71.3,7.42.65,11.12,1l6.48.57,2.78.24A12.55,12.55,0,0,1,1023,464l-5.38-5.38c.79,1,.25,1,.4.37.25-1.1-.08,0-.11.64a23.41,23.41,0,0,0,.57,3.76c.56,4.2,1,8.43,1.3,12.65.67,8.13,1.05,16.28,1.35,24.43.6,16.37,1.05,32.75,1.58,49.12s1.38,33,1.12,49.56c-.06,3.86-.19,7.73-.42,11.59-.1,1.5-.22,3-.35,4.5-.15,1.77.06-.13.1-.42-.14,1-.3,1.9-.49,2.85-.28,1.4-.6,2.8-1,4.17-.23.82-1.51,3.83-.45,1.66a29,29,0,0,1-2,3.55c1.66-2.44-1.89,1.43-.81.66,1.34-1-.91.45-1,.47.32-.13,1.53-.55-.12,0-.76.27-1.54.44-2.32.64,0,0-2.53.44-1.22.26-1.72.23-6.85.25-9.84.27l-25,.16-50,.33L828,630.49l-99.94.66-13,.09c-1.68,0-3.36,0-5.05,0-1,0-4.92-.58-2.26,0-.66-.14-1.33-.32-2-.45-2-.39.62.16.49.37-.24.38-1.85-1.72-.59-.25a12,12,0,0,0,1.3,1.35c1.59.58-1.33.52.2-.11,0,0-.22-1.43,0,.06-.31-2.26-.43-4.57-.64-6.85q-2.17-24.47-2.68-49a728.38,728.38,0,0,1,4.55-98.06c.77-6.66,1.18-15.33,3.17-20.62A27.06,27.06,0,0,0,713,455c.62-1.54.1.25-.25.42a22.87,22.87,0,0,1-3,1.79c.41.7,9.56.06,11.41.06q24,0,48.1-.15c62.45-.33,124.92-.78,187.32,2.2q12.26.59,24.48,1.34c7.85.47,15.35-7.24,15-15C995.62,437.13,989.41,431.18,981,430.67Z" transform="translate(-673.68 -426.87)"/><path class="cls-3" d="M813.53,502.43c.64,37.56-1.06,57.63.32,92.32a5.44,5.44,0,0,0,8.36,4.38,597.57,597.57,0,0,1,109.89-55c4.82-1.82,4.49-8.19-.23-10.26-31.22-13.71-50.52-21.33-65-28.29-15.78-7.55-30.06-18.15-46-25.15a5.44,5.44,0,0,0-7.6,5.11Z" transform="translate(-673.68 -426.87)"/></svg>