<svg id="Layer_1" data-name="Layer 1" xmlns="http://www.w3.org/2000/svg" viewBox="0 0 271.7 242.35"><defs><style>.cls-1{fill:#ffca00;}.cls-2{fill:#333;}.cls-3{fill:#ff0300;}</style></defs><path class="cls-1" d="M882.07,442.36c-10.5-1-20.93,3.71-28.89,10.74s-13.78,16.17-19.13,25.4a400.83,400.83,0,0,0-37,85.63c-1.56,5.21-3,10.72-1.86,16,1.23,5.61,5.2,10.12,9,14.36,11.33,12.56,22.66,25.12,34.41,37.27,11.17,11.54,23.3,23.08,38.53,27.81,8.6,2.67,17.73,3,26.7,2.56,20.68-1,41.35-6.1,59.42-16.36s33.46-25.87,42.14-45c9.8-21.56,10.7-46.35,7.33-69.86-4-28.16-15.93-57.78-40.71-71-7.08-3.79-14.85-6-22.59-8.12-16.66-4.52-33.93-8.53-51-6.23" transform="translate(-764.67 -430.71)"/><path d="M1012.4,499.89a1.55,1.55,0,0,1-.31,1c-.82,1.84-2.71,3.72-4.74,3.92a5.49,5.49,0,0,1-3.27-.81,13.11,13.11,0,0,1-1.74-1.24c-.3-.25-.58-.52-.9-.8s-.66-.58-1-.9a2.55,2.55,0,0,1-.49-.72,22.24,22.24,0,0,0-2-7.85,36.73,36.73,0,0,0-4.66-7.66,56.94,56.94,0,0,0-6.68-7.28l-3.81-3.43-4-3.24a109.08,109.08,0,0,0-56.3-22.07,102.86,102.86,0,0,0-40.11,4.38,111.14,111.14,0,0,0-35.72,19.37A105.49,105.49,0,0,0,832,487c-2.18,2.65-4.33,5.33-6.29,8.23s-3.84,5.8-5.61,8.82a202.38,202.38,0,0,0-9.58,19,134,134,0,0,0-7.31,19.65,63.73,63.73,0,0,0-1.78,9.8,48.67,48.67,0,0,0,.11,9.73,89.36,89.36,0,0,0,5,19.89c4.82,13.45,10.72,26.44,18.79,37.55a98.35,98.35,0,0,0,6.46,7.9,79.57,79.57,0,0,0,7.27,7,81.67,81.67,0,0,0,8.11,5.93,87.18,87.18,0,0,0,8.81,4.89,98.52,98.52,0,0,0,9.35,3.88c3.2,1.11,6.44,2.06,9.74,2.9a99.64,99.64,0,0,0,10,1.92q5.06.75,10.19,1c13.68.84,27.58-.48,41.37-2.93a158.48,158.48,0,0,0,20.17-4.78c3.28-1,6.43-2.21,9.54-3.49l2.29-1c.77-.34,1.52-.69,2.25-1.09l2.21-1.14,2.13-1.26,1.07-.63,1-.68,2-1.36,1.92-1.5,1-.74.9-.8,1.81-1.61,1.67-1.72c.27-.3.57-.56.83-.87l.76-.92c.5-.62,1-1.21,1.51-1.85,3.85-5,6.47-11.08,8.46-17.68,1-3.3,1.82-6.72,2.59-10.23s1.53-7.21,2.26-10.72a203.73,203.73,0,0,0,3.52-21.13c.11-.87.16-1.73.23-2.59l.14-1.89v-2.18c0-1,.06-1.95,0-2.92,0-1.94-.09-3.89-.17-5.84v-3.08c0-1-.06-2.13-.1-3.45s-.14-2.8-.25-4.39c-.21-3.17-.56-6.79-1-10.47l-.07-.69v-.34a4.72,4.72,0,0,0-.08-.62l-.06-1.44c0-.94-.07-1.88-.1-2.81-.06-1.85-.1-3.66-.12-5.38-.81-23.33,3.28-14.6,6.87-.63a28.2,28.2,0,0,1,1.17,4.6l.56,2.51c.1.46.2.92.31,1.39a1.42,1.42,0,0,0,.07.32v.07l.21.74c.54,2,1.17,4.11,1.69,6.34,1.14,4.36,2,8.92,2.58,12.35.24,1.76.44,3.22.59,4.24a14.07,14.07,0,0,1,.16,1.64c.13,2.17.12,4.37.12,6.56l-.11,3.27v.83l-.12,1.73c-.08,1-.13,1.92-.24,2.87-.37,3.82-.91,7.56-1.53,11.25-1.27,7.37-2.8,14.41-4.31,21.62a114.34,114.34,0,0,1-6.63,22,58.5,58.5,0,0,1-2.67,5.38,45.15,45.15,0,0,1-3.26,5.15,55.67,55.67,0,0,1-3.74,4.77c-.64.78-1.38,1.46-2.06,2.19a20.75,20.75,0,0,1-2.14,2.06l-2.22,2c-.75.66-1.55,1.21-2.32,1.83-1.53,1.24-3.17,2.27-4.78,3.37a82.64,82.64,0,0,1-10.1,5.46,117.88,117.88,0,0,1-21.11,7.21c-3.55.89-7.12,1.64-10.68,2.32s-7.1,1.25-10.68,1.78c-14.3,2.06-29,2.85-43.7,1.14a111.56,111.56,0,0,1-42.45-13.49,97.37,97.37,0,0,1-9.55-6.26,92.62,92.62,0,0,1-8.74-7.47,104.09,104.09,0,0,1-14.28-17.8c-2.07-3.18-4-6.46-5.75-9.78s-3.4-6.7-4.94-10.11-2.94-6.87-4.29-10.3-2.59-7-3.75-10.57a83.59,83.59,0,0,1-4.34-23.1,64.52,64.52,0,0,1,.91-12.1,87.16,87.16,0,0,1,2.81-11.41c1.17-3.68,2.51-7.21,3.93-10.69s2.91-6.8,4.46-10.16a190.19,190.19,0,0,1,10.48-19.76c2-3.2,4.07-6.34,6.31-9.39,1.13-1.51,2.33-3,3.49-4.48.58-.75,1.19-1.47,1.82-2.17l1.87-2.13A121.77,121.77,0,0,1,881,440.42a113.55,113.55,0,0,1,21.89-4.25,116.68,116.68,0,0,1,22.27.15,119,119,0,0,1,42.51,12.6,120.7,120.7,0,0,1,19,12l4.39,3.55,4.2,3.79a70.53,70.53,0,0,1,7.9,8.66,49.18,49.18,0,0,1,6.23,10.29A35.2,35.2,0,0,1,1012.4,499.89Z" transform="translate(-764.67 -430.71)"/><path d="M1007.58,498.56c-.52,1.73-1.73.73-2.6-.12,0,0-.47-1.8-.66-2.64a32.05,32.05,0,0,0-3.26-8.22,54.77,54.77,0,0,0-11.29-13.89,116.22,116.22,0,0,0-19.09-14.3,112,112,0,0,0-77.06-14.12c-25.69,4.71-49.81,19.3-66.28,39.52-8.44,10.37-14.93,22-20.45,34.12-5.37,11.79-10.57,24.34-10.69,37.5-.12,13.8,5.16,27.35,10.51,39.86,5.17,12.11,11.64,23.66,20.38,33.58,17.17,19.49,42.7,28.72,68.13,30.24,14.31.86,28.62-.64,42.7-3.11,11.77-2.07,23.54-5.1,34.34-10.32,11.45-5.55,21-13.73,26.64-25.7,6.47-13.79,9.1-30,11.38-45a158.63,158.63,0,0,0,1.25-32.38c-.57-11-2.06-21.67-1.69-32.71,0-.74.07-1.49.11-2.23s-.12-1.75.06-1.3l-6.62.91c-.38-.49-.39-.45,0,.11a13.74,13.74,0,0,0,.89,2.07c1.44,3.71,1.57,9.79,5.06,12.1l-2.3-3c.48,1.63.83,3.3,1.2,4.95.13.56,1.21,4.87.67,2.57,1.16,5,2.56,9.92,3.58,14.94a84.58,84.58,0,0,1,1.63,21.47c-.59,12-3.51,24-6,35.7-2.31,11-5.45,22.11-12.05,31.34-12.81,17.91-35.51,25-56.17,28.88-25.08,4.77-51.69,5.89-76.14-2.51-23.93-8.22-41.6-24.88-53.36-47.07s-21-47.21-13.59-72.13c13.24-44.27,44.89-82.66,90.94-94,27.65-6.77,57.3-2,82,11.92,16.1,9.09,36.24,24.3,37.68,44.2.47,6.38,10.47,6.43,10,0-1.46-20.26-16.62-35.25-32.39-46.36a125.22,125.22,0,0,0-76.55-22.72c-25.59,1.05-50.47,10.64-70.63,26.32-20,15.52-33.46,36.36-43.57,59.32-5.38,12.21-10,24.9-10.49,38.38-.5,13.87,3.85,27.47,8.92,40.19,10.1,25.34,24.84,49.23,49.17,63,24.66,14,53.39,17,81.18,14,25-2.74,51.92-8.21,71.48-25.08,9.68-8.35,15.73-19.3,19.66-31.33,4.79-14.65,7.68-30.71,9.39-46a93.9,93.9,0,0,0-1.16-28.63q-.95-4.91-2.21-9.74c-.41-1.57-.87-3.13-1.28-4.69-.17-.67-.18-.49,0,.52a10.14,10.14,0,0,0-.24-1.64c-.84-3.71-.94-9.24-4.34-11.5l2.3,3c-1.27-4.87-2.84-15.62-8.8-17.29-8.61-2.4-8,10.94-8,15.65.23,18.27,3.69,36.66,1.28,54.89-1.8,13.54-4.35,27.88-8.85,40.8a44.07,44.07,0,0,1-13.12,19.59,57.66,57.66,0,0,1-11.91,7.5c-10.84,5.25-23,7.84-34.77,9.8-26.5,4.4-55.22,4.09-79.18-9.51C829.82,625,816.16,598.9,809,573.72c-4-14-2.73-26.18,2.28-39.66A167.75,167.75,0,0,1,830,497.76a104.28,104.28,0,0,1,64.48-42.5c28.27-5.68,58.72,2,81.42,19.69,7.35,5.71,15.62,12.81,18.39,21.94,1.08,3.58.76,5.93,3.63,8.62a15.53,15.53,0,0,0,6.42,4c6,1.54,11.24-2.79,12.9-8.3C1019.09,495,1009.44,492.4,1007.58,498.56Z" transform="translate(-764.67 -430.71)"/><path class="cls-2" d="M879.35,513.45a395.32,395.32,0,0,0-58.2-.25,1.47,1.47,0,0,0-1.68,1.27,1.5,1.5,0,0,0,.22,1q3.28,15,6.59,30.08c.83,3.81,1.74,7.77,4.18,10.75,3.26,4,8.57,5.39,13.57,6.18a98.53,98.53,0,0,0,20.3,1.14c3.41-.17,7-.56,9.82-2.45,4.11-2.74,5.9-8,6.94-12.89a80.74,80.74,0,0,0,1-27.12Z" transform="translate(-764.67 -430.71)"/><path class="cls-3" d="M879.35,508.45A402.63,402.63,0,0,0,826,507.9c-3,.17-7.07-.22-9.47,2-2.67,2.51-1.92,5.66-1.24,8.79q2.85,13.15,5.76,26.32c1.55,7.05,3.35,13.9,9.7,18.14,6.16,4.11,14.38,4.77,21.56,5.31,7,.52,15.22,1.09,21.79-1.68s9.85-9.08,11.48-15.68a81.43,81.43,0,0,0,1.92-26.31c-.4-4.62-1.79-8.37-3.32-12.71-2.13-6-11.79-3.43-9.64,2.66.78,2.22,1.71,4.44,2.37,6.71,1.2,4.18,1,9,.83,13.32-.2,5.53-.77,11.39-2.65,16.63-2.2,6.17-6.58,7.12-12.6,7.3-9.18.26-26.65,1.25-30.16-9.58-3.73-11.52-5.58-24.16-8-36l-.5,3.85.58-1-3,2.3c4.73-1.19,10.43-.73,15.28-.87q6.8-.21,13.59-.18c9.71,0,19.41.47,29.1,1.2C885.77,518.93,885.73,508.93,879.35,508.45Z" transform="translate(-764.67 -430.71)"/><path d="M877.65,506.74a1.11,1.11,0,0,1,.83.37c2.79,2,6.43,6.93-.64,12a3.17,3.17,0,0,1-1,.45q-10.51-.67-21-.83-7.38-.12-14.76,0c-2.45,0-4.92.12-7.38.22l-6.21.28h0l.38,1.72,3.3,14.53,1.63,7.26a59.56,59.56,0,0,0,1.68,6.43,11.57,11.57,0,0,0,1,2.19,5.9,5.9,0,0,0,1.21,1.47,11.5,11.5,0,0,0,4.21,2.21,38.66,38.66,0,0,0,6.22,1.32q3.48.51,7,.77t7,.27c1.17,0,2.34,0,3.51-.05s2.34-.09,3.36-.19a14.24,14.24,0,0,0,4-.81,5.48,5.48,0,0,0,2.18-1.53l.35-.35a9.63,9.63,0,0,0,.94-1.17,23.12,23.12,0,0,0,2.71-6,81.42,81.42,0,0,0,2.48-9.81A98.36,98.36,0,0,0,882,527c.08-1.4.13-2.69.17-3.86v-1.4a13,13,0,0,0-.22-1.34,37,37,0,0,1-.58-4.58c-.12-2.27.32-3,1.11-2.66s2,1.83,3.32,4c.33.55.7,1.14,1,1.78l.27.48c.09.17.24.48.36.72a2.64,2.64,0,0,1,.27.82c.07.27.14.6.19.77a52.17,52.17,0,0,1,1.13,5.25,24.68,24.68,0,0,1,.64,5,77.32,77.32,0,0,1-.17,12.64,58.7,58.7,0,0,1-1,7,33,33,0,0,1-2,6.59,22.41,22.41,0,0,1-2.83,4.82c-.35.45-.73.88-1.12,1.29l-.43.44a18.56,18.56,0,0,1-6.67,3.91A28.61,28.61,0,0,1,869,570c-1.48.13-2.82.18-4.14.24s-2.66.06-4,0c-2.66,0-5.31-.11-8-.3s-5.28-.49-7.9-.87a51,51,0,0,1-8.37-1.81,24.22,24.22,0,0,1-8.86-4.88,19.34,19.34,0,0,1-3.56-4.25,24.84,24.84,0,0,1-2.16-4.54,66.15,66.15,0,0,1-2.07-8l-1.65-7.21L815,523.9l-1.25-5.55a15.87,15.87,0,0,1-.59-3.55,8.23,8.23,0,0,1,.47-2.87,7.28,7.28,0,0,1,.6-1.26,8,8,0,0,1,.93-1.24,9,9,0,0,1,1-.92c.11-.05.16-.14.29-.18l.4-.09.81-.2,3.2-.77,1.59-.39.41-.09h.46l.94-.06,4.9-.26,3.8-.17c2.53-.09,5.07-.17,7.61-.22q7.61-.16,15.21,0Q866.82,506.05,877.65,506.74Z" transform="translate(-764.67 -430.71)"/><path d="M875.12,511.05c.6.27,1.87.95,1.82,1.83-.13,2.55-4.49,1.38-5.87,1.31q-9.48-.48-19-.54c-8.23-.07-16.44.16-24.66.54a5.09,5.09,0,0,0-4.83,6.33c1.25,5.6,2.54,11.19,3.81,16.79.86,3.83,1.54,7.8,2.7,11.56,2.11,6.86,6.52,10.26,13.52,11.74a91.48,91.48,0,0,0,22.88,1.66c5.88-.27,10.8-1.42,14.25-6.49,4.22-6.21,5.52-14.92,6.53-22.21a72.51,72.51,0,0,0,.9-10.4c0-.95-.08-1.78-.18-2.73-.16-1.41.14-5.54-1.5-3.77L882,518.14c-2.83-.3.18,2.34.76,3.74a31.4,31.4,0,0,1,1.52,6.49c.39,2.22,2.76,3.56,4.82,3.67h0l-4.82-3.67c1.71,7.77.92,17.72-1.42,25.27-2.63,8.52-8.85,11.18-17.37,11.53-8.94.36-19,.18-27.53-2.72-9-3.05-11.39-10.11-13.29-18.68-1.54-7-3.17-13.93-4.75-20.89l-.9-4a23.72,23.72,0,0,1-.63-3c-.12-1.65-.38-2.54.25-2.95,1-.65,2.83-.65,4-1,.82-.22,2-.38.49-.2.54-.06,1.11-.07,1.66-.09,17.62-.67,35.21-1,52.84,0,6.42.39,6.4-9.61,0-10-17.93-1.09-36.34-1.54-54.27.05-3,.27-7,.86-9.68,2.4-7.75,4.47-5.11,13.89-3.53,20.85,2,8.63,3.68,17.37,5.9,25.93,2.7,10.37,8.88,17.77,19.23,21.12,10,3.25,21.84,3.67,32.23,3,10.75-.72,19.61-5.28,23.8-15.53,4.07-9.95,4.9-23.34,2.59-33.83A5.09,5.09,0,0,0,889.1,522h0l4.82,3.67c-1-5.7-2.8-11.48-7.21-15.58-5-4.69-10.38-.15-10.3,5.72,0,2.88.85,5.63.76,8.53a76.14,76.14,0,0,1-1.67,13.37c-.8,3.81-1.6,8.13-3.52,11.56-1.68,3-4,2.88-7.32,3a97.1,97.1,0,0,1-12.3-.37c-3.29-.3-9.07-.3-11.85-2.54-3-2.39-3.44-10.33-4.31-14.16-1.31-5.79-2.64-11.58-3.93-17.38l-4.82,6.33c14.23-.66,28.46-.74,42.7,0,4.15.2,7.73,1,11.26-1.54a13.27,13.27,0,0,0,5.29-7.43c1.17-4.95-1.9-10.7-6.5-12.76C874.34,499.82,869.25,508.43,875.12,511.05Z" transform="translate(-764.67 -430.71)"/><path class="cls-2" d="M945.35,512.65c-24.11-1.51-8.72-1-32.84.27-.55,0-10.77.69-11.17,1-.6.47,2.71,12.91,2.89,13.57,2.74,10,2.3,8.41,5,18.44,1,3.81,2.17,7.76,5.21,10.75,4.06,4,10.67,5.39,16.9,6.18A154.74,154.74,0,0,0,956.62,564c4.24-.17,8.65-.56,12.21-2.45,5.13-2.74,7.35-8,8.65-12.89a64.79,64.79,0,0,0,1.25-27.12Z" transform="translate(-764.67 -430.71)"/><path class="cls-3" d="M945.35,507.65c-5.26-.33-10.61-1-15.88-.93-3.94.07-7.9.65-11.83.9-5.4.35-11.18.19-16.5,1.29-6,1.24-4.93,6.6-3.92,11.16,1.15,5.21,2.61,10.34,4,15.48,1.79,6.59,2.88,14,6.16,20,4.39,8.07,13.16,10.86,21.71,12.07,10.31,1.45,21.11,2.24,31.5,1.17,10-1,17.08-5.81,20.63-15.37,3.88-10.47,4-22.25,2.31-33.15a4.91,4.91,0,0,0-3.49-3.49l-33.38-8.93c-6.23-1.66-8.88,8-2.66,9.65l33.38,8.92-3.49-3.49a59.9,59.9,0,0,1-.42,20.9c-1.15,5.63-2.78,12-8.81,14.12s-13.53,1.34-19.75,1.1c-6.89-.27-14.14-.63-20.78-2.62-10.35-3.1-10.94-15-13.41-24-.88-3.25-1.79-6.5-2.62-9.77-.44-1.73-.87-3.46-1.26-5.21a12.93,12.93,0,0,0-.53-2.56c-.44-.86.29-.73-.17.43l-3.49,3.5c2.45-.9,6.4-.66,9.22-.83,4.58-.27,9.16-.52,13.73-.94,6.58-.6,13.15.22,19.73.64C951.77,518.05,951.75,508.05,945.35,507.65Z" transform="translate(-764.67 -430.71)"/><path d="M941.38,506a1,1,0,0,1,.78.37c2.61,2,43.44,10.14,36.57,15.22-.31.21-37.78-2.9-38.13-2.81l-5.16-.34c-1.69-.11-3.47-.25-5-.31h-1.92l-2.46.23c-1.75.16-3.51.3-5.26.43l-9.85.63-2.33.16h0l.78,3.09.62,2.4.65,2.39,1.33,4.88,2.65,9.76c.45,1.63.88,3.28,1.3,4.63a17.52,17.52,0,0,0,1.39,3.42,7.54,7.54,0,0,0,1.75,2.17,10.88,10.88,0,0,0,2.72,1.67,31.69,31.69,0,0,0,7.93,2.15c1.47.24,3,.43,4.6.61s3.14.34,4.71.46c3.14.26,6.29.4,9.44.47s6.35,0,9.41-.16a22.44,22.44,0,0,0,7.51-1.39,8.72,8.72,0,0,0,4.18-4,29.37,29.37,0,0,0,2.56-7.78l.11-.55.1-.49.13-.69.24-1.39c.14-.92.27-1.85.37-2.78.2-1.86.32-3.73.34-5.61,0,0,.11-1,.2-2.93,0-.92.06-2.06,0-3.28a4,4,0,0,0,.28-.75,1.37,1.37,0,0,0-.24-.29c-.19-.14,0-.17-1.08-.55l-5.09-1.94c-3.42-1.32-6.87-2.7-10-4-21.13-8.46-11.73-8.87,2.15-6.74-.67-.32,7.56,1.24,16,2.9l.48.1.72.17,1.44.33c1,.21,1.93.44,2.88.69l1.44.36.71.18h.18v.17l.07.36c.18,1,.36,1.91.53,2.85s.34,1.89.5,2.81c.08.47.16.93.22,1.4l.09.71.06.39c.14,1,.28,2.06.36,2.93.2,1.83.27,3.36.32,4.44a14.91,14.91,0,0,1,0,1.7c-.09,2.25-.28,4.5-.58,6.73-.14,1.13-.33,2.24-.52,3.35l-.41,2.06c-.19.89-.39,1.78-.62,2.66a32.69,32.69,0,0,1-4.86,11.28,20.71,20.71,0,0,1-4.92,4.92,21,21,0,0,1-6.09,3,42.56,42.56,0,0,1-11.15,1.56q-5,.18-10.06,0c-3.38-.13-6.71-.32-10-.59s-6.61-.67-10.14-1.3a38.17,38.17,0,0,1-11-3.5,21.38,21.38,0,0,1-5.48-4,21.12,21.12,0,0,1-4-5.72,34.72,34.72,0,0,1-2.12-5.69c-.52-1.78-.91-3.29-1.36-4.91L899.73,535l-1.3-4.8-.67-2.46-.63-2.46-.61-2.47-.5-2.12-.53-2.42a20.27,20.27,0,0,1-.57-4.65,5.91,5.91,0,0,1,.12-1,1.88,1.88,0,0,1,.1-.47l.2-.4c.3-.51.61-.94.93-1.41l.12-.2v0c-.09-.09.26.15-.2-.22l.07-.1c.08-.12.17-.21.25-.31a4.54,4.54,0,0,1,.58-.58,2.45,2.45,0,0,1,.76-.46l.86-.42a6.87,6.87,0,0,1,.92-.39l1-.3a5.42,5.42,0,0,1,1.14-.18L903,507l2.4-.21,2.29-.18,2.45-.17,9.63-.62c1.69-.12,3.35-.26,5-.41l2.68-.24a31.6,31.6,0,0,1,3.23-.06c2,.07,3.6.21,5.35.32Z" transform="translate(-764.67 -430.71)"/><path d="M938.85,510.29c6.33,3,13.39,4.31,20.1,6.23a115.76,115.76,0,0,1,12.6,4.1c.92.39,2.66,1.78,3.57,1.81s-.49.15-.47-1.06l.41-1.79c-.16-1.5.49-2.3,2-2.39,3.38-2.45,1.67-.21,1.12-.62-1.41-1.07-7.19-.49-8.92-.62l-14-1.09q-9.29-.74-18.58-1.36c-9.36-.62-18.69.4-28,1.06a5.07,5.07,0,0,0-4.82,6.33c1.64,6.5,3.43,13,5.19,19.43,1.56,5.75,2.56,12.5,7.57,16.3,6.32,4.79,15.82,5.08,23.43,5.64,8.31.62,18.79,1.81,26.75-1.33,6.6-2.61,9.11-9.48,10.36-16a103.46,103.46,0,0,0,1.54-15.1c.13-2.84.77-5.78-1.53-8-1.48-1.4-3.84-2-5.73-2.71-3.39-1.29-6.78-2.61-10.14-4-3.71-1.53-7.45-3.84-11.22-5.1-11-3.68-.27-.32-.66-.38-2.19-.37-3.92,5.6-1.91,6.52a16.22,16.22,0,0,1,2,0,67.68,67.68,0,0,1,8.86.9c3.11.46,6.38-1.26,6.33-4.82v0l-5,5c-1.26-.1,2.26.39,2.57.44l4.62.87c2.71.52,5.44,1,8.14,1.59s5.7,1.87,8.52,1.87l-5-5c0,3.39,1.26,6.84,1.67,10.22a54.9,54.9,0,0,1-.72,17.67c-1.28,6.37-3.29,13.2-9,17-6.48,4.36-15.75,3.63-23.22,3.4-13.67-.4-33.14-.14-38.32-15.66-2.25-6.71-3.81-13.72-5.67-20.55-.78-2.88-1.53-5.76-2.21-8.66-.41-1.74-.75-3.49-1.1-5.24,0,0,0-2.55-.25-1.15-.2,1.11.69-.86.84-1.2a6.26,6.26,0,0,0,.81-2.77l-3.67,4.82h0c3.58-.84,4.94-5.87,2.2-8.36l-.24-.22.78,6.06c-.81,1.08.93-.12,1.86-.33a30.18,30.18,0,0,1,4.14-.37c3.12-.24,6.24-.43,9.37-.63,8.64-.56,16.85-1,25.51-.09,6.39.64,6.35-9.36,0-10-9.88-1-19.33-.31-29.19.32-7,.45-15.66-.12-20.32,6.05-1.27,1.68-.71,4.7.78,6.06l.24.22,2.21-8.36h0a5.06,5.06,0,0,0-3.67,4.82c0-2.43.73-3-.37-.86-.07.13-.14.26-.2.4a9.61,9.61,0,0,0-.84,3.5,30.83,30.83,0,0,0,1.17,8.73c.71,3.12,1.51,6.22,2.35,9.32,2.33,8.55,4,17.82,7.7,25.87,7.44,16.11,27.22,17.4,42.73,18.14,8.67.41,18.4.94,26.66-2.18,7.7-2.91,12.9-8.93,15.95-16.44a63.31,63.31,0,0,0,4.14-22.24,52.64,52.64,0,0,0-.42-6.4c-.06-.5-.71-5.25-.39-3-.21-1.49-.43-3-.69-4.48-.16-.94-.33-1.89-.51-2.83-.14-.67-.16-2.79-.16-.63a5.07,5.07,0,0,0-5-5c1.76,0-.13-.12-.63-.27-1.06-.32-2.17-.53-3.25-.79l-2.52-.57c-5.69-1.2-11.64-2.73-17.45-3.14-2.67-.2-5,2.44-5,5v0l6.33-4.83c-4.87-.72-10.58-2-15.5-1-4.68,1-7.06,5.74-3.76,9.71,3.63,4.37,11,6.27,16,8.33q4.85,2,9.73,3.87a13.71,13.71,0,0,0,3.13,1.19c1.63.13-.78-.86-.25-.2l-1.28-4.86c-1.68,4.42-.5,10.8-1.23,15.53a35.3,35.3,0,0,1-1.82,7.69c-2.57,6.49-11.74,5-17.56,4.92-6.57-.12-13.41-.4-19.85-1.8-3.69-.79-6.56-1.65-7.87-5.48-.59-1.73-1-3.53-1.48-5.29-.79-2.89-1.57-5.79-2.36-8.68-1.19-4.39-2.38-8.77-3.49-13.17l-4.82,6.32c9.2-.65,18.42-1.7,27.62-1.09,7.32.49,14.64,1,22,1.62,5.14.4,10.27.81,15.41,1.18,3,.22,6.33,1,8.81-1.28,8.28-7.59-6.65-13.56-11.76-15.31-5.5-1.9-11.12-3.4-16.73-4.93-2.22-.61-4.44-1.2-6.65-1.85-.83-.25-1.67-.49-2.48-.79s1.14.51-.89-.45C938.12,498.91,933,507.53,938.85,510.29Z" transform="translate(-764.67 -430.71)"/><path d="M906.28,531.72l.1.32a34.21,34.21,0,0,1-.41,12,2.91,2.91,0,0,1-.16.5L889,543.83a18.75,18.75,0,0,1-4.49-3.44c-3.12-2.85-1.73-5.63.32-7.07-.2-.29,4.86-2.24,4.86-2.24Z" transform="translate(-764.67 -430.71)"/><path d="M901.46,533.05c.88,2.82.41,7.35-.47,10.14l4.82-3.67-11-.45a30.64,30.64,0,0,1-5.34-.22c-.13,0-.32,0-.44,0,2.68,1-.08-1.19-.5-1.48-1-.73-.79.29-.56-.2a2.49,2.49,0,0,0,.75-.8c.82-1,.49-.7-1,.94,0,0,2-.85,2.15-1,1.51-.85-.2-.24.12-.23l5,.19,11.26.43c6.43.25,6.42-9.75,0-10-9-.34-22.74-3.15-27.61,6.19-4,7.67,5,15.7,12.17,16l15,.61a5.09,5.09,0,0,0,4.82-3.67c1.4-4.42,1.87-11,.47-15.46C909.18,524.27,899.52,526.89,901.46,533.05Z" transform="translate(-764.67 -430.71)"/><path d="M986.24,528.54c-.08,0-.1.07-.37-.12a15,15,0,0,1-3.41-3.19,15.64,15.64,0,0,1-3.12-6.73,1.57,1.57,0,0,1,0-.61l1.56-1c1-.6,2.29-1.48,3.93-2.42a87.42,87.42,0,0,1,12.31-6,91.28,91.28,0,0,1,12.87-4.11c3.59-.82,6-1.18,6-1.18h1.09c.68.06,1.64.17,2.73.31a31.07,31.07,0,0,1,7.18,1.9c3.72,1.25,4.72,2.68,4.34,3.91s-2.14,2.31-4.2,3.17c.22.13-2.26.82-4.71,1.65-1.22.42-2.44.87-3.36,1.19l-1.51.6-1.42.25c-.9.19-2.18.43-3.71.8a78.61,78.61,0,0,0-11,3.51A77.8,77.8,0,0,0,991,525.6c-1.39.81-2.52,1.55-3.34,2.06Z" transform="translate(-764.67 -430.71)"/><path d="M986.24,523.54q3.42,1.43,1.47,0a8.42,8.42,0,0,1-1.81-2,7.48,7.48,0,0,1-1.56-3.6l-2.48,4.31a93.07,93.07,0,0,1,23.78-11.47c3.63-1.12,7.68-2.53,11.5-2.71-1.38.06,3.34.62,4.1.8s2.75,1.18,3.56,1.05c1,.68,1.34.33,1.09-1.05q1-2.47-1.27-.69c-2.89.23-5.77,2.21-8.57,3-3.21.87-6.51,1.34-9.72,2.32a91.35,91.35,0,0,0-22.62,10.8c-5.38,3.49-.38,12.15,5,8.64a81.32,81.32,0,0,1,17.88-9c5.06-1.74,10.32-2.5,15.33-4.29s13.88-3.5,14.38-10.27S1028.12,500,1023,499c-12.65-2.59-26.75,3.64-37.69,9.48-4.55,2.43-11.74,5.23-10.78,11.39.69,4.49,6.06,14.29,11.72,13.71C992.58,532.9,992.64,522.89,986.24,523.54Z" transform="translate(-764.67 -430.71)"/><path d="M880.67,603.38c-.14,0-.19,0-.34-.35-1.08-1.89-2.33-6.57,1.22-11.57A1.91,1.91,0,0,1,882,591c.18,0,3.58.41,8.58.89s11.61,1,18.21,1.4,13.18.64,18.11.75,8.22.12,8.22.12,2.13.33,5,.88,6.55,1.29,9.59,2.17c10.32,2.35,6.38,5.23,0,6.88.34.12-3.5.8-7.44,1.38l-5.46.76-2.51.31s-3.32,0-8.3-.12-11.63-.35-18.29-.75-13.35-.92-18.4-1.41S880.85,603.4,880.67,603.38Z" transform="translate(-764.67 -430.71)"/><path d="M882,598.56l-.16,0,3,2.29c-1-1.8-.83-4.81.75-6.26L882,596c15,1.29,29.86,2.7,44.9,3,2.69.06,5.39,0,8.07.12-2.29-.08.47.09.82.16,2,.37,4.07.73,6.09,1.15q2.48.53,4.94,1.14c1,.24,4.17,1.72,5,1.46q2.79,1.5.13-5.05a2.27,2.27,0,0,0-.86.41c-1,0-2.33.84-3.34,1.09-2.64.67-8.24,1.35-12.12,1.86,1.76-.23-1.93.14-2.68.16-3.28.06-6.58-.1-9.86-.19q-21.3-.63-42.5-3c-6.38-.7-6.33,9.31,0,10q23.05,2.54,46.27,3.07c8.87.2,19-.38,27.23-3.51,4.51-1.71,9.34-6.13,5.63-11.14-3.86-5.21-14.11-5.81-19.93-6.87-5.34-1-10.64-.8-16.07-1-9.44-.28-18.87-.84-28.29-1.63-4.21-.35-8.53-1.17-12.75-1.26-3.5-.07-5.32,2.1-6.78,5.07-2.22,4.5-3.27,15.31,3.36,17.05C885.57,609.84,888.23,600.2,882,598.56Z" transform="translate(-764.67 -430.71)"/><path d="M822.33,512.27a140.76,140.76,0,0,1-23.65-1.61c-8.13-1.34-16.08-4-24.36-4.2-12.87-.38-12.86,19.62,0,20,7.6.22,15.23,3,22.78,4a171.73,171.73,0,0,0,25.23,1.76c12.87-.09,12.89-20.09,0-20Z" transform="translate(-764.67 -430.71)"/></svg>