<svg id="Layer_1" data-name="Layer 1" xmlns="http://www.w3.org/2000/svg" viewBox="0 0 461.25 410.05"><defs><style>.cls-1{fill:#333;}.cls-2{fill:#b3b3b3;}.cls-3{fill:#999;}.cls-4{fill:#bd0000;}.cls-5{fill:gray;}</style></defs><path class="cls-1" d="M426.62,456.84q-112.2-1-224.36,3.36c-2.17.08-4.65.3-6,1.82a6,6,0,0,0-1.09,3.5,1222.34,1222.34,0,0,0-2.06,184.63c.27,4.16,1,9,5,11.17,2.72,1.48,6.18,1.29,9.37,1L432.81,645.5a13,13,0,0,0,5-1c2.75-1.43,3.61-4.51,4.2-7.26a429.31,429.31,0,0,0-.3-180.63" transform="translate(-96.73 -267.46)"/><path d="M426.62,441.84q-43.87-.39-87.77,0-43.64.42-87.25,1.66-21.93.63-43.86,1.45c-4.28.16-9,0-13.12,1.21a20.71,20.71,0,0,0-8.93,5.21,19.08,19.08,0,0,0-4.57,7.92,32.6,32.6,0,0,0-.88,5.82c-.74,7.2-1.2,14.45-1.7,21.68q-3,43.37-2.93,86.87,0,21.85.87,43.7.41,10.8,1,21.59.3,5.46.65,10.91c.24,3.63.49,7.44,1.77,10.87a26.26,26.26,0,0,0,5.32,9.2,19.09,19.09,0,0,0,5.76,4.49,29.83,29.83,0,0,0,15.75,3c7.25-.48,14.51-1.09,21.76-1.63l43.86-3.28,87.2-6.53,43.86-3.29,21.92-1.64c4.66-.35,9.46-.47,14.05-1.38a21.17,21.17,0,0,0,14.37-10.95,45.06,45.06,0,0,0,3.56-11.57q1.06-5.2,2-10.43c1.43-8,2.6-16.13,3.64-24.23,1.81-14,2.92-28.08,3.34-42.18a449.46,449.46,0,0,0-6.2-87.37q-1.69-10.23-3.9-20.38c-.77-3.56-3.82-7.16-6.9-9a15.31,15.31,0,0,0-11.56-1.52c-3.63,1.18-7.13,3.43-9,6.9a16.32,16.32,0,0,0-1.51,11.56q3.62,16.72,5.92,33.72l-.54-4a430.9,430.9,0,0,1,2.65,89.24q-.94,12.72-2.65,25.37l.53-4q-1.28,9.44-3,18.8-.82,4.63-1.77,9.25a42.16,42.16,0,0,1-2,7.91l1.52-3.59a10.49,10.49,0,0,1-1,1.79l2.35-3a8.28,8.28,0,0,1-1.21,1.23l3-2.34a8.39,8.39,0,0,1-1.29.76l3.58-1.51a11.59,11.59,0,0,1-2.46.65l4-.53c-3.68.48-7.43.61-11.13.88l-11.46.86-22.93,1.72-45.84,3.43-91.69,6.87L226.5,646l-13,1c-3.9.29-8,.93-11.88.47l4,.53a12,12,0,0,1-2.75-.72l3.59,1.52a9.42,9.42,0,0,1-1.91-1.13l3,2.35a10,10,0,0,1-1.39-1.44l2.35,3a10.74,10.74,0,0,1-1.14-2l1.51,3.59a18.37,18.37,0,0,1-1.08-4.26l.54,4c-.75-5.72-.82-11.57-1.12-17.32q-.48-9.3-.83-18.61-.69-18.49-.82-37-.25-37.14,1.74-74.24.57-10.41,1.3-20.83.36-5.07.77-10.16c.27-3.41.43-6.87.88-10.27l-.53,4a7.28,7.28,0,0,1,.38-1.44l-1.52,3.59a5.49,5.49,0,0,1,.59-1l-2.34,3a2.92,2.92,0,0,1,.47-.46l-3,2.34a6.12,6.12,0,0,1,1.17-.67l-3.59,1.51a10.93,10.93,0,0,1,2.1-.52l-4,.54c3.52-.43,7.15-.36,10.69-.49l11-.4q11-.37,21.92-.71,22.19-.66,44.37-1.12,44.37-.91,88.76-1,24.94,0,49.87.18a15.47,15.47,0,0,0,10.61-4.39,15.25,15.25,0,0,0,4.39-10.61c-.17-3.88-1.44-7.9-4.39-10.61a15.66,15.66,0,0,0-10.61-4.39Z" transform="translate(-96.73 -267.46)"/><path class="cls-1" d="M456,501.86a518.4,518.4,0,0,1,81.57-16.81c3.31,1.74,5.69,6,5.37,9.37-3.44,36.87-10.42,73.45-16.35,110.07a3.75,3.75,0,0,1-1.37,2.79c-1.33.85-3.19.21-4.66-.45L457,578.32Z" transform="translate(-96.73 -267.46)"/><path d="M460,516.32A519.69,519.69,0,0,1,519.1,502.8q8.58-1.46,17.21-2.6l-4,.53,5.28-.68L530,498a11.43,11.43,0,0,1,1.16.74l-3-2.35a11.47,11.47,0,0,1,2,2l-2.35-3a12.85,12.85,0,0,1,1.45,2.45l-1.52-3.59a10.8,10.8,0,0,1,.74,2.61l-.53-4a33.89,33.89,0,0,1-.5,7q-.37,3.68-.79,7.33-.87,7.57-1.89,15.14l.54-4c-3,22.06-6.77,44-10.45,65.94q-.78,4.62-1.54,9.24c-.25,1.53-.51,3.07-.76,4.61a18.56,18.56,0,0,1-.85,4.14l1.51-3.58a2.78,2.78,0,0,1-.37.59l2.35-3-.25.26,3-2.35a2.63,2.63,0,0,1-.61.39L521,593a2.66,2.66,0,0,1-.68.2l4-.53a6.73,6.73,0,0,1-1.1,0l4,.53a10.23,10.23,0,0,1-2.23-.67l3.59,1.52c-16.69-7.29-33.24-14.9-49.85-22.35l-14.08-6.31,7.43,13-.33-25.82-.53-41.16-.12-9.48a15.58,15.58,0,0,0-4.39-10.61A15.23,15.23,0,0,0,456,486.86c-3.88.17-7.9,1.45-10.6,4.39a15.44,15.44,0,0,0-4.4,10.61l.33,25.81.53,41.17.12,9.48a14.94,14.94,0,0,0,7.43,12.95l54,24.23,6.81,3.06,3.07,1.37c1.48.65,3,1.35,4.5,1.86a17.53,17.53,0,0,0,22-9.81,16.87,16.87,0,0,0,1.33-4.23c.21-1.3.43-2.59.64-3.89,1.58-9.65,3.22-19.28,4.84-28.92,3.41-20.35,6.66-40.73,9.19-61.21q.89-7.2,1.62-14.42a34.24,34.24,0,0,0,.45-6.47,26.14,26.14,0,0,0-1-5.94,29.3,29.3,0,0,0-2.6-5.8,27.13,27.13,0,0,0-8.56-8.66,14.71,14.71,0,0,0-9.6-2.21l-3.84.5c-5.88.79-11.76,1.61-17.62,2.55A515.41,515.41,0,0,0,459,485.43c-2.31.64-4.61,1.29-6.92,2a15.62,15.62,0,0,0-9,6.9,15.3,15.3,0,0,0-1.51,11.56c1.17,3.63,3.42,7.13,6.89,9A15.44,15.44,0,0,0,460,516.32Z" transform="translate(-96.73 -267.46)"/><path class="cls-2" d="M195.93,298.16a67.73,67.73,0,0,1-6.57,2.24c-33.89,9.47-60.66,35-71.53,64.6-11.14,30.39-6.45,64.31,9.37,93.07,4.4,8,9.8,15.83,17.82,21.27,8.83,6,20.06,8.57,31.11,10.09,36.55,5,78.67-2.16,100.23-28.41,9.11-11.09,13.69-24.49,17.15-37.79,4.52-17.4,7.38-35.52,3.61-53.05-3.87-18-14.46-34.3-24.89-50.21-5-7.6-10.2-15.43-18.24-20.67-9.74-6.33-17-8.29-26.15-8.4a68.09,68.09,0,0,0-25.55,4.77Z" transform="translate(-96.73 -267.46)"/><path d="M191.94,283.7c-4.93,1.92-10.08,3.15-15,5A138.18,138.18,0,0,0,160.42,296a125.9,125.9,0,0,0-25.93,18.44,116.88,116.88,0,0,0-32.9,51.9,102.83,102.83,0,0,0-3.41,15.81,127.87,127.87,0,0,0-1.44,19.64,141,141,0,0,0,1.88,19.45,120.36,120.36,0,0,0,3.61,15.88,157.64,157.64,0,0,0,7,18.39,123,123,0,0,0,7.46,14.37c6.63,10.86,15.6,20.71,27.32,26.12a88.11,88.11,0,0,0,18.69,6.31,180.32,180.32,0,0,0,18.81,2.8,157.39,157.39,0,0,0,28.55.38,148.61,148.61,0,0,0,31.47-5.61,130.16,130.16,0,0,0,16-6.22,83.32,83.32,0,0,0,11.48-6.35,85,85,0,0,0,24.14-23.93A100.1,100.1,0,0,0,302,445.76a135.64,135.64,0,0,0,5.09-15.29c3.47-12.59,6.07-25.6,6.66-38.68A94.42,94.42,0,0,0,308,354.22a180.58,180.58,0,0,0-17.15-33.06c-2.95-4.64-5.92-9.27-9-13.79a84.78,84.78,0,0,0-12-14.58,63.68,63.68,0,0,0-16.5-11,66.18,66.18,0,0,0-9.92-3.82A66.14,66.14,0,0,0,233,276.19c-6.59-.7-13.15,0-19.68,1a71.11,71.11,0,0,0-15.14,4.1l-6.19,2.42a16.71,16.71,0,0,0-9,6.89,15.37,15.37,0,0,0-1.52,11.56c1.18,3.63,3.43,7.13,6.9,9s7.86,3,11.56,1.52l6.28-2.46a71.11,71.11,0,0,1,16-4.19l-4,.53a60.82,60.82,0,0,1,16.06-.16l-4-.54a42.59,42.59,0,0,1,10.44,2.88l-3.58-1.51A56.65,56.65,0,0,1,248.81,314l-3-2.34a52.48,52.48,0,0,1,9.14,9.34l-2.35-3c5.15,6.67,9.62,13.94,14.09,21.08a169.09,169.09,0,0,1,12.54,23.3l-1.52-3.58a84.84,84.84,0,0,1,6,21.06l-.54-4a99.31,99.31,0,0,1-.29,26.4l.53-4a183.22,183.22,0,0,1-4.51,21.87A141.38,141.38,0,0,1,272.59,439l1.51-3.59a76.13,76.13,0,0,1-9.6,16.7l2.35-3a67,67,0,0,1-11.64,11.56l3-2.35a83.45,83.45,0,0,1-18.43,10.62l3.58-1.52A117.28,117.28,0,0,1,214,475.15l4-.54a156.32,156.32,0,0,1-41.45-.13l4,.54c-8-1.09-15.93-2.67-23.38-5.79l3.59,1.51a46.84,46.84,0,0,1-10.16-5.84l3,2.34a50.26,50.26,0,0,1-8.72-8.83l2.35,3a104.24,104.24,0,0,1-12.94-23.11l1.51,3.59a123.4,123.4,0,0,1-8.56-31l.53,4a110.11,110.11,0,0,1-.1-28.79l-.53,4A99.39,99.39,0,0,1,134,364.76l-1.51,3.58a101.26,101.26,0,0,1,13-22.06l-2.34,3a110.23,110.23,0,0,1,19.42-19.43l-3,2.35a111.4,111.4,0,0,1,24.71-14.44l-3.59,1.51c6.32-2.64,13-4.21,19.33-6.68a16.8,16.8,0,0,0,9-6.9,15.3,15.3,0,0,0,1.51-11.56c-1.17-3.62-3.42-7.13-6.89-9S195.64,282.26,191.94,283.7Z" transform="translate(-96.73 -267.46)"/><path class="cls-3" d="M409.71,282.58c-37.12,0-72.71,13.94-96.49,38.8-.66.69-1.31,1.38-1.94,2.08-20.43,22.4-31.38,50.67-34.33,79.18-1.22,11.84-1,24.35,5.5,34.8,5.14,8.31,13.78,14.56,22.93,19.61,36.16,19.94,83.75,23.09,122.94,8.13,10.75-4.1,21-9.58,28.78-17.25,9.31-9.2,14.5-21,18.53-32.77,9.92-29,13.78-60.77,1.38-89s-30.52-45.55-65.08-43.6Z" transform="translate(-96.73 -267.46)"/><path d="M409.71,267.58a160.14,160.14,0,0,0-69.31,15.86,138.33,138.33,0,0,0-28.82,18.93,135.46,135.46,0,0,0-24.1,27.2A154.22,154.22,0,0,0,263,394.2a129.74,129.74,0,0,0-1.62,20.26,88.94,88.94,0,0,0,1.22,12,43.74,43.74,0,0,0,2.06,8.12,54.44,54.44,0,0,0,5,10.8,60.52,60.52,0,0,0,6.94,8.93,79,79,0,0,0,15.4,12.33,144.62,144.62,0,0,0,32.64,15,169.3,169.3,0,0,0,35.67,7.18,155.66,155.66,0,0,0,33-.19,161.39,161.39,0,0,0,35.31-7.6,144.65,144.65,0,0,0,18.8-8,91.57,91.57,0,0,0,16.73-11.28,72.18,72.18,0,0,0,13.24-15.19,101.78,101.78,0,0,0,9.08-17.91,173.84,173.84,0,0,0,10.09-33.48c2.48-12.65,3.87-25.72,2.85-38.61a121.92,121.92,0,0,0-3.34-20.88A115.09,115.09,0,0,0,489,316.42a106.49,106.49,0,0,0-15.42-24.36,59.23,59.23,0,0,0-8.34-8.19,70,70,0,0,0-12.54-8.42A72.7,72.7,0,0,0,438,269.91a89.22,89.22,0,0,0-16.83-2.38c-3.83-.19-7.64.05-11.47.05A15.48,15.48,0,0,0,399.1,272a15.23,15.23,0,0,0-4.39,10.6c.17,3.88,1.44,7.91,4.39,10.61a15.59,15.59,0,0,0,10.61,4.39c5.91,0,11.73-.27,17.63.52l-4-.54a59.76,59.76,0,0,1,14.8,4L434.57,300a53.55,53.55,0,0,1,11.79,6.88l-3-2.34a62.36,62.36,0,0,1,10.9,11.06l-2.34-3A102.12,102.12,0,0,1,464.59,335l-1.51-3.58a94.08,94.08,0,0,1,6.32,23.42l-.54-4a119.47,119.47,0,0,1-.21,31.27l.53-4a168.89,168.89,0,0,1-11.66,42.7l1.52-3.58a79.15,79.15,0,0,1-9.83,17.37l2.35-3a58.89,58.89,0,0,1-10.34,10.35l3-2.35a87.48,87.48,0,0,1-19.5,11l3.58-1.51a142,142,0,0,1-35.68,9.59l4-.53a157,157,0,0,1-41.2,0l4,.54a148.59,148.59,0,0,1-37.78-10.18l3.58,1.51a108.41,108.41,0,0,1-23.8-13.39l3,2.35a52.2,52.2,0,0,1-9.17-9l2.35,3a38.57,38.57,0,0,1-4.79-8.15l1.51,3.58a45.28,45.28,0,0,1-3-11.32l.53,4c-1-7.64-.41-15.38.59-23l-.54,4a147.33,147.33,0,0,1,10.17-37.61l-1.52,3.58a133.69,133.69,0,0,1,17-29.25l-2.34,3a119.66,119.66,0,0,1,21.12-21.25l-3,2.34a127.51,127.51,0,0,1,28.29-16.43l-3.58,1.51a142.3,142.3,0,0,1,36-9.74l-4,.54a150.44,150.44,0,0,1,19.67-1.32,15.47,15.47,0,0,0,10.6-4.39,15.29,15.29,0,0,0,4.4-10.61c-.18-3.88-1.45-7.9-4.4-10.6A15.6,15.6,0,0,0,409.71,267.58Z" transform="translate(-96.73 -267.46)"/><path d="M202.57,333a14.82,14.82,0,0,0-2.29.6c-1.55.54-3.06,1.24-4.56,1.89-.38.16-.75.34-1.11.53a14.38,14.38,0,0,0-1.94,1.22c-1.29,1-2.6,1.92-3.82,3-.29.26-.58.54-.85.82a14.52,14.52,0,0,0-3.1,16.39,11.35,11.35,0,0,0,3.1,4.82l3,2.35a14.91,14.91,0,0,0,7.57,2.05l4-.54a15,15,0,0,0,6.62-3.86,13.37,13.37,0,0,1,1.48-1.33l-3,2.34a15.76,15.76,0,0,1,3.2-1.87l-3.58,1.52a16.14,16.14,0,0,1,3.26-1,11.22,11.22,0,0,0,5.1-2.68,11.36,11.36,0,0,0,3.87-4.21,11.21,11.21,0,0,0,1.78-5.58,11.48,11.48,0,0,0-.27-6l-1.51-3.58a15.15,15.15,0,0,0-5.38-5.38L210.54,333a15,15,0,0,0-8,0Z" transform="translate(-96.73 -267.46)"/><path d="M163,413.57a15.48,15.48,0,0,0,10.6-4.4,15.19,15.19,0,0,0,4.4-10.6c-.18-3.88-1.45-7.91-4.4-10.61a15,15,0,0,0-21.21,0A15.23,15.23,0,0,0,148,398.57c.17,3.88,1.45,7.9,4.39,10.6a15.57,15.57,0,0,0,10.61,4.4Z" transform="translate(-96.73 -267.46)"/><path d="M188.28,460.71l10.27-1.25a16.7,16.7,0,0,0,10.61-4.39,16.7,16.7,0,0,0,4.39-10.61l-.53-4a15.05,15.05,0,0,0-3.86-6.62l-3-2.35a15,15,0,0,0-7.57-2.05l-10.27,1.25a16.64,16.64,0,0,0-10.61,4.4,11.14,11.14,0,0,0-3.1,4.82,11.29,11.29,0,0,0-1.29,5.78l.53,4a15.05,15.05,0,0,0,3.86,6.62l3,2.34a14.91,14.91,0,0,0,7.57,2Z" transform="translate(-96.73 -267.46)"/><path d="M242.12,448.57a15.48,15.48,0,0,0,10.61-4.4,15.23,15.23,0,0,0,4.39-10.6c-.17-3.88-1.44-7.91-4.39-10.61a15,15,0,0,0-21.21,0,15.29,15.29,0,0,0-4.4,10.61c.18,3.88,1.45,7.9,4.4,10.6a15.55,15.55,0,0,0,10.6,4.4Z" transform="translate(-96.73 -267.46)"/><path d="M249,392.57a15.48,15.48,0,0,0,10.61-4.4,15.23,15.23,0,0,0,4.39-10.6c-.17-3.88-1.45-7.91-4.39-10.61a15,15,0,0,0-21.22,0A15.23,15.23,0,0,0,234,377.57c.17,3.88,1.45,7.9,4.39,10.6a15.59,15.59,0,0,0,10.61,4.4Z" transform="translate(-96.73 -267.46)"/><path d="M379.91,347.57a15.48,15.48,0,0,0,10.61-4.4,15.23,15.23,0,0,0,4.39-10.6c-.17-3.88-1.45-7.91-4.39-10.61a15.63,15.63,0,0,0-10.61-4.39A15.47,15.47,0,0,0,369.3,322a15.23,15.23,0,0,0-4.39,10.61c.17,3.88,1.45,7.9,4.39,10.6a15.59,15.59,0,0,0,10.61,4.4Z" transform="translate(-96.73 -267.46)"/><path d="M338.65,380.57a15.52,15.52,0,0,0,10.61-4.4,15.23,15.23,0,0,0,4.39-10.6c-.18-3.88-1.45-7.91-4.39-10.61a15.63,15.63,0,0,0-10.61-4.39A15.47,15.47,0,0,0,328,355a15.23,15.23,0,0,0-4.39,10.61c.17,3.88,1.45,7.9,4.39,10.6a15.57,15.57,0,0,0,10.61,4.4Z" transform="translate(-96.73 -267.46)"/><path d="M355.84,438.57a15.48,15.48,0,0,0,10.61-4.4,15.23,15.23,0,0,0,4.39-10.6c-.17-3.88-1.45-7.91-4.39-10.61a15,15,0,0,0-21.22,0,15.23,15.23,0,0,0-4.39,10.61c.17,3.88,1.45,7.9,4.39,10.6a15.59,15.59,0,0,0,10.61,4.4Z" transform="translate(-96.73 -267.46)"/><path d="M425.76,414.57a15.48,15.48,0,0,0,10.6-4.4,15.24,15.24,0,0,0,4.4-10.6c-.18-3.88-1.45-7.91-4.4-10.61a15,15,0,0,0-21.21,0,15.23,15.23,0,0,0-4.39,10.61c.17,3.88,1.45,7.9,4.39,10.6a15.57,15.57,0,0,0,10.61,4.4Z" transform="translate(-96.73 -267.46)"/><path d="M434.93,349.57a15.48,15.48,0,0,0,10.6-4.4,15.24,15.24,0,0,0,4.4-10.6c-.18-3.88-1.45-7.91-4.4-10.61a15,15,0,0,0-21.21,0,15.23,15.23,0,0,0-4.39,10.61c.17,3.88,1.44,7.9,4.39,10.6a15.57,15.57,0,0,0,10.61,4.4Z" transform="translate(-96.73 -267.46)"/><path class="cls-4" d="M259.62,623.18a35.35,35.35,0,0,0,6.31-7,33.77,33.77,0,0,0,4.12-8.37,15,15,0,0,0,0-8,16.71,16.71,0,0,0-6.89-9,14.91,14.91,0,0,0-7.57-2.05,5.35,5.35,0,0,0-.8,0c-.77,0-1.7.22-2.37.31s-1.55.15-2.27.31a7.35,7.35,0,0,0-.71.2,32,32,0,0,0-4.18,1.78,7.56,7.56,0,0,0-.71.44,41.3,41.3,0,0,0-3.47,2.7,10.22,10.22,0,0,0-1.2,1.26,31,31,0,0,0-4,5.71,26.28,26.28,0,0,0-2.11,5.06,14.92,14.92,0,0,0-.54,4.65l.26,2a6.51,6.51,0,0,0,.34,2.21l1.51,3.59a1.61,1.61,0,0,0,.17.28,29.06,29.06,0,0,0,2.46,3.16l.06.05a28.81,28.81,0,0,0,3.1,2.4,19.66,19.66,0,0,0,4,1.78,20.94,20.94,0,0,0,5.5.84,30,30,0,0,0,4.13,0c1.91-.12,3.85-.42,5.73-.71a14.28,14.28,0,0,0,2.15-.5c1.46-.48,2.86-1.16,4.27-1.77a9.1,9.1,0,0,0,.84-.39,22.42,22.42,0,0,0,4.35-3.29,7.61,7.61,0,0,0,.67-.72,32.23,32.23,0,0,0,2.79-3.67,20.72,20.72,0,0,0,1.1-2.47,17.78,17.78,0,0,0,1-2.48,19.3,19.3,0,0,0,.09-9.37,4.11,4.11,0,0,0-.23-.85,35.37,35.37,0,0,0-1.58-3.75c-.09-.16-.18-.32-.29-.48a16.84,16.84,0,0,0-9-6.89,11.48,11.48,0,0,0-6-.27,11.21,11.21,0,0,0-5.58,1.78l-3,2.35a15.05,15.05,0,0,0-3.86,6.62l-.53,4a14.94,14.94,0,0,0,2,7.57,4.41,4.41,0,0,1,.36.64l-1.51-3.59a5.09,5.09,0,0,1,.23.85l-.54-4a4.31,4.31,0,0,1,0,.88l.54-4a5.12,5.12,0,0,1-.33,1.22l1.51-3.59a6,6,0,0,1-.78,1.31l2.35-3a7.55,7.55,0,0,1-1.14,1.12l3-2.35a8.51,8.51,0,0,1-1.69.95l3.58-1.51a13.65,13.65,0,0,1-3.08.78l4-.53a27,27,0,0,1-6,.15l4,.53a4.82,4.82,0,0,1-1.12-.27l3.59,1.51a3.3,3.3,0,0,1-.45-.26l3,2.34a1.25,1.25,0,0,1-.23-.23l2.35,3a1.05,1.05,0,0,1-.17-.29l1.51,3.59-.07-.22.54,4a1.31,1.31,0,0,1,0-.44l-.53,4a3.8,3.8,0,0,1,.26-.89l-1.52,3.58a17.07,17.07,0,0,1,1.94-3.4L261,617a9.25,9.25,0,0,1,1.48-1.52l-3,2.34a6.82,6.82,0,0,1,1.27-.77l-3.59,1.52a5.57,5.57,0,0,1,1.25-.36l-4,.54a5.17,5.17,0,0,1,1.18,0l-14.47-19q-.15.42-.33.84L242.3,597a19.69,19.69,0,0,1-2.42,4.13l2.35-3A22.39,22.39,0,0,1,238.4,602a15.43,15.43,0,0,0,0,21.21l3,2.35a15,15,0,0,0,7.57,2.05l4-.54a15,15,0,0,0,6.62-3.86Z" transform="translate(-96.73 -267.46)"/><path class="cls-5" d="M391.09,505q-26.56,1.43-53.1,3.22t-53.28,4q-15,1.21-29.95,2.56a16.7,16.7,0,0,0-10.61,4.39,15.23,15.23,0,0,0-4.39,10.61c.17,3.88,1.45,7.9,4.39,10.6,2.78,2.56,6.69,4.75,10.61,4.4q26.48-2.37,53-4.37t53.31-3.65q15-.93,30-1.73a15.85,15.85,0,0,0,10.61-4.39A15.25,15.25,0,0,0,406.09,520c-.17-3.88-1.45-7.9-4.39-10.61s-6.63-4.61-10.61-4.39Z" transform="translate(-96.73 -267.46)"/><path class="cls-5" d="M383.15,561.27a152.31,152.31,0,0,0-35.58.27,11.37,11.37,0,0,0-5.78,1.3,11.23,11.23,0,0,0-4.83,3.1,15.23,15.23,0,0,0-4.39,10.6c.17,3.88,1.45,7.91,4.39,10.61,2.72,2.5,6.77,4.88,10.61,4.39a152.31,152.31,0,0,1,35.58-.27,16.64,16.64,0,0,0,10.6-4.39,15.29,15.29,0,0,0,4.4-10.61c-.18-3.88-1.45-7.9-4.4-10.6l-3-2.35a15,15,0,0,0-7.57-2.05Z" transform="translate(-96.73 -267.46)"/></svg>