<svg xmlns="http://www.w3.org/2000/svg" xmlns:xlink="http://www.w3.org/1999/xlink" viewBox="0 0 285.19 269.69"><defs><style>.cls-1{fill:url(#linear-gradient);}.cls-2{fill:#fff;}</style><linearGradient id="linear-gradient" x1="15.02" y1="134.84" x2="260.21" y2="134.84" gradientUnits="userSpaceOnUse"><stop offset="0.13" stop-color="#fec810"/><stop offset="0.56" stop-color="#f0f"/><stop offset="0.6" stop-color="#f50aff"/><stop offset="0.65" stop-color="#dc23ff"/><stop offset="0.72" stop-color="#b24dff"/><stop offset="0.8" stop-color="#7887ff"/><stop offset="0.89" stop-color="#2ed1ff"/><stop offset="0.94" stop-color="aqua"/></linearGradient></defs><g id="Layer_2" data-name="Layer 2"><g id="Layer_1-2" data-name="Layer 1"><path class="cls-1" d="M259.13,34.11A20.35,20.35,0,0,0,238.42,15c-54.69,1.07-120.32,1.46-172,1.16-10-.06-20.18-.11-29.64,3S18.54,29.35,16,39a45.29,45.29,0,0,0-1,11.57c0,63.27.12,127.1,13.44,189,.62,2.88,1.36,5.93,3.48,8,1.88,1.82,4.54,2.55,7.09,3.14,49.21,11.39,100.18-4.82,150.66-6.55,18-.62,36.13.62,54.1-.93,4.6-.4,9.33-1,13.28-3.41a22.74,22.74,0,0,0,8.15-9.3C270.6,220,270.4,207.7,270,196q-2.67-76.16-10.25-152Z"/><path d="M274.13,34.11a38.94,38.94,0,0,0-4.06-15.26,31,31,0,0,0-7.21-9.41A39.07,39.07,0,0,0,249.92,1.8,33.81,33.81,0,0,0,237.57,0q-21.65.42-43.31.67-44.91.55-89.83.56c-14.09,0-28.19-.12-42.28-.11-8.88,0-18,.47-26.62,2.78a53.53,53.53,0,0,0-22.61,12.4,40,40,0,0,0-7.82,10A46.11,46.11,0,0,0,2,33.59,43.74,43.74,0,0,0,.31,42.81,108.88,108.88,0,0,0,0,54.52Q0,60.7,0,66.89c0,16.18.14,32.35.55,48.53C1.45,149,3.74,182.6,8.9,215.85q1.89,12.19,4.38,24.28c.94,4.53,1.88,9,4.26,13.08,3.56,6.09,9.57,9.88,16.29,11.62A163.58,163.58,0,0,0,60.22,269a203.24,203.24,0,0,0,23.28.62c31.77-.85,63-7.55,94.64-9.86,16.49-1.21,33-.52,49.5-.79,4-.07,8.08-.21,12.12-.47a96.7,96.7,0,0,0,14.9-1.8A35.61,35.61,0,0,0,278,238.39c4.6-8.66,6.46-18,7-27.78.43-7.57,0-15.18-.32-22.75q-1-24.78-2.44-49.56-1.49-25-3.51-50-1-12.36-2.13-24.72c-.62-6.8-1.52-13.61-1.93-20.43l-.55-9a15.86,15.86,0,0,0-4.39-10.6,15.29,15.29,0,0,0-10.61-4.4c-3.88.18-7.9,1.45-10.6,4.4s-4.64,6.64-4.4,10.6c.42,6.82,1,13.59,1.63,20.4q1.91,19.91,3.46,39.85,3.1,39.63,4.88,79.34.5,11.24.89,22.48a122.23,122.23,0,0,1-.46,19.7l.53-4a47.7,47.7,0,0,1-3.18,12.2l1.51-3.59a32.28,32.28,0,0,1-3.93,6.84l2.35-3a22.72,22.72,0,0,1-3.68,3.72l3-2.35a18.85,18.85,0,0,1-4,2.3l3.58-1.51a30.82,30.82,0,0,1-7.52,1.88l4-.54c-12.92,1.66-26.11,1.21-39.09,1.13a381.46,381.46,0,0,0-38.69,1.53c-25.05,2.4-49.86,7-75,8.61a211.68,211.68,0,0,1-41.81-.94l4,.53c-3.08-.41-6.14-.91-9.18-1.52A48,48,0,0,1,39,235l3.58,1.51a11.93,11.93,0,0,1-2.48-1.41l3,2.34A10.1,10.1,0,0,1,41.75,236l2.35,3a11.93,11.93,0,0,1-1.36-2.41l1.51,3.58c-1.26-3.17-1.76-6.67-2.44-10q-1.1-5.44-2.08-10.91-2-11.06-3.46-22.17l.53,4c-2.75-20.47-4.39-41.08-5.35-61.71S30.17,98,30.07,77.29Q30,68.5,30,59.71c0-5.76-.35-11.65.35-17.38l-.54,4a25.48,25.48,0,0,1,1.73-6.47L30,43.42A26.27,26.27,0,0,1,33.22,38l-2.35,3a32.09,32.09,0,0,1,5.55-5.5l-3,2.35a38.4,38.4,0,0,1,8.16-4.73L38,34.72a51.27,51.27,0,0,1,13-3.33l-4,.53a151.19,151.19,0,0,1,20.3-.77q8.78,0,17.53.07,18.77.06,37.51,0,38.94-.11,77.88-.61,10.71-.13,21.42-.31L232,30.11a66.59,66.59,0,0,1,9.58.07l-4-.54a22,22,0,0,1,5.27,1.47l-3.58-1.51a21.69,21.69,0,0,1,4.33,2.55l-3-2.34a21.41,21.41,0,0,1,3.77,3.78l-2.34-3a21.71,21.71,0,0,1,2.55,4.37l-1.51-3.58a21.44,21.44,0,0,1,1.45,5.34l-.53-4c.05.47.1,1,.13,1.42a16,16,0,0,0,4.4,10.61,15.23,15.23,0,0,0,10.6,4.39c3.88-.17,7.9-1.44,10.61-4.39S274.41,38.07,274.13,34.11Z"/><path class="cls-2" d="M216.35,72.5A15.47,15.47,0,0,0,227,68.11a15.24,15.24,0,0,0,4.4-10.61c-.18-3.88-1.45-7.9-4.4-10.61a15,15,0,0,0-21.21,0,15.25,15.25,0,0,0-4.39,10.61c.17,3.88,1.44,7.9,4.39,10.61a15.61,15.61,0,0,0,10.61,4.39Z"/><path class="cls-2" d="M129.71,206.4a57.39,57.39,0,0,0,13.52,2.37,49.41,49.41,0,0,0,8.6-.07,73.5,73.5,0,0,0,12-2,71.8,71.8,0,0,0,11.48-4.38,61.87,61.87,0,0,0,16.67-11.74,65.69,65.69,0,0,0,12.73-17.24,106.05,106.05,0,0,0,8.1-20.82,83.36,83.36,0,0,0,2.95-22.92c-.36-16.18-6.52-32.47-19-43.23a67,67,0,0,0-22.19-12.77,54.16,54.16,0,0,0-9.88-2.41A93.57,93.57,0,0,0,149.75,70a135.75,135.75,0,0,0-26.33,3.2,90.64,90.64,0,0,0-23.6,8.29,68.61,68.61,0,0,0-10.91,7.47,44.57,44.57,0,0,0-6.44,6.37c-5.53,6.77-10,14.4-11.71,23.1a63.58,63.58,0,0,0-1.26,14.43,102.86,102.86,0,0,0,1.78,14.64c.71,3.88,1.63,7.72,2.61,11.54a78.34,78.34,0,0,0,4.16,11.89,43.47,43.47,0,0,0,4.28,7.69,59.53,59.53,0,0,0,7.78,9.28,55.11,55.11,0,0,0,20.22,12.05c5.81,2,11.64,3.9,17.46,5.85l1.92.65c3.57,1.19,8.38.35,11.56-1.52a15.33,15.33,0,0,0,6.9-9c.87-3.84.68-8.15-1.52-11.56a16.38,16.38,0,0,0-9-6.89l-17.9-6c-1.4-.47-2.79-.94-4.16-1.52l3.59,1.51a38.39,38.39,0,0,1-8.22-4.85l3,2.34a40.9,40.9,0,0,1-7.06-7.1l2.34,3a43.7,43.7,0,0,1-5.5-9.5l1.51,3.59a75.33,75.33,0,0,1-3.2-10.71,127.65,127.65,0,0,1-2.58-13l.53,4a56.38,56.38,0,0,1-.21-14.68l-.54,4a38.11,38.11,0,0,1,2.5-9.26l-1.52,3.58a40,40,0,0,1,5-8.56l-2.34,3a44.58,44.58,0,0,1,7.74-7.73l-3,2.35a53.26,53.26,0,0,1,11.92-6.84L116,106.68c8.08-3.35,16.74-5.13,25.38-6.32l-4,.54a85.35,85.35,0,0,1,22.35-.36l-4-.53a55.22,55.22,0,0,1,13.67,3.64l-3.58-1.51a49.4,49.4,0,0,1,10.94,6.35l-3-2.35a43.78,43.78,0,0,1,7.44,7.4l-2.35-3a41.1,41.1,0,0,1,5.37,9.19l-1.51-3.58a46.79,46.79,0,0,1,3.11,11.64l-.54-4a60.34,60.34,0,0,1-.14,15.77l.53-4a82.6,82.6,0,0,1-5.83,20.72l1.52-3.59A64.73,64.73,0,0,1,173.22,167l2.35-3a52.25,52.25,0,0,1-9.17,9.15l3-2.35a50.34,50.34,0,0,1-10.92,6.36l3.59-1.51A50.31,50.31,0,0,1,149.6,179l4-.54a50.74,50.74,0,0,1-13.26,0l4,.54a38.42,38.42,0,0,1-6.63-1.53,15,15,0,0,0-18.45,10.47c-.88,3.84-.69,8.15,1.51,11.56A16.35,16.35,0,0,0,129.71,206.4Z"/></g></g></svg>