<svg id="Layer_1" data-name="Layer 1" xmlns="http://www.w3.org/2000/svg" viewBox="0 0 421.34 379.76"><path d="M108.69,363q2.78,62.82,3.55,125.68t-.46,125.67q-.61,31.41-1.73,62.8c-.25,7.15-1.31,14.82,2.62,21.28a23.23,23.23,0,0,0,9.36,8.92,24.23,24.23,0,0,0,10.6,2.84c1.39.08,2.77,0,4.16-.06q15.68-.52,31.36-.76c41.85-.65,83.72.17,125.54,1.74s83.49,3.88,125.21,6.24q31.2,1.77,62.4,3.49l16.08.84c3.72.2,7.29.41,11-.59a22.08,22.08,0,0,0,13.74-10.56c2.51-4.42,2.73-9,3.35-13.91q.51-4.14,1-8.28.8-7.51,1.4-15.06c3.12-39.29,2.25-78.74,1.38-118.1q-.29-13-.58-26.11l-1.23-56-1.34-60.63-.88-39.92-.08-3.81c-.15-6.69-2.37-13.08-7.26-17.84a27.22,27.22,0,0,0-18.9-7.55h-2l-23.1-.08-42.61-.14-55.57-.19-61.82-.2-61.73-.21-55.34-.18-42.21-.14L132,342.05c-.58,0-1.17,0-1.75,0H130a22.9,22.9,0,0,0-11.07,3c-6.57,3.88-9.84,10.47-10.22,17.9-.23,4.47,2.17,9.63,5.28,12.73s8.24,5.48,12.72,5.27c10.17-.45,17.49-7.91,18-18l0-.47-.65,4.79.11-.45-1.81,4.3a2.43,2.43,0,0,1,.45-.8L140,374l.32-.34-3.64,2.81a3.39,3.39,0,0,1,.82-.53l-4.3,1.82a3.58,3.58,0,0,1,1-.29l-4.78.64c3.41-.23,6.9,0,10.33,0l26.87.09,39.81.13,48.61.16,53.24.18,53.73.18,50.06.16,42.24.14,30.27.11c4.72,0,9.44,0,14.16,0,.56,0,1.1,0,1.67.08l-4.79-.64a11.08,11.08,0,0,1,2.11.54l-4.3-1.81a10.66,10.66,0,0,1,1.81,1l-3.64-2.82A9.83,9.83,0,0,1,493,377l-2.81-3.65a10.56,10.56,0,0,1,.76,1.24l-1.82-4.3a7.5,7.5,0,0,1,.52,1.85l-.64-4.78c.61,9.54.44,19.2.65,28.76l1.39,63.1,1.42,64.07q.35,15.87.7,31.75c.93,42.41,1.88,85-2.17,127.23q-.79,8.29-1.86,16.55l.65-4.79a11.83,11.83,0,0,1-.61,2.58l1.81-4.3a3.94,3.94,0,0,1-.53.91l2.82-3.65a3.31,3.31,0,0,1-.8.74l3.64-2.81-.51.29,4.3-1.82a7.63,7.63,0,0,1-1.75.45l4.78-.64a71.63,71.63,0,0,1-8.66-.31l-9.18-.48-18.37-1q-18-1-36-2c-24.25-1.37-48.49-2.75-72.75-4-48.2-2.48-96.45-4.45-144.72-4.81q-20.28-.17-40.56.09-9.94.13-19.89.37c-3.31.08-6.63.17-9.94.27s-6.91.54-10.28.25l4.79.64a9.66,9.66,0,0,1-1.52-.38l4.3,1.81a9.42,9.42,0,0,1-1.33-.71l3.65,2.82a8.21,8.21,0,0,1-1.06-1l2.82,3.64a6.85,6.85,0,0,1-.72-1.19l1.81,4.3a4.55,4.55,0,0,1-.26-.89l.64,4.79a45.16,45.16,0,0,1,.16-7.07c.11-2.8.2-5.61.3-8.42q.28-8,.52-16.08.48-15.69.83-31.4.7-31.78.9-63.58.39-63.62-1.26-127.22-.93-35.64-2.51-71.27a18.87,18.87,0,0,0-5.27-12.72c-3.12-3.13-8.24-5.48-12.73-5.28-4.65.21-9.48,1.74-12.72,5.28S108.48,358.17,108.69,363Z" transform="translate(-108.68 -342.04)"/><path d="M182.23,380.65l-.48,75-.47,75-.27,42a35.14,35.14,0,0,0,9.23,22.27,23.58,23.58,0,0,0,10.14,6.51,23.67,23.67,0,0,0,12.13,2.72l8.38-1.13a31.57,31.57,0,0,0,13.9-8.1l4.92-6.37a31.31,31.31,0,0,0,4.3-15.9l.48-75,.47-75,.27-42a23.81,23.81,0,0,0-2.72-12.14,28.28,28.28,0,0,0-16.65-16.65,23.76,23.76,0,0,0-12.13-2.71l-8.38,1.12a31.57,31.57,0,0,0-13.9,8.1l-4.92,6.38a31.26,31.26,0,0,0-4.3,15.9Z" transform="translate(-108.68 -342.04)"/><path d="M291.28,379.54q1.8,39.33,3.15,78.68,1.33,39.12,2.22,78.26.5,22.18.84,44.38a30.4,30.4,0,0,0,19.37,28.79A23.64,23.64,0,0,0,329,612.36l8.38-1.12a31.57,31.57,0,0,0,13.9-8.1l4.92-6.38a31.36,31.36,0,0,0,4.3-15.9q-.62-39.39-1.7-78.78-1.08-39.12-2.62-78.23-.87-22.16-1.89-44.31a23.77,23.77,0,0,0-2.72-12.13,28.28,28.28,0,0,0-16.65-16.65A23.67,23.67,0,0,0,322.78,348l-8.38,1.13a31.38,31.38,0,0,0-13.9,8.1l-4.92,6.37a31.31,31.31,0,0,0-4.3,15.9Z" transform="translate(-108.68 -342.04)"/><path d="M408.25,384.21l-.47,75-.48,75-.26,42A30.38,30.38,0,0,0,426.4,605a23.71,23.71,0,0,0,12.14,2.72l8.37-1.13a31.52,31.52,0,0,0,13.9-8.1l4.93-6.38A31.35,31.35,0,0,0,470,576.2l.47-75,.48-75,.26-42A35,35,0,0,0,462,361.93a35,35,0,0,0-22.27-9.22l-8.37,1.12a31.52,31.52,0,0,0-13.9,8.1l-4.93,6.38a31.36,31.36,0,0,0-4.3,15.9Z" transform="translate(-108.68 -342.04)"/></svg>